{"glyphs":{"0":{"ha":798,"x_min":62,"x_max":734,"o":"m 63 374 q 63 388 63 374 q 62 443 62 401 q 63 513 62 485 q 71 594 64 541 q 90 685 78 647 q 126 768 102 722 q 185 842 151 814 q 274 890 220 871 q 398 909 329 909 q 523 889 468 909 q 612 842 578 869 q 671 767 646 814 q 708 684 696 721 q 726 594 720 647 q 734 513 733 541 q 734 443 734 485 q 734 373 734 401 q 726 292 733 345 q 708 203 720 240 q 671 122 696 167 q 611 50 646 78 q 522 3 576 22 q 399 -16 467 -16 q 275 4 330 -16 q 185 51 220 24 q 126 123 151 78 q 90 204 102 168 q 71 293 78 240 q 63 374 64 346 m 240 460 q 253 167 240 239 q 309 67 265 99 q 399 35 353 35 q 453 44 427 35 q 509 88 479 53 q 547 183 539 123 q 557 460 557 255 q 533 772 557 721 q 477 838 515 815 q 399 860 440 860 q 348 853 374 860 q 290 812 322 846 q 252 722 258 778 q 240 460 240 650 z "},"1":{"ha":798,"x_min":118,"x_max":686,"o":"m 118 755 l 118 821 l 146 821 q 425 900 318 821 q 456 909 437 909 q 486 901 481 909 q 492 865 492 892 l 492 65 l 686 65 l 686 0 q 410 4 625 4 q 134 0 195 4 l 134 65 l 326 65 l 326 783 q 146 755 240 755 l 118 755 z "},"2":{"ha":798,"x_min":79,"x_max":718,"o":"m 79 0 l 79 25 q 82 54 79 47 q 97 72 85 60 l 376 357 q 526 646 526 509 q 478 787 526 729 q 343 844 429 844 q 200 796 258 844 q 231 784 216 792 q 262 753 245 777 q 279 696 279 729 q 248 622 279 647 q 179 596 216 596 q 112 620 144 596 q 79 699 79 644 q 165 850 79 791 q 378 909 250 909 q 622 837 526 909 q 718 647 718 765 q 704 561 718 598 q 651 483 690 524 q 579 415 612 441 q 471 334 546 389 q 271 174 406 286 l 475 174 q 616 182 601 174 q 653 309 635 191 l 718 309 l 675 0 l 79 0 z "},"3":{"ha":798,"x_min":66,"x_max":730,"o":"m 66 193 q 97 273 66 245 q 174 301 127 301 q 250 272 220 301 q 279 196 279 243 q 199 92 279 114 q 374 45 274 44 q 444 61 415 45 q 487 98 473 78 q 509 151 501 118 q 517 203 517 184 q 518 252 518 222 q 517 301 518 282 q 508 353 517 319 q 485 407 500 387 q 440 443 471 427 q 367 458 410 458 l 306 458 q 284 459 290 458 q 272 465 278 460 q 267 484 267 471 q 283 507 267 506 q 350 513 299 510 q 411 529 385 514 q 452 567 437 543 q 476 612 467 590 q 490 661 486 635 q 495 700 494 688 q 496 721 496 711 q 376 856 496 856 q 224 806 286 856 q 304 708 304 786 q 278 640 304 668 q 207 612 252 612 q 139 640 167 612 q 111 710 111 667 q 187 852 111 795 q 385 909 262 909 q 606 855 526 909 q 686 717 686 800 q 628 574 686 633 q 489 489 570 514 q 610 445 559 473 q 686 381 661 416 q 720 315 710 346 q 730 250 730 283 q 642 64 730 143 q 380 -16 554 -16 q 155 42 244 -16 q 66 193 66 100 z "},"4":{"ha":798,"x_min":45,"x_max":753,"o":"m 45 216 l 45 282 l 529 889 q 548 908 541 905 q 576 911 555 911 q 611 903 604 911 q 618 867 618 896 l 618 282 l 753 282 l 753 216 l 618 216 l 618 65 l 753 65 l 753 0 q 528 4 704 4 q 289 0 342 4 l 289 65 l 444 65 l 444 216 l 45 216 m 117 282 l 460 282 l 460 713 l 117 282 z "},"5":{"ha":798,"x_min":79,"x_max":718,"o":"m 79 221 q 99 283 79 260 q 138 313 119 307 q 172 318 157 318 q 235 295 205 318 q 265 224 265 272 q 239 158 265 182 q 175 131 214 134 q 354 45 239 45 q 416 53 389 45 q 460 74 443 61 q 490 107 478 86 q 508 146 501 129 q 517 193 514 164 q 520 239 519 222 q 521 285 521 256 q 520 353 521 330 q 513 413 519 376 q 495 469 507 450 q 458 503 482 488 q 397 518 433 518 q 211 440 277 518 q 180 424 197 423 q 160 430 167 424 q 151 444 153 436 q 150 467 150 452 l 150 872 q 151 892 150 886 q 156 904 151 899 q 170 909 160 909 q 187 904 171 909 q 403 865 300 865 q 615 904 514 865 q 636 909 631 909 q 656 885 656 909 q 631 840 656 869 q 567 777 607 810 q 461 718 526 743 q 325 693 396 693 q 224 703 277 693 l 224 519 q 403 568 294 568 q 635 486 551 568 q 718 279 718 404 q 621 67 718 151 q 359 -16 524 -16 q 158 56 236 -16 q 79 221 79 128 z "},"6":{"ha":798,"x_min":66,"x_max":730,"o":"m 66 440 q 105 660 66 565 q 205 808 143 755 q 339 885 268 860 q 485 909 410 909 q 639 859 588 909 q 690 736 690 808 q 667 671 690 696 q 603 647 643 647 q 541 672 564 647 q 517 733 517 697 q 536 790 517 766 q 591 819 555 814 q 488 856 555 855 q 373 823 425 856 q 294 741 321 790 q 256 501 256 657 l 256 475 q 422 581 314 581 q 643 503 555 581 q 730 285 730 425 q 640 66 730 147 q 404 -16 550 -16 q 136 123 222 -16 q 66 440 66 240 m 258 292 q 281 121 258 165 q 401 45 319 44 q 469 58 441 45 q 511 88 497 71 q 532 143 525 106 q 541 207 539 180 q 542 288 542 233 q 541 368 542 342 q 533 431 541 393 q 513 487 526 469 q 474 517 500 504 q 410 530 449 530 q 302 471 346 530 q 258 292 258 412 z "},"7":{"ha":798,"x_min":89,"x_max":775,"o":"m 89 586 l 138 939 l 203 939 q 206 925 204 929 q 215 915 208 921 q 236 907 222 909 q 353 899 248 903 q 492 895 458 895 l 775 895 q 773 848 775 857 q 761 828 771 839 l 546 578 q 456 346 475 496 q 441 147 442 253 l 441 83 q 423 18 441 42 q 388 -11 404 -7 q 354 -16 371 -16 q 342 -15 349 -16 q 320 -9 335 -14 q 295 6 306 -4 q 276 35 285 16 q 268 82 268 54 q 501 631 268 359 l 578 721 l 343 721 q 192 713 207 721 q 154 586 170 702 l 89 586 z "},"8":{"ha":798,"x_min":66,"x_max":730,"o":"m 66 224 q 244 457 66 379 q 111 667 111 532 q 187 841 111 772 q 401 909 262 909 q 607 858 528 909 q 686 705 686 807 q 546 514 686 586 q 606 477 583 492 q 662 431 628 463 q 713 356 696 399 q 730 260 730 313 q 643 62 730 139 q 396 -16 555 -16 q 159 44 252 -16 q 66 224 66 104 m 186 224 q 243 93 186 142 q 401 45 300 45 q 492 54 450 45 q 573 96 534 62 q 611 183 611 129 q 594 240 611 215 q 558 278 576 265 q 498 314 539 292 q 309 419 343 401 q 186 224 186 350 m 215 749 q 277 665 215 700 l 485 549 q 582 704 582 612 q 533 815 582 774 q 396 856 484 856 q 343 852 368 856 q 286 839 318 848 q 235 806 254 829 q 215 749 215 783 z "},"9":{"ha":798,"x_min":66,"x_max":730,"o":"m 66 611 q 159 829 66 749 q 401 909 252 909 q 524 889 469 909 q 611 838 578 868 q 669 760 644 807 q 705 675 693 713 q 723 587 717 637 q 730 513 729 536 q 730 457 730 489 q 694 234 730 330 q 598 87 659 139 q 471 9 538 35 q 332 -16 404 -16 q 164 34 222 -16 q 107 158 107 83 q 131 223 107 198 q 195 248 154 248 q 257 222 233 248 q 281 161 281 197 q 266 113 281 134 q 238 85 252 92 q 212 75 225 78 q 329 45 258 45 q 441 79 394 45 q 509 161 488 114 q 542 392 542 237 l 542 422 q 375 315 484 315 q 154 394 241 315 q 66 611 66 472 m 256 608 q 256 528 256 554 q 264 465 257 503 q 284 409 271 427 q 323 379 297 392 q 387 366 349 366 q 478 406 441 366 q 528 496 515 447 q 541 595 541 545 q 524 768 541 722 q 509 799 518 784 q 471 835 500 814 q 404 856 441 856 q 332 842 361 856 q 287 810 302 828 q 265 753 272 791 q 257 688 258 714 q 256 608 256 661 z "},"\u0000":{"ha":1055,"x_min":14,"x_max":1042,"o":"m 14 14 l 14 1063 l 1042 1063 l 1042 14 l 14 14 m 97 155 l 481 539 l 97 921 l 97 155 m 146 97 l 909 97 l 528 481 l 146 97 m 146 979 l 528 596 l 909 979 l 146 979 m 575 539 l 958 155 l 958 921 l 575 539 z "},"\r":{"ha":462,"x_min":0,"x_max":0,"o":""}," ":{"ha":532,"x_min":0,"x_max":0,"o":""},"!":{"ha":486,"x_min":134,"x_max":351,"o":"m 134 109 q 165 182 134 150 q 241 215 196 215 q 317 184 284 215 q 350 107 350 153 q 319 33 350 66 q 241 0 288 0 q 164 33 194 0 q 134 109 134 66 m 134 880 q 168 952 134 925 q 241 979 201 979 q 317 951 283 979 q 351 879 351 924 q 346 833 351 863 l 279 355 q 270 321 277 329 q 241 313 264 313 q 223 315 229 313 q 212 327 216 317 q 208 341 208 336 q 204 368 207 346 l 139 832 q 134 880 134 862 z "},"\"":{"ha":798,"x_min":176,"x_max":621,"o":"m 176 903 q 203 963 176 940 q 265 986 229 986 q 328 962 302 986 q 353 903 353 939 l 290 498 l 239 498 l 182 856 q 176 903 176 886 m 444 903 q 469 963 444 940 q 532 986 494 986 q 595 963 570 986 q 621 903 621 940 q 615 856 621 886 l 558 498 l 507 498 q 444 903 444 886 z "},"#":{"ha":1330,"x_min":89,"x_max":1239,"o":"m 89 192 q 127 218 89 218 l 410 218 l 490 476 l 131 476 q 89 501 90 476 q 134 526 89 526 l 509 526 q 631 917 522 574 q 633 924 631 918 q 635 932 635 929 q 637 940 636 935 q 641 947 639 945 q 645 952 643 949 q 650 958 647 956 q 656 961 653 960 q 664 962 660 962 q 682 952 675 962 q 688 930 689 942 l 561 526 l 882 526 q 1004 917 890 557 q 1039 962 1018 963 q 1056 952 1050 962 q 1061 930 1063 942 l 935 526 l 1196 526 q 1239 501 1238 526 q 1197 476 1239 476 l 918 476 l 838 218 l 1197 218 q 1239 193 1238 218 q 1196 167 1239 167 l 821 167 q 699 -222 817 150 q 664 -268 685 -269 q 642 -237 639 -268 l 768 167 l 446 167 q 323 -222 441 150 q 321 -229 323 -224 q 319 -237 319 -235 q 317 -245 318 -240 q 313 -252 315 -250 q 309 -258 311 -254 q 304 -263 307 -261 q 298 -267 301 -265 q 290 -268 294 -268 q 267 -241 267 -268 q 275 -208 267 -231 l 393 167 l 134 167 q 89 192 89 167 m 463 218 l 785 218 l 865 476 l 545 476 l 463 218 z "},"$":{"ha":798,"x_min":87,"x_max":708,"o":"m 87 257 q 115 328 87 306 q 174 350 143 350 q 236 324 211 350 q 261 262 261 298 q 241 205 261 232 q 171 176 221 179 q 253 90 204 114 q 366 60 302 66 l 366 407 q 204 469 260 429 q 129 549 159 501 q 87 690 87 614 q 159 881 87 802 q 366 971 231 960 l 366 1042 l 432 1042 l 432 971 q 566 943 509 967 q 652 881 623 918 q 694 804 681 843 q 708 725 708 765 q 681 655 708 676 q 623 633 653 633 q 561 657 587 633 q 534 720 534 681 q 554 776 534 749 q 623 807 574 803 q 432 904 568 893 l 432 595 q 582 536 521 578 q 667 443 643 494 q 700 357 692 392 q 708 292 708 322 q 703 231 708 262 q 681 159 699 200 q 635 85 664 118 q 554 26 607 53 q 432 -7 501 0 l 432 -77 l 366 -77 l 366 -7 q 224 28 283 -1 q 138 101 165 58 q 99 183 110 144 q 87 257 87 221 m 200 758 q 205 726 200 743 q 224 686 210 710 q 276 640 239 661 q 366 610 313 619 l 366 904 q 244 858 289 895 q 200 758 200 821 m 432 61 q 519 88 484 68 q 569 136 554 109 q 590 183 585 163 q 596 225 596 204 q 591 261 596 242 q 571 308 586 279 q 521 359 557 336 q 432 393 485 382 l 432 61 z "},"%":{"ha":1330,"x_min":89,"x_max":1240,"o":"m 89 762 q 160 970 89 899 q 328 1042 231 1042 q 436 1006 386 1042 q 750 895 587 895 q 1023 1015 921 895 q 1065 1042 1044 1042 q 1094 1030 1081 1042 q 1107 999 1107 1018 q 1092 965 1107 985 l 301 -56 q 265 -78 286 -78 q 235 -65 247 -78 q 222 -35 222 -53 q 237 0 222 -15 l 914 875 q 751 844 838 844 q 511 901 636 844 q 532 761 532 836 q 472 552 532 622 q 328 482 412 482 q 160 552 232 482 q 89 762 89 622 m 232 761 q 233 704 232 725 q 238 645 233 682 q 253 586 243 607 q 282 549 262 566 q 330 532 302 532 q 424 586 382 532 q 467 762 467 640 q 425 936 467 880 q 330 991 383 991 q 282 975 302 991 q 253 938 262 958 q 238 879 243 917 q 233 820 233 842 q 232 761 232 798 m 798 203 q 868 411 798 339 q 1036 482 939 482 q 1180 413 1120 482 q 1240 201 1240 343 q 1181 -8 1240 62 q 1036 -78 1121 -78 q 869 -8 941 -78 q 798 203 798 62 m 940 201 q 941 144 940 165 q 947 85 942 122 q 961 26 951 47 q 991 -11 971 5 q 1039 -28 1011 -28 q 1133 26 1090 -28 q 1175 203 1175 81 q 1134 376 1175 321 q 1039 432 1092 432 q 991 415 1011 432 q 961 378 971 399 q 947 319 951 357 q 941 260 942 282 q 940 201 940 239 z "},"&":{"ha":1241,"x_min":66,"x_max":1161,"o":"m 66 192 q 110 302 66 252 q 196 379 119 312 l 298 467 q 239 733 239 604 q 316 912 239 846 q 489 979 393 979 q 602 921 563 979 q 642 797 642 863 q 566 644 642 732 q 444 526 507 581 q 690 196 511 385 q 956 538 814 314 q 854 551 922 551 l 854 616 q 1023 612 911 612 q 1161 616 1094 612 l 1161 551 q 1094 551 1115 551 q 1053 544 1074 550 q 1022 524 1032 538 l 908 358 q 734 153 843 264 q 932 50 842 50 q 967 54 947 50 q 1016 67 987 57 q 1064 103 1044 78 q 1086 164 1084 127 l 1152 164 q 1082 33 1149 81 q 925 -16 1015 -16 q 632 72 785 -16 q 355 -16 498 -16 q 151 42 236 -16 q 66 192 66 99 m 244 241 q 249 194 244 219 q 265 132 253 168 q 304 73 277 96 q 372 50 332 50 q 576 111 482 50 q 321 419 422 228 q 244 241 244 365 m 383 785 q 424 576 383 673 q 576 798 576 714 q 555 886 576 842 q 490 929 534 929 q 419 895 454 929 q 383 785 383 861 z "},"'":{"ha":443,"x_min":132,"x_max":309,"o":"m 132 903 q 158 964 132 941 q 221 986 183 986 q 283 963 257 986 q 309 903 309 940 q 307 882 309 896 q 304 867 304 868 l 245 498 l 195 498 l 139 852 q 132 903 132 895 z "},"(":{"ha":621,"x_min":150,"x_max":530,"o":"m 150 349 q 399 966 150 720 q 505 1042 478 1042 q 530 1022 530 1042 q 509 993 530 1015 q 285 347 285 768 q 338 -12 285 147 q 526 -313 396 -191 q 528 -317 526 -313 q 530 -326 530 -322 q 505 -346 530 -346 q 452 -317 490 -346 q 358 -228 414 -289 q 261 -93 302 -167 q 150 349 150 103 z "},")":{"ha":621,"x_min":89,"x_max":469,"o":"m 89 -326 q 111 -297 89 -319 q 335 349 335 -72 q 113 990 335 764 q 89 1022 89 1013 q 114 1042 89 1042 q 168 1013 130 1042 q 261 924 205 985 q 358 789 317 863 q 469 347 469 593 q 221 -271 469 -24 q 114 -346 142 -346 q 89 -326 89 -346 z "},"*":{"ha":798,"x_min":103,"x_max":694,"o":"m 103 611 q 144 665 103 651 l 340 733 l 144 802 q 103 856 103 815 q 122 904 103 885 q 164 922 142 922 q 201 907 181 922 l 372 778 l 342 956 q 338 987 338 978 q 357 1028 338 1014 q 399 1042 376 1042 q 440 1028 421 1042 q 460 987 460 1015 q 456 956 460 978 l 425 778 l 596 907 q 633 922 617 922 q 675 904 656 922 q 694 856 694 885 q 653 802 694 816 l 457 733 l 653 665 q 694 611 694 652 q 675 563 694 582 q 633 545 656 545 q 596 559 615 545 l 427 688 l 444 581 q 460 479 460 485 q 440 439 460 453 q 399 425 421 425 q 357 438 376 425 q 338 479 338 452 q 342 511 338 489 l 372 689 l 201 559 q 164 545 180 544 q 122 563 142 545 q 103 611 103 582 z "},"+":{"ha":1241,"x_min":89,"x_max":1150,"o":"m 136 322 q 89 347 89 322 q 135 372 89 372 l 595 372 l 595 835 q 619 878 595 878 q 646 833 646 878 q 645 826 646 831 q 644 819 644 821 l 644 372 l 1104 372 q 1150 347 1150 372 q 1107 321 1150 321 q 1098 321 1103 321 q 1092 322 1093 322 l 644 322 l 644 -125 q 645 -131 644 -126 q 646 -139 646 -136 q 619 -183 646 -184 q 595 -139 594 -183 l 595 322 l 136 322 z "},",":{"ha":443,"x_min":113,"x_max":347,"o":"m 113 109 q 142 185 113 155 q 220 216 172 216 q 313 166 278 216 q 347 43 347 117 q 332 -63 347 -12 q 294 -151 317 -115 q 248 -214 272 -186 q 205 -256 224 -243 q 180 -269 187 -269 q 163 -260 172 -269 q 154 -241 154 -252 q 167 -222 154 -233 q 297 28 286 -119 q 221 0 269 0 q 142 32 171 0 q 113 109 113 64 z "},"-":{"ha":532,"x_min":17,"x_max":441,"o":"m 17 241 l 17 376 l 441 376 l 441 241 l 17 241 z "},".":{"ha":443,"x_min":113,"x_max":329,"o":"m 113 109 q 146 186 113 156 q 221 216 179 216 q 296 185 264 216 q 329 109 329 154 q 298 34 329 67 q 221 0 267 0 q 145 31 178 0 q 113 109 113 62 z "},"/":{"ha":798,"x_min":89,"x_max":707,"o":"m 89 -321 q 106 -273 89 -315 l 650 1002 q 653 1008 650 1003 q 657 1017 656 1014 q 661 1024 659 1019 q 667 1032 664 1029 q 673 1037 669 1035 q 684 1039 677 1039 q 700 1032 693 1039 q 707 1015 707 1025 q 696 981 707 1010 l 147 -307 q 113 -346 130 -346 q 96 -338 103 -346 q 89 -321 89 -330 z "},":":{"ha":443,"x_min":113,"x_max":330,"o":"m 144 32 q 128 48 144 32 q 113 108 113 64 q 144 184 113 153 q 221 216 175 216 q 298 184 266 216 q 330 108 330 153 q 297 32 330 64 q 221 0 265 0 q 144 32 175 0 m 144 432 q 128 448 144 432 q 113 508 113 464 q 144 585 113 553 q 221 616 175 616 q 298 585 266 616 q 330 508 330 553 q 297 432 330 464 q 221 400 265 400 q 144 432 175 400 z "},";":{"ha":443,"x_min":113,"x_max":347,"o":"m 113 109 q 142 185 113 155 q 220 216 172 216 q 313 166 278 216 q 347 43 347 117 q 332 -63 347 -12 q 294 -151 317 -115 q 248 -214 272 -186 q 205 -256 224 -243 q 180 -269 187 -269 q 163 -260 172 -269 q 154 -241 154 -252 q 167 -222 154 -233 q 297 28 286 -119 q 221 0 269 0 q 142 32 171 0 q 113 109 113 64 m 113 510 q 146 588 113 557 q 221 618 179 618 q 296 587 264 618 q 329 510 329 555 q 298 435 329 469 q 221 401 267 401 q 145 433 178 401 q 113 510 113 464 z "},"<":{"ha":1241,"x_min":134,"x_max":1104,"o":"m 134 347 q 164 378 134 364 l 1051 786 q 1080 794 1068 794 q 1097 787 1090 794 q 1104 771 1104 781 q 1076 741 1104 751 l 218 347 q 336 293 231 342 l 1076 -47 q 1104 -78 1104 -58 q 1097 -95 1104 -87 q 1081 -102 1090 -102 q 1051 -92 1071 -102 l 164 315 q 134 347 134 329 z "},"=":{"ha":1241,"x_min":89,"x_max":1150,"o":"m 89 193 q 129 218 89 218 l 1114 218 q 1150 193 1149 217 q 1116 167 1150 167 l 127 167 q 89 193 89 167 m 127 476 q 89 501 89 476 q 129 526 89 526 l 1114 526 q 1150 503 1149 526 q 1116 476 1150 476 l 127 476 z "},">":{"ha":1241,"x_min":135,"x_max":1104,"o":"m 135 -78 q 163 -47 135 -60 l 1021 347 q 954 377 997 357 q 901 401 911 397 l 163 741 q 135 771 135 751 q 142 787 135 781 q 158 794 149 794 q 187 786 170 794 l 1075 378 q 1104 347 1104 366 q 1075 317 1104 329 l 187 -92 q 158 -101 168 -101 q 142 -95 149 -102 q 135 -78 135 -87 z "},"?":{"ha":754,"x_min":89,"x_max":664,"o":"m 89 796 q 159 921 89 870 q 366 972 229 972 q 399 972 384 972 q 447 967 414 971 q 505 958 479 964 q 562 938 530 951 q 614 907 593 925 q 649 859 635 889 q 664 793 664 829 q 644 720 664 753 q 608 676 624 688 q 570 652 593 665 q 387 393 388 546 l 387 355 q 382 321 387 328 q 354 314 378 314 q 331 317 337 314 q 323 327 325 321 q 322 351 322 334 l 322 404 q 447 692 322 561 q 478 736 469 714 q 486 803 486 758 q 484 851 486 835 q 470 886 481 867 q 431 914 458 905 q 357 922 403 922 q 200 879 258 922 l 203 878 q 208 876 204 878 q 215 873 211 875 q 224 868 220 871 q 233 861 228 865 q 241 852 237 857 q 249 841 245 847 q 256 828 253 835 q 261 812 260 821 q 262 794 262 804 q 237 730 262 754 q 175 707 211 707 q 116 728 143 707 q 89 796 89 750 m 277 32 q 261 48 277 32 q 245 108 245 64 q 277 184 245 153 q 354 216 309 216 q 431 184 399 216 q 463 108 463 153 q 431 32 463 64 q 354 0 399 0 q 277 32 308 0 z "},"@":{"ha":1241,"x_min":89,"x_max":1152,"o":"m 89 482 q 231 834 89 696 q 621 972 372 972 q 1007 838 863 972 q 1152 479 1152 703 q 1146 395 1152 437 q 1124 299 1140 354 q 1069 211 1108 244 q 971 178 1029 178 q 798 240 845 178 q 618 178 724 178 q 388 262 475 178 q 301 482 301 346 q 389 703 301 620 q 618 786 476 786 q 753 753 694 786 q 843 669 811 721 l 897 669 q 933 664 928 669 q 939 629 939 659 l 939 310 q 985 228 939 228 q 1086 472 1086 228 q 954 807 1086 692 q 619 922 822 922 q 279 801 404 922 q 154 482 154 679 q 275 167 154 293 q 625 41 396 41 q 1032 119 829 41 q 1079 129 1055 129 l 1112 129 q 1152 110 1151 129 q 1150 100 1152 106 l 1147 96 q 1059 60 1118 80 q 874 16 1000 40 q 627 -8 749 -8 q 387 32 492 -8 q 218 141 282 72 q 121 297 154 211 q 89 482 89 384 m 460 482 q 507 293 460 357 q 623 228 554 228 q 781 309 724 228 l 781 656 q 623 736 722 736 q 507 672 555 736 q 460 482 460 608 z "},"A":{"ha":1206,"x_min":57,"x_max":1149,"o":"m 57 0 l 57 65 l 86 65 q 178 72 158 65 q 204 97 197 79 l 549 933 q 558 955 554 949 q 573 965 562 961 q 603 970 583 970 q 625 968 618 970 q 642 958 632 966 q 659 933 652 950 l 1014 65 l 1149 65 l 1149 0 q 922 4 1100 4 q 677 0 730 4 l 677 65 l 810 65 l 726 268 l 354 268 l 285 100 q 279 83 279 94 q 403 65 279 65 l 403 0 q 220 4 351 4 q 57 0 215 4 m 382 334 l 699 334 l 541 720 l 382 334 z "},"B":{"ha":1136,"x_min":54,"x_max":1046,"o":"m 54 0 l 54 65 l 204 65 l 204 888 l 54 888 l 54 953 l 657 953 q 910 884 819 953 q 1002 714 1002 815 q 938 575 1002 633 q 761 497 873 517 q 966 422 886 488 q 1046 258 1046 357 q 955 75 1046 150 q 699 0 864 0 l 54 0 m 386 65 l 642 65 q 726 78 689 65 q 783 113 762 90 q 816 156 803 135 q 834 202 829 176 q 840 239 839 228 q 842 260 842 250 q 796 411 842 353 q 656 471 749 471 l 386 471 l 386 65 m 386 521 l 603 521 q 752 575 700 521 q 804 714 804 629 q 797 769 804 742 q 774 824 790 796 q 724 870 758 852 q 639 888 689 888 l 386 888 l 386 521 z "},"C":{"ha":1152,"x_min":89,"x_max":1064,"o":"m 240 122 q 164 191 240 122 q 89 476 89 260 q 240 830 89 693 q 647 968 392 968 q 921 873 804 968 l 1013 956 q 1039 968 1026 968 q 1060 960 1056 968 q 1064 929 1064 953 l 1064 631 q 1058 597 1064 603 q 1026 591 1053 591 q 997 596 1002 591 q 989 621 991 600 q 879 826 966 749 q 676 903 791 903 q 393 796 498 903 q 301 476 302 701 q 383 168 301 268 q 681 50 483 50 q 895 121 799 50 q 999 321 991 192 q 1007 341 1000 338 q 1031 345 1014 345 q 1057 340 1050 345 q 1064 315 1064 335 q 948 86 1064 188 q 647 -16 832 -16 q 240 122 391 -16 z "},"D":{"ha":1223,"x_min":54,"x_max":1135,"o":"m 54 0 l 54 65 l 204 65 l 204 888 l 54 888 l 54 953 l 652 953 q 999 822 863 953 q 1135 468 1135 692 q 999 125 1135 250 q 653 0 864 0 l 54 0 m 393 65 l 596 65 q 869 182 788 65 q 917 293 903 229 q 930 469 930 357 q 871 764 930 676 q 596 888 785 887 l 393 888 l 393 65 z "},"E":{"ha":1048,"x_min":54,"x_max":1004,"o":"m 54 0 l 54 65 l 204 65 l 204 879 l 54 879 l 54 945 l 917 945 l 960 610 l 895 610 q 879 704 888 667 q 850 777 869 741 q 802 833 831 812 q 725 867 772 854 q 612 879 677 879 l 401 879 l 401 522 l 478 522 q 598 560 571 522 q 625 685 625 597 l 690 685 l 690 294 l 625 294 q 598 419 625 382 q 478 457 571 457 l 401 457 l 401 65 l 612 65 q 723 74 675 65 q 804 105 771 83 q 861 151 838 126 q 899 215 884 175 q 922 290 914 254 q 939 380 930 326 l 1004 380 l 940 0 l 54 0 z "},"F":{"ha":1004,"x_min":54,"x_max":937,"o":"m 54 0 l 54 65 l 204 65 l 204 879 l 54 879 l 54 945 l 895 945 l 937 610 l 872 610 q 857 701 865 665 q 830 773 848 736 q 784 832 812 811 q 708 866 755 852 q 596 879 661 879 l 401 879 l 401 505 l 471 505 q 590 543 564 505 q 616 668 616 581 l 682 668 l 682 278 l 616 278 q 590 403 616 366 q 471 440 564 440 l 401 440 l 401 65 l 589 65 l 589 0 q 309 4 528 4 q 54 0 107 4 z "},"G":{"ha":1255,"x_min":89,"x_max":1174,"o":"m 89 476 q 241 831 89 694 q 646 968 393 968 q 920 873 800 968 l 1011 956 q 1038 968 1025 968 q 1059 960 1055 968 q 1063 929 1063 953 l 1063 631 q 1057 597 1063 603 q 1025 591 1051 591 q 996 596 1001 591 q 987 621 990 600 q 878 826 965 749 q 676 903 790 903 q 502 869 579 903 q 380 782 424 836 q 301 478 301 677 q 379 176 301 277 q 510 82 428 114 q 686 50 593 50 q 811 79 762 50 q 865 178 865 111 l 865 318 l 665 318 l 665 383 q 950 379 741 379 q 1174 383 1125 379 l 1174 318 l 1063 318 l 1063 39 q 1043 0 1063 0 q 985 24 1034 0 q 907 74 936 49 q 648 -16 835 -15 q 238 123 387 -16 q 89 476 89 262 z "},"H":{"ha":1250,"x_min":54,"x_max":1194,"o":"m 54 0 l 54 65 l 204 65 l 204 888 l 54 888 l 54 953 q 303 949 107 949 q 551 953 498 949 l 551 888 l 401 888 l 401 528 l 847 528 l 847 888 l 697 888 l 697 953 q 946 949 750 949 q 1194 953 1141 949 l 1194 888 l 1044 888 l 1044 65 l 1194 65 l 1194 0 q 946 4 1141 4 q 697 0 750 4 l 697 65 l 847 65 l 847 463 l 401 463 l 401 65 l 551 65 l 551 0 q 303 4 498 4 q 54 0 107 4 z "},"I":{"ha":605,"x_min":46,"x_max":559,"o":"m 46 0 l 46 65 l 204 65 l 204 888 l 46 888 l 46 953 q 303 949 103 949 q 559 953 503 949 l 559 888 l 401 888 l 401 65 l 559 65 l 559 0 q 303 4 503 4 q 46 0 103 4 z "},"J":{"ha":825,"x_min":32,"x_max":732,"o":"m 32 158 q 64 237 32 210 q 139 265 96 265 q 212 237 179 265 q 244 158 244 210 q 228 100 244 125 q 197 66 212 75 l 180 58 q 293 35 233 35 q 372 56 340 35 q 414 113 403 78 q 428 167 425 149 q 431 207 431 186 l 431 888 l 235 888 l 235 953 q 511 949 301 949 q 732 953 684 949 l 732 888 l 619 888 l 619 208 q 531 43 619 102 q 300 -16 443 -16 q 106 32 180 -16 q 32 158 32 79 z "},"K":{"ha":1251,"x_min":54,"x_max":1183,"o":"m 54 0 l 54 65 l 204 65 l 204 888 l 54 888 l 54 953 q 303 949 107 949 q 551 953 498 949 l 551 888 l 401 888 l 401 443 l 916 872 q 909 875 910 873 q 897 880 909 878 q 817 888 863 887 l 817 953 q 1019 949 867 949 q 1161 953 1105 949 l 1161 888 l 1137 888 q 1007 863 1038 888 l 673 585 l 1048 93 q 1076 70 1062 75 q 1143 65 1090 65 l 1183 65 l 1183 0 q 981 4 1132 4 q 736 0 793 4 l 736 65 q 838 77 812 65 q 827 96 831 92 l 541 472 l 401 357 l 401 65 l 551 65 l 551 0 q 303 4 498 4 q 54 0 107 4 z "},"L":{"ha":960,"x_min":54,"x_max":893,"o":"m 54 0 l 54 65 l 204 65 l 204 888 l 54 888 l 54 953 q 309 949 107 949 q 589 953 528 949 l 589 888 l 401 888 l 401 65 l 545 65 q 638 78 596 65 q 708 110 681 92 q 757 160 734 129 q 790 215 779 192 q 810 276 802 239 q 821 332 819 314 q 828 380 823 350 l 893 380 l 850 0 l 54 0 z "},"M":{"ha":1515,"x_min":56,"x_max":1459,"o":"m 56 0 l 56 65 l 90 65 q 165 69 132 65 q 200 77 195 72 q 205 106 205 82 l 205 888 l 56 888 l 56 953 l 364 953 q 391 951 382 953 q 408 942 399 950 q 425 918 418 935 l 758 183 l 1092 918 q 1115 947 1103 942 q 1153 953 1126 953 l 1459 953 l 1459 888 l 1310 888 l 1310 65 l 1459 65 l 1459 0 q 1222 4 1409 4 q 986 0 1036 4 l 986 65 l 1136 65 l 1136 888 l 1135 888 l 747 33 q 703 0 732 0 q 659 35 673 0 l 281 869 l 279 869 l 279 106 q 285 77 279 82 q 321 69 290 72 q 395 65 358 65 l 429 65 l 429 0 q 241 4 372 4 q 56 0 109 4 z "},"N":{"ha":1250,"x_min":54,"x_max":1194,"o":"m 54 0 l 54 65 l 89 65 q 164 69 130 65 q 199 77 193 72 q 204 106 204 82 l 204 888 l 54 888 l 54 953 l 372 953 q 400 950 393 953 q 418 935 407 947 l 971 285 l 971 847 q 965 876 971 871 q 929 884 960 880 q 856 888 892 888 l 821 888 l 821 953 q 1008 949 878 949 q 1194 953 1142 949 l 1194 888 l 1160 888 q 1084 884 1118 888 q 1050 876 1055 881 q 1044 847 1044 871 l 1044 45 q 1039 8 1044 17 q 1007 0 1034 0 q 985 3 990 0 q 970 18 981 5 l 278 832 l 278 106 q 283 77 278 82 q 319 69 289 72 q 393 65 357 65 l 428 65 l 428 0 q 240 4 371 4 q 54 0 107 4 z "},"O":{"ha":1198,"x_min":89,"x_max":1109,"o":"m 89 471 q 227 830 89 693 q 600 968 366 968 q 970 832 831 968 q 1109 471 1109 696 q 972 119 1109 254 q 599 -16 835 -16 q 227 118 366 -16 q 89 471 89 252 m 301 492 q 358 187 301 294 q 464 78 398 113 q 599 43 530 43 q 833 175 751 43 q 897 492 897 281 q 839 782 897 684 q 734 880 799 847 q 599 913 669 913 q 470 883 532 913 q 367 793 407 852 q 301 492 301 692 z "},"P":{"ha":1091,"x_min":54,"x_max":1002,"o":"m 54 0 l 54 65 l 204 65 l 204 888 l 54 888 l 54 953 l 633 953 q 902 877 803 953 q 1002 682 1002 800 q 900 491 1002 564 q 647 419 798 419 l 401 419 l 401 65 l 551 65 l 551 0 q 303 4 498 4 q 54 0 107 4 m 393 476 l 579 476 q 656 483 622 476 q 712 499 690 490 q 750 527 734 509 q 773 559 765 545 q 784 599 781 574 q 788 639 787 624 q 789 682 789 654 q 787 733 789 715 q 781 779 786 750 q 763 823 777 807 q 728 856 750 839 q 668 880 705 872 q 581 888 631 888 l 393 888 l 393 476 z "},"Q":{"ha":1198,"x_min":89,"x_max":1118,"o":"m 89 471 q 227 830 89 693 q 600 968 366 968 q 970 832 831 968 q 1109 471 1109 696 q 1096 349 1109 408 q 1052 226 1082 289 q 963 110 1022 163 q 822 25 904 57 q 860 -22 842 -4 q 895 -47 878 -40 q 923 -56 913 -54 q 950 -57 933 -57 q 1068 -3 1060 -57 q 1093 25 1072 25 q 1118 -11 1118 25 q 1101 -121 1118 -65 q 1039 -223 1084 -176 q 928 -269 993 -269 q 861 -255 890 -269 q 815 -222 832 -240 q 781 -163 798 -204 q 755 -92 764 -122 q 732 -3 747 -62 q 600 -16 669 -15 q 226 119 363 -16 q 89 471 89 254 m 293 472 q 297 372 293 415 q 316 264 301 329 q 369 150 330 200 q 468 71 408 100 q 464 102 464 80 q 504 183 464 151 q 599 215 545 215 q 679 192 642 215 q 733 149 717 170 q 772 96 750 129 q 905 469 905 186 q 848 766 905 667 q 599 913 766 912 q 542 907 571 913 q 476 886 513 901 q 405 838 440 871 q 345 758 370 806 q 293 472 293 659 m 514 102 q 519 77 514 90 q 545 53 524 65 q 600 40 566 40 q 714 62 664 40 q 600 165 682 165 q 540 148 566 165 q 514 102 514 130 z "},"R":{"ha":1197,"x_min":54,"x_max":1192,"o":"m 54 0 l 54 65 l 204 65 l 204 888 l 54 888 l 54 953 l 582 953 q 884 879 772 953 q 996 696 996 806 q 937 562 996 622 q 764 472 879 501 q 920 310 897 422 q 926 254 920 307 q 935 192 933 200 q 943 141 939 161 q 958 92 947 121 q 988 49 968 64 q 1038 35 1008 35 q 1096 60 1071 35 q 1126 131 1121 85 q 1129 147 1128 142 q 1138 158 1131 153 q 1158 163 1145 163 q 1192 132 1192 163 q 1189 108 1192 123 q 1176 71 1186 93 q 1148 30 1165 49 q 1099 -2 1132 11 q 1025 -16 1067 -16 q 821 21 892 -16 q 765 59 786 38 q 736 110 745 79 q 726 162 728 140 q 724 228 724 183 q 718 340 724 311 q 679 404 711 370 q 555 452 636 452 l 393 452 l 393 65 l 543 65 l 543 0 q 299 4 493 4 q 54 0 104 4 m 393 501 l 554 501 q 665 515 619 501 q 734 546 711 529 q 769 594 757 562 q 782 644 781 625 q 783 694 783 663 q 781 748 783 728 q 767 798 779 768 q 733 845 755 828 q 666 874 711 861 q 557 888 621 888 l 393 888 l 393 501 z "},"S":{"ha":886,"x_min":89,"x_max":798,"o":"m 89 24 l 89 277 q 94 310 89 303 q 122 317 98 317 q 139 315 133 317 q 149 310 146 314 q 153 301 153 306 q 154 285 154 296 q 194 162 158 213 q 284 89 229 111 q 386 58 339 66 q 482 50 433 50 q 621 100 579 50 q 663 212 663 150 q 607 334 663 277 q 557 363 585 355 q 431 393 530 371 q 258 439 304 421 q 164 504 211 457 q 89 689 89 583 q 170 887 89 807 q 400 968 250 968 q 637 892 542 968 l 700 953 q 727 968 716 968 q 728 968 727 968 q 749 960 745 968 q 753 929 753 953 l 753 675 q 748 643 753 650 q 720 636 743 636 q 694 641 699 636 q 685 672 689 646 q 621 817 669 761 q 518 890 572 872 q 401 908 464 908 q 266 863 307 908 q 224 762 224 818 q 266 667 224 704 q 357 618 307 629 l 558 575 q 728 474 658 554 q 798 282 798 393 q 719 74 798 163 q 482 -16 640 -16 q 204 61 307 -16 l 140 -3 q 114 -16 127 -15 q 93 -8 97 -16 q 89 24 89 0 z "},"T":{"ha":1111,"x_min":58,"x_max":1051,"o":"m 58 603 l 87 937 l 1022 937 l 1051 603 l 986 603 q 977 692 981 661 q 958 765 972 724 q 921 825 943 806 q 858 858 899 844 q 760 872 818 872 l 654 872 l 654 65 l 867 65 l 867 0 q 555 4 791 4 q 244 0 319 4 l 244 65 l 457 65 l 457 872 l 350 872 q 251 858 292 872 q 188 824 210 843 q 152 764 165 804 q 133 692 138 724 q 123 603 127 661 l 58 603 z "},"U":{"ha":1227,"x_min":54,"x_max":1174,"o":"m 54 888 l 54 953 q 303 949 107 949 q 551 953 498 949 l 551 888 l 401 888 l 401 310 q 404 252 401 275 q 419 186 406 228 q 456 118 432 144 q 529 71 479 92 q 647 50 578 50 q 759 65 707 50 q 855 110 811 79 q 924 195 899 140 q 950 323 950 250 l 950 847 q 944 876 950 871 q 908 884 939 880 q 835 888 871 888 l 800 888 l 800 953 q 987 949 857 949 q 1174 953 1121 949 l 1174 888 l 1139 888 q 1064 884 1097 888 q 1029 876 1035 881 q 1023 847 1023 871 l 1023 318 q 926 82 1023 179 q 642 -16 828 -16 q 319 80 435 -16 q 204 321 204 175 l 204 888 l 54 888 z "},"V":{"ha":1206,"x_min":36,"x_max":1169,"o":"m 36 888 l 36 953 q 256 949 85 949 q 501 953 449 949 l 501 888 l 371 888 l 667 222 l 947 854 q 949 859 947 856 q 952 865 951 863 q 953 871 953 868 q 831 888 953 888 l 831 953 q 1013 949 885 949 q 1056 949 1029 949 q 1117 951 1082 950 q 1169 953 1152 953 l 1169 888 l 1143 888 q 1069 883 1095 888 q 1039 873 1044 879 q 1028 857 1034 868 l 659 22 q 636 -5 649 0 q 603 -11 624 -11 q 567 -3 576 -11 q 547 25 557 4 l 164 888 l 36 888 z "},"W":{"ha":1650,"x_min":33,"x_max":1617,"o":"m 33 888 l 33 953 q 245 949 82 949 q 489 953 436 949 l 489 888 l 355 888 l 602 252 l 790 741 l 733 888 l 614 888 l 614 953 q 827 949 663 949 q 1069 953 1017 949 l 1069 888 l 936 888 l 1182 252 l 1421 872 q 1279 888 1381 888 l 1279 953 q 1468 949 1329 949 q 1617 953 1504 949 l 1617 888 q 1537 885 1565 888 q 1499 877 1506 882 q 1485 854 1492 872 l 1164 25 q 1148 -3 1157 5 q 1115 -11 1139 -11 q 1083 -3 1092 -11 q 1067 25 1074 5 l 825 650 l 583 25 q 567 -3 576 5 q 535 -11 558 -11 q 502 -3 511 -11 q 486 25 493 5 l 153 888 l 33 888 z "},"X":{"ha":1206,"x_min":47,"x_max":1160,"o":"m 47 0 l 47 65 l 87 65 q 172 69 130 65 q 213 76 204 72 q 232 93 222 81 l 513 461 l 204 888 l 68 888 l 68 953 q 293 949 117 949 q 545 953 488 949 l 545 888 l 429 888 l 628 614 l 811 857 q 817 865 812 859 q 822 872 821 871 q 694 888 773 888 l 694 953 q 905 949 745 949 q 1092 953 1033 949 l 1092 888 l 1051 888 q 971 884 1004 888 q 926 877 935 881 q 905 859 917 873 l 672 551 l 1023 65 l 1160 65 l 1160 0 q 935 4 1111 4 q 684 0 740 4 l 684 65 l 799 65 l 557 400 l 328 96 q 322 88 326 94 q 317 81 318 82 q 444 65 366 65 l 444 0 q 233 4 394 4 q 47 0 106 4 z "},"Y":{"ha":1206,"x_min":26,"x_max":1179,"o":"m 26 888 l 26 953 q 256 949 75 949 q 510 953 453 949 l 510 888 l 392 888 l 673 475 l 933 857 q 943 873 936 861 q 838 888 907 887 l 838 953 q 1021 949 889 949 q 1064 949 1038 949 q 1125 951 1090 950 q 1179 953 1160 953 l 1179 888 l 1150 888 q 1078 884 1114 888 q 1029 868 1039 878 q 1023 860 1027 864 l 697 380 l 697 65 l 848 65 l 848 0 q 603 4 795 4 q 358 0 408 4 l 358 65 l 509 65 l 509 380 l 163 888 l 26 888 z "},"Z":{"ha":975,"x_min":89,"x_max":896,"o":"m 89 36 q 100 72 89 56 l 656 888 l 475 888 q 257 822 329 888 q 176 618 184 757 l 111 618 l 127 953 l 842 953 q 867 951 860 953 q 881 942 875 950 q 886 918 886 935 q 875 885 886 901 l 321 71 l 515 71 q 622 81 575 71 q 701 107 669 92 q 755 150 732 122 q 792 201 779 178 q 813 263 804 225 q 825 327 822 301 q 831 395 828 353 l 896 395 l 871 0 l 134 0 q 107 1 115 0 q 94 10 100 3 q 89 36 89 18 z "},"[":{"ha":443,"x_min":146,"x_max":408,"o":"m 146 -347 l 146 1042 l 408 1042 l 408 991 l 297 991 l 297 -297 l 408 -297 l 408 -347 l 146 -347 z "},"\\":{"ha":798,"x_min":89,"x_max":707,"o":"m 89 1017 q 96 1032 89 1025 q 113 1039 103 1039 q 125 1036 119 1039 q 136 1026 131 1034 q 142 1015 140 1019 q 149 999 144 1011 q 154 986 153 987 l 694 -282 q 707 -322 707 -310 q 700 -337 707 -329 q 684 -346 693 -346 q 652 -313 664 -346 l 96 991 q 89 1017 89 1013 z "},"]":{"ha":443,"x_min":35,"x_max":297,"o":"m 35 -297 l 146 -297 l 146 991 l 35 991 l 35 1042 l 297 1042 l 297 -347 l 35 -347 l 35 -297 z "},"^":{"ha":976,"x_min":183,"x_max":790,"o":"m 183 697 l 488 878 l 790 697 l 760 639 l 488 764 l 214 639 l 183 697 z "},"_":{"ha":1241,"x_min":134,"x_max":1105,"o":"m 134 -386 q 187 -343 134 -343 l 1050 -343 q 1105 -386 1105 -343 q 1050 -428 1105 -427 l 187 -428 q 134 -386 134 -427 z "},"`":{"ha":798,"x_min":155,"x_max":460,"o":"m 155 832 q 180 892 155 865 q 237 920 204 920 q 248 919 243 920 q 257 918 253 918 q 267 913 261 917 q 276 907 272 909 q 289 898 281 904 q 303 886 297 892 q 322 869 310 880 q 344 849 334 859 q 372 822 354 839 q 406 791 390 806 l 460 742 l 425 686 q 339 715 393 697 q 185 775 214 757 q 155 832 155 793 z "},"a":{"ha":776,"x_min":45,"x_max":775,"o":"m 45 150 q 496 368 45 349 l 496 415 q 343 579 496 579 q 243 570 289 579 q 273 501 273 549 q 247 437 273 460 q 186 414 221 414 q 127 437 154 414 q 100 501 100 460 q 349 629 100 629 q 576 571 498 629 q 654 415 654 513 l 654 117 q 657 89 654 97 q 679 73 660 81 q 739 65 699 65 q 757 64 751 65 q 769 56 762 62 q 775 33 775 49 q 765 5 775 11 q 730 0 755 0 l 664 0 q 581 10 612 0 q 537 39 549 20 q 522 72 525 58 q 519 107 519 85 q 313 -8 460 -8 q 229 -2 271 -8 q 143 20 187 4 q 72 69 98 36 q 45 150 45 102 m 207 151 q 244 73 207 105 q 334 41 281 41 q 375 47 352 41 q 427 67 397 53 q 476 114 457 81 q 496 193 496 147 l 496 325 q 438 320 465 323 q 365 305 411 317 q 288 276 319 293 q 231 227 256 260 q 207 151 207 194 z "},"b":{"ha":886,"x_min":52,"x_max":833,"o":"m 52 888 l 52 953 l 297 964 l 297 557 q 501 625 379 625 q 742 538 651 625 q 833 310 833 450 q 736 79 833 165 q 484 -8 639 -8 q 281 78 367 -8 l 212 0 l 147 0 l 147 833 q 133 880 147 872 q 52 888 118 888 m 306 138 q 471 41 370 42 q 619 114 568 41 q 656 310 655 168 q 655 365 656 345 q 650 421 654 385 q 635 480 646 457 q 606 527 624 503 q 557 563 587 551 q 486 575 526 575 q 384 550 432 575 q 306 486 336 525 l 306 138 z "},"c":{"ha":709,"x_min":53,"x_max":664,"o":"m 53 309 q 141 536 53 442 q 404 629 229 629 q 646 501 646 629 q 619 437 646 460 q 558 414 593 414 q 499 437 526 414 q 472 501 472 460 q 500 566 472 540 q 410 574 464 574 q 322 553 358 574 q 269 506 286 532 q 242 438 252 481 q 232 373 233 396 q 231 315 231 350 q 424 47 231 47 q 597 161 550 47 q 608 178 603 175 q 631 182 612 182 q 664 163 664 182 q 659 141 664 157 q 635 98 653 125 q 589 49 616 72 q 510 9 561 26 q 397 -8 460 -8 q 146 80 239 -8 q 53 309 53 168 z "},"d":{"ha":886,"x_min":53,"x_max":835,"o":"m 53 307 q 150 538 53 452 q 401 625 248 625 q 589 562 509 625 l 589 833 q 574 880 589 872 q 493 888 559 888 l 493 953 l 739 964 l 739 119 q 754 73 739 81 q 835 65 768 65 l 835 0 l 581 -8 l 581 60 q 386 -8 496 -8 q 143 80 233 -8 q 53 307 53 168 m 231 307 q 231 252 231 273 q 236 196 232 232 q 251 137 240 160 q 280 90 262 114 q 329 53 298 65 q 400 41 359 41 q 581 143 507 41 l 581 490 q 415 575 517 575 q 267 503 317 575 q 231 307 231 449 z "},"e":{"ha":732,"x_min":45,"x_max":686,"o":"m 45 313 q 136 539 45 449 q 387 629 227 629 q 608 554 530 629 q 686 340 686 476 q 677 308 686 314 q 642 302 668 302 l 222 302 q 418 47 222 47 q 419 47 418 47 q 542 78 487 47 q 618 158 596 109 q 630 182 625 176 q 653 187 636 187 q 686 163 686 187 q 679 136 686 153 q 651 92 671 118 q 601 44 631 66 q 520 7 571 22 q 407 -8 469 -8 q 143 81 241 -8 q 45 313 45 171 m 222 349 l 554 349 q 387 579 547 579 q 256 507 302 579 q 222 349 228 464 z "},"f":{"ha":487,"x_min":58,"x_max":607,"o":"m 58 551 l 58 616 l 163 616 l 163 757 q 247 919 163 865 q 449 972 332 972 q 566 936 526 972 q 607 851 607 900 q 581 788 607 811 q 521 765 555 765 q 463 787 489 765 q 436 851 436 810 q 468 920 436 896 q 445 922 458 922 q 416 920 431 922 q 380 908 401 918 q 343 881 358 897 q 316 833 328 865 q 304 757 304 800 l 304 616 l 472 616 l 472 551 l 313 551 l 313 65 l 433 65 l 433 0 q 241 4 383 4 q 66 0 212 4 l 66 65 l 163 65 l 163 551 l 58 551 z "},"g":{"ha":798,"x_min":45,"x_max":775,"o":"m 45 -104 q 60 -50 45 -74 q 99 -12 75 -25 q 137 7 122 1 q 164 17 151 14 q 103 150 103 66 q 150 273 103 214 q 97 337 117 297 q 78 419 78 376 q 146 564 78 503 q 354 625 215 625 q 541 579 472 625 q 688 632 607 632 q 753 606 730 632 q 775 551 775 581 q 759 509 775 526 q 715 492 742 492 q 672 508 689 492 q 656 551 656 525 q 661 579 656 565 q 575 553 616 575 q 631 419 631 493 q 562 275 631 336 q 354 214 493 214 q 184 250 254 214 q 171 204 171 232 q 189 151 171 178 q 248 117 207 123 q 354 115 254 115 q 476 114 437 115 q 563 103 515 113 q 648 77 611 94 q 753 -100 753 24 q 663 -229 753 -178 q 399 -279 574 -279 q 128 -225 212 -279 q 45 -104 45 -171 m 164 -102 q 223 -192 164 -155 q 399 -229 282 -229 q 577 -190 521 -229 q 633 -104 633 -151 q 433 -18 633 -18 l 271 -18 q 164 -102 164 -18 m 233 460 q 232 453 233 460 q 232 419 232 446 q 233 379 232 393 q 239 339 233 364 q 258 300 245 314 q 295 275 271 286 q 354 264 319 264 q 413 275 389 264 q 450 300 437 286 q 469 339 463 314 q 475 379 475 364 q 476 419 476 393 q 475 460 476 446 q 469 500 475 475 q 450 539 463 525 q 413 564 437 553 q 354 575 389 575 q 295 564 319 575 q 258 539 271 553 q 239 500 245 525 q 233 460 233 475 z "},"h":{"ha":886,"x_min":62,"x_max":854,"o":"m 62 0 l 62 65 l 158 65 l 158 833 q 143 880 158 872 q 62 888 129 888 l 62 953 l 309 964 l 309 492 l 310 492 q 545 625 388 625 q 705 578 652 625 q 758 425 758 532 l 758 65 l 854 65 l 854 0 q 679 4 738 4 q 504 0 621 4 l 504 65 l 600 65 l 600 440 q 581 545 600 515 q 524 575 561 575 q 382 517 447 575 q 317 355 317 460 l 317 65 l 412 65 l 412 0 q 237 4 296 4 q 62 0 179 4 z "},"i":{"ha":443,"x_min":65,"x_max":397,"o":"m 65 0 l 65 65 l 161 65 l 161 494 q 148 541 161 533 q 69 549 134 549 l 69 614 l 311 625 l 311 65 l 397 65 l 397 0 q 235 4 248 4 q 65 0 194 4 m 140 781 q 124 797 140 781 q 109 857 109 812 q 140 933 109 901 q 217 965 171 965 q 294 933 262 965 q 326 857 326 901 q 293 781 326 812 q 217 749 261 749 q 140 781 171 749 z "},"j":{"ha":487,"x_min":-78,"x_max":371,"o":"m -78 -151 q -54 -89 -78 -114 q 9 -64 -29 -64 q 71 -89 47 -64 q 96 -150 96 -114 q 62 -220 96 -195 q 117 -228 94 -228 q 197 -176 172 -228 q 221 -58 221 -123 l 221 493 q 220 519 221 511 q 211 535 218 528 q 191 546 204 543 q 115 549 170 549 l 115 614 l 371 625 l 371 -58 q 295 -220 371 -161 q 119 -278 218 -278 q -23 -244 32 -278 q -78 -151 -78 -210 m 185 781 q 170 797 185 781 q 154 857 154 812 q 185 933 154 901 q 262 965 216 965 q 339 933 307 965 q 371 857 371 901 q 339 781 371 812 q 262 749 307 749 q 185 781 216 749 z "},"k":{"ha":842,"x_min":52,"x_max":815,"o":"m 52 0 l 52 65 l 147 65 l 147 833 q 133 880 147 872 q 52 888 118 888 l 52 953 l 297 964 l 297 329 l 559 536 q 515 551 545 551 q 513 551 514 551 l 513 616 q 672 612 608 612 q 781 616 743 612 l 781 551 q 710 548 736 551 q 676 541 685 545 q 656 526 668 536 l 475 386 l 710 93 q 726 76 721 81 q 747 68 732 71 q 791 65 762 65 l 815 65 l 815 0 q 671 4 745 4 q 501 0 564 4 l 501 65 q 545 78 544 65 q 510 126 545 81 l 370 301 q 290 241 336 277 l 290 65 l 386 65 l 386 0 q 218 4 236 4 q 52 0 205 4 z "},"l":{"ha":443,"x_min":65,"x_max":407,"o":"m 65 0 l 65 65 l 161 65 l 161 833 q 147 880 161 872 q 65 888 132 888 l 65 953 l 311 964 l 311 65 l 407 65 l 407 0 q 236 4 265 4 q 65 0 199 4 z "},"m":{"ha":1330,"x_min":62,"x_max":1299,"o":"m 62 0 l 62 65 l 158 65 l 158 494 q 143 541 158 533 q 62 549 129 549 l 62 614 l 301 625 l 301 475 q 546 625 378 625 q 754 492 725 625 q 989 625 829 625 q 1151 578 1099 625 q 1203 425 1203 530 l 1203 65 l 1299 65 l 1299 0 q 1124 4 1182 4 q 949 0 1065 4 l 949 65 l 1044 65 l 1044 440 q 1025 546 1044 517 q 966 575 1006 575 q 825 517 891 575 q 760 355 760 460 l 760 65 l 856 65 l 856 0 q 681 4 739 4 q 505 0 623 4 l 505 65 l 602 65 l 602 440 q 582 546 602 517 q 524 575 562 575 q 382 517 448 575 q 317 355 317 460 l 317 65 l 412 65 l 412 0 q 237 4 296 4 q 62 0 179 4 z "},"n":{"ha":886,"x_min":62,"x_max":854,"o":"m 62 0 l 62 65 l 158 65 l 158 494 q 143 541 158 533 q 62 549 129 549 l 62 614 l 301 625 l 301 475 q 545 625 378 625 q 705 578 652 625 q 758 425 758 532 l 758 65 l 854 65 l 854 0 q 679 4 738 4 q 504 0 621 4 l 504 65 l 600 65 l 600 440 q 581 545 600 515 q 524 575 561 575 q 382 517 447 575 q 317 355 317 460 l 317 65 l 412 65 l 412 0 q 237 4 296 4 q 62 0 179 4 z "},"o":{"ha":798,"x_min":45,"x_max":753,"o":"m 45 302 q 138 537 45 446 q 399 629 232 629 q 659 537 564 629 q 753 302 753 446 q 660 80 753 168 q 399 -8 567 -8 q 138 80 231 -8 q 45 302 45 168 m 222 318 q 223 255 222 277 q 229 195 224 233 q 244 136 233 157 q 274 92 256 115 q 324 58 293 68 q 398 47 355 47 q 473 58 441 47 q 523 92 504 68 q 553 136 542 115 q 569 195 564 157 q 574 255 574 233 q 575 318 575 277 q 546 509 575 461 q 399 579 501 579 q 245 498 288 579 q 222 318 222 452 z "},"p":{"ha":886,"x_min":52,"x_max":833,"o":"m 52 -204 l 147 -204 l 147 496 q 133 542 147 534 q 52 549 118 549 l 52 614 l 297 625 l 297 557 q 507 625 385 625 q 745 538 656 625 q 833 310 833 450 q 737 79 833 165 q 484 -8 640 -8 q 306 54 382 -8 l 306 -204 l 401 -204 l 401 -269 q 227 -265 285 -265 q 52 -269 168 -265 l 52 -204 m 306 163 q 308 136 306 142 q 321 117 310 131 q 468 41 383 41 q 600 107 545 41 q 656 310 656 174 q 607 502 656 435 q 485 570 558 570 q 326 504 391 570 q 308 482 311 488 q 306 457 306 476 l 306 163 z "},"q":{"ha":842,"x_min":53,"x_max":835,"o":"m 53 309 q 149 538 53 452 q 399 625 244 625 q 517 596 461 625 q 608 515 572 567 l 682 625 l 739 625 l 739 -204 l 835 -204 l 835 -269 q 660 -265 718 -265 q 485 -269 602 -265 l 485 -204 l 581 -204 l 581 66 q 388 -8 495 -8 q 386 -8 387 -8 q 146 78 239 -8 q 53 309 53 164 m 231 307 q 280 109 231 176 q 400 41 329 41 q 568 139 503 41 q 589 197 589 168 l 589 390 q 539 510 589 450 q 417 570 490 570 q 287 506 343 570 q 231 307 231 442 z "},"r":{"ha":656,"x_min":52,"x_max":614,"o":"m 52 0 l 52 65 l 147 65 l 147 494 q 133 541 147 533 q 52 549 118 549 l 52 614 l 282 625 l 282 468 q 467 625 339 625 q 569 594 525 625 q 614 511 614 564 q 588 450 614 473 q 529 427 562 427 q 470 449 496 427 q 444 511 444 471 q 471 575 444 549 q 386 548 422 575 q 332 477 350 521 q 306 392 314 433 q 297 309 297 350 l 297 65 l 418 65 l 418 0 q 227 4 368 4 q 52 0 197 4 z "},"s":{"ha":629,"x_min":53,"x_max":576,"o":"m 53 31 l 53 182 q 58 215 53 208 q 86 222 62 222 q 109 219 103 222 q 119 203 115 216 q 138 151 127 174 q 170 100 149 129 q 230 57 192 72 q 319 41 268 41 q 478 146 477 41 q 463 196 478 175 q 418 228 447 216 q 370 245 389 240 q 323 254 351 250 q 229 272 256 267 q 169 293 203 278 q 109 330 135 307 q 53 447 53 378 q 68 523 53 490 q 111 576 83 557 q 164 606 138 595 q 224 622 191 618 q 274 628 258 627 q 309 629 290 629 q 449 603 396 629 q 511 629 503 629 q 532 622 528 629 q 536 590 536 614 l 536 479 q 531 447 536 453 q 503 440 526 440 q 477 446 481 440 q 471 468 472 452 q 307 585 460 585 q 151 498 152 585 q 164 458 151 475 q 205 432 178 441 q 247 418 232 422 q 293 408 262 414 q 423 381 383 393 q 500 342 463 370 q 576 195 576 281 q 561 109 576 146 q 519 51 546 72 q 465 17 492 31 q 404 -1 439 4 q 354 -7 370 -5 q 319 -8 339 -8 q 155 36 220 -8 l 119 12 q 79 -8 91 -8 q 78 -8 79 -8 q 57 0 61 -8 q 53 31 53 8 z "},"t":{"ha":621,"x_min":29,"x_max":530,"o":"m 29 551 l 29 602 q 180 687 126 604 q 236 882 235 770 l 301 882 l 301 616 l 504 616 l 504 551 l 301 551 l 301 168 q 382 47 301 47 q 440 79 415 47 q 465 175 465 110 l 465 245 l 530 245 l 530 172 q 485 43 530 94 q 363 -8 440 -8 q 143 171 143 -8 l 143 551 l 29 551 z "},"u":{"ha":886,"x_min":62,"x_max":854,"o":"m 62 549 l 62 614 l 317 625 l 317 151 q 335 64 317 87 q 428 41 353 41 q 552 93 505 41 q 600 229 600 144 l 600 494 q 586 541 600 533 q 504 549 571 549 l 504 614 l 758 625 l 758 119 q 773 73 758 81 q 854 65 787 65 l 854 0 l 608 -8 l 608 100 q 410 -8 545 -8 q 408 -8 409 -8 q 224 30 290 -8 q 158 171 158 68 l 158 494 q 143 541 158 533 q 62 549 129 549 z "},"v":{"ha":842,"x_min":36,"x_max":806,"o":"m 36 551 l 36 616 q 111 614 50 616 q 195 612 172 612 q 367 616 298 612 l 367 551 l 292 551 l 468 172 l 629 519 q 636 536 636 533 q 575 551 636 551 q 570 551 572 551 l 570 616 q 696 612 657 612 q 806 616 753 612 l 806 551 q 727 545 745 551 q 703 522 710 539 l 472 28 q 420 -5 456 -5 q 368 29 385 -5 l 125 551 l 36 551 z "},"w":{"ha":1152,"x_min":35,"x_max":1118,"o":"m 35 551 l 35 616 q 186 612 176 612 q 357 616 272 612 l 357 551 l 279 551 l 425 193 l 534 460 q 541 478 540 477 q 511 551 541 482 l 429 551 l 429 616 q 568 612 496 612 q 726 616 593 612 l 726 551 l 648 551 l 807 163 l 953 518 q 955 523 953 519 q 958 530 957 526 q 958 534 958 533 q 878 551 958 551 l 878 616 q 1011 612 969 612 q 1118 616 1069 612 l 1118 551 q 1059 547 1080 551 q 1034 538 1039 543 q 1023 522 1028 533 l 823 32 q 814 10 818 16 q 800 -1 810 4 q 774 -5 790 -5 q 741 3 750 -5 q 724 32 732 11 l 576 392 l 429 32 q 419 10 424 16 q 406 -1 415 4 q 379 -5 396 -5 q 347 3 355 -5 q 329 32 338 11 l 117 551 l 35 551 z "},"x":{"ha":842,"x_min":31,"x_max":812,"o":"m 31 0 l 31 65 q 94 66 73 65 q 137 73 114 66 q 171 92 160 79 l 353 296 l 136 551 l 37 551 l 37 616 q 191 612 175 612 q 358 616 250 612 l 358 551 l 302 551 l 439 392 l 555 522 l 567 539 q 514 551 546 551 l 514 616 q 657 612 631 612 q 785 616 711 612 l 785 551 q 700 548 729 551 q 663 539 671 545 q 643 522 654 534 l 481 342 l 714 65 l 812 65 l 812 0 q 660 4 675 4 q 493 0 602 4 l 493 65 l 547 65 l 395 245 l 260 94 q 250 81 250 83 q 301 65 250 65 l 301 0 q 158 4 218 4 q 31 0 102 4 z "},"y":{"ha":842,"x_min":31,"x_max":806,"o":"m 31 -150 q 54 -90 31 -111 q 110 -69 78 -69 q 168 -92 144 -69 q 191 -149 191 -114 q 146 -222 191 -203 q 179 -228 161 -228 q 242 -213 214 -228 q 292 -170 271 -199 q 326 -122 314 -142 q 353 -66 338 -102 l 385 0 l 125 551 l 36 551 l 36 616 q 111 614 50 616 q 195 612 172 612 q 367 616 298 612 l 367 551 l 292 551 l 468 176 l 628 518 q 635 534 635 525 q 570 551 635 551 l 570 616 q 696 612 657 612 q 806 616 755 612 l 806 551 q 741 548 763 551 q 714 539 720 545 q 703 522 708 534 l 404 -113 q 313 -229 372 -180 q 179 -278 253 -278 q 74 -240 117 -278 q 31 -150 31 -203 z "},"z":{"ha":709,"x_min":45,"x_max":642,"o":"m 45 31 q 57 61 45 46 l 444 567 l 326 567 q 180 525 220 567 q 132 374 139 482 l 66 374 l 83 616 l 593 616 q 617 616 610 616 q 631 608 624 615 q 637 587 637 602 q 624 557 637 576 l 239 56 l 358 56 q 467 70 425 56 q 532 117 510 83 q 563 185 554 150 q 576 281 571 220 l 642 281 l 616 0 l 89 0 q 64 1 72 0 q 51 10 57 3 q 45 31 45 17 z "},"{":{"ha":798,"x_min":109,"x_max":689,"o":"m 109 347 q 117 368 109 363 q 152 374 126 372 q 196 382 178 376 q 319 526 319 419 l 319 838 q 320 868 319 859 q 326 901 321 878 q 343 940 332 925 q 380 975 355 956 q 439 1008 404 994 q 650 1042 528 1042 q 668 1041 662 1042 q 681 1034 675 1040 q 688 1017 688 1028 q 677 995 688 1000 q 639 988 667 990 q 590 979 611 986 q 478 844 477 945 l 478 534 q 310 347 478 389 q 478 160 478 304 l 478 -150 q 483 -187 478 -170 q 503 -230 488 -204 q 558 -274 518 -256 q 659 -296 599 -292 q 689 -322 689 -298 q 654 -347 689 -347 q 549 -340 599 -347 q 449 -317 498 -334 q 365 -269 399 -301 q 322 -192 330 -237 q 319 -143 319 -175 l 319 155 q 300 239 319 207 q 155 319 257 307 q 144 320 153 319 q 134 321 136 321 q 124 324 131 322 q 115 329 118 326 q 111 336 113 332 q 109 347 109 340 z "},"|":{"ha":443,"x_min":179,"x_max":262,"o":"m 179 -290 l 179 979 q 221 1040 179 1040 q 262 986 262 1040 l 262 -285 q 221 -346 262 -346 q 179 -290 179 -346 z "},"}":{"ha":798,"x_min":109,"x_max":689,"o":"m 109 -321 q 115 -304 109 -310 q 131 -297 122 -298 q 158 -294 140 -296 q 191 -289 176 -292 q 319 -150 319 -258 l 319 160 q 320 191 319 180 q 329 229 321 201 q 354 274 338 256 q 404 314 370 293 q 486 347 437 335 q 319 534 319 389 l 319 833 q 315 884 319 867 q 258 956 304 926 q 146 990 211 985 l 139 991 q 130 991 132 991 q 122 994 127 991 q 115 998 117 996 q 111 1005 113 1000 q 109 1015 109 1010 q 139 1042 109 1042 l 144 1042 q 244 1036 196 1042 q 342 1014 292 1029 q 429 967 393 999 q 473 889 464 935 q 478 838 477 872 l 478 536 q 496 458 478 490 q 544 409 514 425 q 596 384 574 392 q 643 374 619 376 q 654 374 644 374 q 667 372 664 374 q 677 369 671 371 q 686 361 684 367 q 689 347 689 355 q 686 334 689 339 q 677 326 684 329 q 666 322 671 323 q 652 320 661 321 q 640 319 643 319 q 537 281 582 313 q 481 197 492 250 q 478 155 478 184 l 478 -143 q 475 -185 478 -168 q 460 -232 472 -203 q 417 -284 449 -261 q 336 -322 385 -307 q 143 -347 256 -347 q 109 -321 109 -347 z "},"~":{"ha":976,"x_min":132,"x_max":840,"o":"m 132 848 q 158 878 138 854 q 184 905 179 901 q 206 925 189 909 q 231 943 222 940 q 255 954 239 946 q 290 962 272 961 q 329 964 307 964 q 500 940 378 964 q 671 917 623 917 q 804 964 751 917 l 840 929 q 815 900 832 920 q 790 873 798 880 q 769 853 783 867 q 744 836 754 840 q 719 824 734 831 q 685 816 703 818 q 644 814 667 814 q 473 838 589 814 q 301 861 357 861 q 237 853 265 861 q 197 837 208 844 q 168 814 186 829 l 132 848 z "}," ":{"ha":532,"x_min":0,"x_max":0,"o":""},"¡":{"ha":486,"x_min":134,"x_max":351,"o":"m 134 -186 q 136 -162 134 -178 q 139 -142 139 -147 l 205 335 q 209 356 208 352 q 213 368 210 359 q 223 378 216 376 q 242 380 231 380 q 260 378 253 380 q 270 370 267 376 q 275 358 273 363 q 278 343 277 354 q 281 326 279 332 l 349 -161 q 351 -186 351 -178 q 319 -256 351 -227 q 243 -285 286 -285 q 168 -258 201 -285 q 134 -186 134 -231 m 165 511 q 150 527 165 511 q 135 586 135 543 q 165 662 135 629 q 241 694 196 694 q 319 662 289 694 q 350 586 350 629 q 319 511 350 543 q 243 478 289 478 q 165 511 195 478 z "},"¢":{"ha":798,"x_min":53,"x_max":751,"o":"m 53 310 q 70 411 53 363 q 124 508 86 460 q 236 587 163 555 q 410 628 309 619 l 410 757 l 476 757 l 476 629 q 563 626 526 629 q 643 611 599 623 q 712 572 688 600 q 736 503 736 545 q 710 439 736 464 q 649 415 685 415 q 587 439 612 415 q 562 501 562 463 q 587 566 562 534 q 476 572 541 572 l 476 49 q 672 139 616 54 q 682 155 676 146 q 690 168 688 164 q 696 176 692 172 q 705 180 700 179 q 720 182 710 182 q 751 163 751 182 q 746 141 750 155 q 724 103 742 127 q 679 57 705 78 q 598 17 652 36 q 476 -7 545 -1 l 476 -135 l 410 -135 l 410 -7 q 235 33 308 0 q 124 113 163 65 q 70 209 86 160 q 53 310 53 258 m 231 310 q 410 56 231 94 l 410 571 q 272 492 313 554 q 231 310 231 431 z "},"£":{"ha":1021,"x_min":87,"x_max":974,"o":"m 87 71 q 142 160 87 126 q 283 193 196 193 q 363 186 318 193 l 364 294 l 364 449 l 279 449 q 253 455 261 449 q 245 482 245 461 q 282 515 245 515 l 364 515 l 364 671 q 363 690 364 677 q 363 708 363 703 q 390 840 363 785 q 465 924 418 896 q 561 965 513 953 q 661 978 608 978 q 855 900 781 978 q 929 728 929 822 q 901 657 929 679 q 842 636 872 636 q 781 661 807 636 q 755 722 755 685 q 775 780 755 753 q 844 810 794 807 q 664 926 783 926 q 541 856 574 926 q 522 730 522 820 l 522 515 l 647 515 q 675 509 667 515 q 684 482 684 503 q 675 455 684 461 q 647 449 667 449 l 522 449 l 522 257 q 504 150 522 197 q 565 132 524 144 q 624 115 607 119 q 669 103 640 110 q 720 94 697 96 q 765 92 742 92 q 859 115 819 92 q 907 180 899 138 q 912 198 909 193 q 920 208 914 203 q 939 212 926 212 q 974 183 973 212 q 909 55 974 117 q 732 -7 844 -7 q 612 9 679 -7 q 497 40 545 25 q 443 56 449 56 q 412 40 436 56 q 338 9 387 25 q 224 -7 289 -7 q 87 71 87 -7 m 248 93 q 178 68 178 93 q 225 43 178 43 q 328 86 285 43 q 248 93 285 93 z "},"¥":{"ha":1206,"x_min":26,"x_max":1179,"o":"m 26 886 l 26 953 q 245 949 222 949 q 510 953 378 949 l 510 886 l 393 886 l 562 636 l 758 636 q 782 640 777 636 q 800 661 787 643 q 882 781 836 714 q 937 869 937 861 q 838 886 937 886 l 838 953 q 1025 949 930 949 q 1179 953 1103 949 l 1179 886 l 1178 886 q 1058 880 1081 886 q 1017 847 1035 873 l 873 636 l 1071 636 q 1112 611 1112 636 q 1072 586 1112 586 l 838 586 q 773 489 804 534 q 729 426 742 443 q 707 391 715 408 q 699 355 699 374 l 699 328 l 1071 328 q 1112 304 1112 328 q 1090 279 1112 285 q 1063 278 1086 278 l 699 278 l 699 66 l 848 66 l 848 0 q 597 4 724 4 q 358 0 502 4 l 358 66 l 509 66 l 509 278 l 144 278 q 140 277 143 278 q 134 277 136 277 q 94 302 95 277 q 136 328 94 328 l 509 328 l 509 364 q 499 393 509 378 q 447 471 490 408 q 385 561 411 524 q 347 586 368 586 l 140 586 q 97 599 107 586 q 95 619 92 608 q 109 633 98 629 q 201 636 115 636 l 334 636 l 163 886 l 26 886 m 599 586 l 672 476 l 749 586 l 599 586 z "},"§":{"ha":734,"x_min":111,"x_max":624,"o":"m 111 351 q 215 529 111 463 q 111 753 111 633 q 188 910 111 848 q 368 971 264 971 q 533 921 465 971 q 602 799 602 871 q 577 739 602 760 q 521 718 553 718 q 465 740 488 718 q 443 796 443 762 q 500 873 443 849 q 370 921 444 921 q 255 870 302 921 q 208 761 208 819 q 239 706 208 728 q 337 661 269 684 q 421 629 404 637 q 574 498 526 579 q 623 342 623 418 q 519 164 623 229 q 624 -60 624 57 q 547 -216 624 -154 q 366 -278 469 -278 q 201 -228 269 -278 q 134 -106 134 -178 q 157 -46 134 -68 q 212 -24 180 -24 q 269 -46 245 -24 q 292 -103 292 -69 q 233 -179 292 -159 q 366 -227 293 -227 q 469 -188 422 -227 q 524 -82 515 -149 q 524 -76 524 -81 q 525 -71 525 -72 q 503 -20 525 -41 q 454 12 481 1 q 381 38 427 22 q 313 65 336 54 q 159 195 207 115 q 111 351 111 275 m 208 366 q 238 307 208 328 q 342 260 268 286 q 464 207 416 233 q 525 329 525 264 q 496 388 525 368 q 392 435 467 408 q 271 488 318 461 q 208 366 208 429 z "},"¨":{"ha":798,"x_min":135,"x_max":661,"o":"m 135 844 q 166 919 135 886 q 243 953 197 953 q 318 922 286 953 q 350 844 350 890 q 319 768 350 800 q 243 736 288 736 q 167 766 199 736 q 135 844 135 797 m 446 844 q 477 921 446 889 q 553 953 509 953 q 628 922 595 953 q 661 844 661 890 q 628 766 661 797 q 553 736 595 736 q 478 767 510 736 q 446 844 446 798 z "},"©":{"ha":1773,"x_min":87,"x_max":1685,"o":"m 87 347 q 117 557 87 456 q 209 749 146 659 q 364 908 272 840 q 591 1017 456 977 q 889 1057 726 1057 q 1467 861 1249 1057 q 1685 346 1685 664 q 1469 -165 1685 32 q 882 -363 1253 -363 q 305 -167 522 -363 q 87 347 87 29 m 172 347 q 213 120 172 228 q 335 -79 253 12 q 558 -224 416 -170 q 885 -278 700 -278 q 1407 -107 1214 -278 q 1600 347 1600 64 q 1407 801 1600 629 q 886 972 1214 972 q 365 802 558 972 q 172 347 172 631 m 443 334 q 569 586 443 489 q 900 682 696 682 q 1114 624 1017 682 q 1217 681 1202 681 q 1240 642 1240 681 l 1240 452 q 1235 416 1240 425 q 1206 407 1229 407 q 1183 409 1190 407 q 1172 417 1177 411 q 1166 431 1168 424 q 1160 455 1165 439 q 1149 486 1156 471 q 1073 575 1125 535 q 936 615 1021 615 q 701 525 772 615 q 656 336 655 468 q 658 268 656 296 q 676 195 660 240 q 720 122 692 150 q 804 73 747 94 q 942 52 861 52 q 1096 94 1028 52 q 1174 215 1164 136 q 1176 228 1175 224 q 1180 237 1177 232 q 1190 245 1183 243 q 1207 248 1196 248 q 1240 218 1240 248 q 1221 143 1240 182 q 1164 68 1202 104 q 1058 8 1126 32 q 904 -16 990 -16 q 568 83 693 -16 q 443 334 443 181 z "},"ª":{"ha":709,"x_min":43,"x_max":685,"o":"m 43 627 q 407 754 43 746 l 407 808 q 302 1003 407 1003 q 221 983 264 1003 q 272 903 273 960 q 247 841 272 865 q 185 817 221 817 q 123 841 149 817 q 98 904 98 865 q 160 1011 98 969 q 311 1053 221 1053 q 397 1042 356 1053 q 478 1005 437 1031 q 543 928 518 979 q 567 807 567 876 q 566 789 567 800 q 566 771 566 778 l 566 596 q 624 589 589 589 q 672 583 659 589 q 685 554 685 576 q 644 521 685 521 l 572 521 q 469 531 497 521 q 431 574 440 542 q 260 514 379 514 q 43 627 43 514 m 64 412 q 104 437 68 437 l 608 437 q 643 410 643 436 q 606 386 643 386 l 102 386 q 64 412 61 386 m 207 627 q 228 583 207 603 q 292 564 249 564 q 400 606 375 564 q 407 647 407 618 l 407 710 q 207 627 207 699 z "},"«":{"ha":887,"x_min":176,"x_max":796,"o":"m 176 328 q 208 359 176 338 q 469 628 368 458 q 503 656 485 656 q 526 635 526 656 q 509 581 526 624 q 446 464 492 538 q 340 328 400 390 q 472 151 417 252 q 526 22 526 50 q 503 1 526 1 q 469 28 484 1 q 378 153 429 96 q 290 239 326 211 q 219 289 253 267 q 184 313 186 311 q 176 328 176 318 m 446 328 q 463 348 446 336 q 511 382 481 361 q 577 432 542 403 q 657 512 612 461 q 739 628 701 564 q 772 656 755 656 q 796 635 796 656 q 779 581 796 624 q 715 464 761 538 q 610 328 669 390 q 741 151 686 252 q 796 22 796 50 q 772 1 796 1 q 739 28 754 1 q 648 153 699 96 q 559 239 596 211 q 489 289 522 267 q 454 313 456 311 q 446 328 446 321 z "},"¬":{"ha":1063,"x_min":89,"x_max":975,"o":"m 89 472 q 143 514 89 513 l 909 514 q 914 515 911 514 q 918 515 917 515 q 965 500 954 515 q 975 456 975 485 l 975 139 q 933 85 975 85 q 890 139 892 85 l 890 431 l 139 431 q 89 472 89 432 z "},"­":{"ha":532,"x_min":17,"x_max":441,"o":"m 17 241 l 17 376 l 441 376 l 441 241 l 17 241 z "},"®":{"ha":1773,"x_min":87,"x_max":1685,"o":"m 87 347 q 117 557 87 456 q 209 749 146 659 q 364 908 272 840 q 591 1017 456 977 q 889 1057 726 1057 q 1467 861 1249 1057 q 1685 346 1685 664 q 1469 -165 1685 32 q 882 -363 1253 -363 q 305 -167 522 -363 q 87 347 87 29 m 172 347 q 213 120 172 228 q 335 -79 253 12 q 558 -224 416 -170 q 885 -278 700 -278 q 1407 -107 1214 -278 q 1600 347 1600 64 q 1407 801 1600 629 q 886 972 1214 972 q 365 802 558 972 q 172 347 172 631 m 380 0 l 380 66 l 532 66 l 532 600 l 380 600 l 380 667 l 823 667 q 1126 610 1034 667 q 1218 481 1218 553 q 1165 384 1218 421 q 1046 330 1112 347 l 1053 328 q 1064 321 1058 325 q 1080 311 1071 317 q 1097 297 1089 306 q 1114 279 1105 289 q 1129 256 1122 269 q 1140 228 1136 243 q 1152 172 1144 214 q 1167 105 1160 129 q 1195 58 1174 81 q 1250 36 1217 36 q 1302 58 1282 36 q 1328 111 1322 79 q 1350 151 1332 146 q 1361 153 1356 153 q 1394 119 1394 153 q 1388 84 1394 104 q 1365 40 1381 64 q 1317 1 1350 17 q 1239 -16 1283 -16 l 1217 -16 q 1006 18 1067 -16 q 946 144 946 52 l 946 196 q 916 279 946 250 q 828 309 886 309 l 721 309 l 721 66 l 872 66 l 872 0 q 632 4 753 4 q 380 0 505 4 m 721 358 l 803 358 q 881 359 854 358 q 946 374 908 361 q 996 414 985 387 q 1006 486 1005 436 q 963 579 1004 558 q 811 600 921 600 l 721 600 l 721 358 z "},"¯":{"ha":798,"x_min":111,"x_max":688,"o":"m 111 896 l 111 968 l 688 968 l 688 896 l 111 896 z "},"°":{"ha":532,"x_min":89,"x_max":443,"o":"m 89 777 q 137 903 89 853 q 267 953 186 953 q 394 903 346 953 q 443 775 443 852 q 394 648 443 697 q 265 599 345 599 q 137 649 186 599 q 89 777 89 699 m 174 775 q 199 707 174 730 q 265 684 224 684 q 333 708 308 684 q 358 777 358 733 q 333 845 358 821 q 267 868 309 868 q 199 843 224 868 q 174 775 174 818 z "},"±":{"ha":1241,"x_min":89,"x_max":1152,"o":"m 89 -11 q 147 32 89 32 l 578 32 l 578 437 l 151 437 q 119 440 130 437 q 89 481 89 450 q 144 522 89 522 l 578 522 l 578 949 q 581 981 578 971 q 619 1011 590 1011 q 660 981 650 1011 q 663 947 663 970 l 663 522 l 1088 522 q 1121 519 1110 522 q 1152 481 1152 510 q 1121 440 1152 450 q 1088 437 1110 437 l 663 437 l 663 32 l 1097 32 q 1150 -11 1150 32 q 1096 -53 1150 -52 l 144 -53 q 109 -44 122 -53 q 92 -27 96 -36 q 89 -11 89 -19 z "},"´":{"ha":798,"x_min":338,"x_max":640,"o":"m 338 743 q 518 905 502 895 q 559 920 538 919 q 617 892 594 920 q 640 832 640 864 q 612 776 640 793 q 460 717 583 758 q 372 686 406 697 l 338 743 z "},"µ":{"ha":887,"x_min":61,"x_max":856,"o":"m 61 -204 l 158 -204 l 158 498 q 143 538 158 529 q 77 547 127 547 l 61 547 l 61 614 l 317 625 l 317 204 q 316 184 317 197 q 315 164 315 171 q 334 68 315 94 q 428 43 353 43 q 547 88 493 43 q 600 236 600 134 l 600 493 q 587 537 600 528 q 517 547 574 547 l 504 547 l 504 614 l 758 625 l 758 118 q 774 76 758 85 q 842 66 790 66 l 856 66 l 856 0 l 608 -7 l 608 53 l 607 100 q 410 -7 541 -7 l 406 -7 q 317 -1 355 -7 l 317 -204 l 412 -204 l 412 -271 q 231 -267 321 -267 q 61 -271 215 -267 l 61 -204 z "},"¶":{"ha":976,"x_min":87,"x_max":929,"o":"m 87 635 q 200 867 87 771 q 505 964 313 964 l 872 964 q 929 922 929 964 q 905 885 929 897 q 864 880 896 881 l 798 880 l 798 -186 l 865 -186 q 905 -192 896 -186 q 929 -229 929 -203 q 875 -271 929 -271 l 439 -271 q 386 -228 386 -269 q 408 -193 386 -205 q 449 -186 420 -186 l 518 -186 l 518 306 q 211 404 335 315 q 87 635 87 492 m 602 -186 l 713 -186 l 713 880 l 602 880 l 602 -186 z "},"·":{"ha":382,"x_min":82,"x_max":298,"o":"m 82 328 q 115 406 82 376 q 191 436 149 436 q 266 405 233 436 q 298 328 298 374 q 267 253 298 287 q 191 220 236 220 q 115 251 148 220 q 82 328 82 282 z "},"¸":{"ha":709,"x_min":142,"x_max":567,"o":"m 142 -227 l 157 -227 q 343 -211 280 -227 q 407 -153 406 -196 q 275 -83 407 -85 l 275 0 l 433 0 l 433 -41 q 567 -153 567 -65 q 466 -252 567 -227 q 161 -277 366 -277 l 142 -277 l 142 -227 z "},"º":{"ha":709,"x_min":43,"x_max":664,"o":"m 43 778 q 121 971 43 889 q 354 1053 199 1053 q 581 974 497 1053 q 664 778 664 896 q 581 586 664 659 q 353 514 497 514 q 127 586 211 514 q 43 778 43 659 m 64 411 q 102 437 64 437 l 608 437 q 643 410 643 436 q 606 386 643 386 l 102 386 q 64 411 64 386 m 221 764 q 222 710 221 729 q 229 659 222 690 q 249 612 236 628 q 289 583 262 596 q 353 570 315 570 q 464 623 431 570 q 486 802 486 657 q 468 945 486 910 q 354 1003 436 1003 q 291 991 317 1003 q 251 963 265 979 q 231 918 237 947 q 222 867 224 889 q 221 810 221 846 l 221 764 z "},"»":{"ha":887,"x_min":90,"x_max":710,"o":"m 90 22 q 109 80 90 36 q 173 196 127 125 q 277 328 218 268 q 145 505 200 403 q 90 635 90 607 q 113 656 90 656 q 146 628 131 656 q 407 361 244 463 q 440 328 440 341 q 407 296 440 317 q 146 28 250 199 q 113 1 130 1 q 90 22 90 1 m 359 20 q 412 146 359 50 q 546 328 464 241 q 447 452 493 380 q 380 571 401 524 q 359 633 359 619 q 382 656 359 656 q 415 628 400 656 q 676 361 513 463 q 710 328 709 341 q 677 296 710 317 q 415 28 517 197 q 382 1 399 1 q 359 20 359 1 z "},"¿":{"ha":754,"x_min":87,"x_max":664,"o":"m 87 -98 q 90 -72 87 -85 q 94 -49 92 -60 q 103 -28 97 -39 q 113 -11 109 -18 q 124 4 117 -4 q 135 17 131 12 q 146 27 139 21 q 157 35 154 33 q 167 41 160 37 l 174 47 q 321 314 321 152 l 321 345 q 327 372 321 364 q 354 380 334 380 q 381 372 375 380 q 387 343 387 364 q 387 338 387 342 q 386 330 386 334 l 386 313 q 364 151 386 221 q 309 29 342 81 q 277 -24 277 -22 q 265 -102 266 -50 l 265 -109 q 269 -177 265 -156 q 294 -213 273 -199 q 358 -228 315 -228 q 550 -182 472 -228 q 490 -98 490 -159 q 515 -37 490 -61 q 578 -12 541 -12 q 640 -37 615 -12 q 664 -102 664 -61 q 650 -160 664 -132 q 604 -216 636 -187 q 506 -261 572 -244 q 349 -278 440 -278 q 214 -260 269 -278 q 133 -214 158 -243 q 97 -157 107 -184 q 87 -98 87 -130 m 276 511 q 261 527 276 511 q 245 586 245 543 q 276 662 245 629 q 353 694 307 694 q 431 662 400 694 q 461 586 461 629 q 431 511 461 543 q 354 478 400 478 q 276 511 307 478 z "},"À":{"ha":1206,"x_min":57,"x_max":1149,"o":"m 57 0 l 57 65 l 86 65 q 178 72 158 65 q 204 97 197 79 l 549 933 q 558 955 554 949 q 573 965 562 961 q 603 970 583 970 q 625 968 618 970 q 642 958 632 966 q 659 933 652 950 l 1014 65 l 1149 65 l 1149 0 q 922 4 1100 4 q 677 0 730 4 l 677 65 l 810 65 l 726 268 l 354 268 l 285 100 q 279 83 279 94 q 403 65 279 65 l 403 0 q 220 4 351 4 q 57 0 215 4 m 382 334 l 699 334 l 541 720 l 382 334 m 387 1128 q 409 1188 387 1161 q 465 1215 431 1215 q 507 1203 484 1215 q 616 1135 530 1190 q 701 1080 668 1101 l 679 1018 q 628 1026 651 1022 q 562 1036 604 1029 q 468 1051 519 1043 q 387 1128 387 1061 z "},"Á":{"ha":1206,"x_min":57,"x_max":1149,"o":"m 57 0 l 57 65 l 86 65 q 178 72 158 65 q 204 97 197 79 l 549 933 q 558 955 554 949 q 573 965 562 961 q 603 970 583 970 q 625 968 618 970 q 642 958 632 966 q 659 933 652 950 l 1014 65 l 1149 65 l 1149 0 q 922 4 1100 4 q 677 0 730 4 l 677 65 l 810 65 l 726 268 l 354 268 l 285 100 q 279 83 279 94 q 403 65 279 65 l 403 0 q 220 4 351 4 q 57 0 215 4 m 382 334 l 699 334 l 541 720 l 382 334 m 458 1080 q 671 1213 656 1205 q 694 1215 679 1215 q 750 1187 728 1215 q 772 1128 772 1160 q 769 1104 772 1116 q 761 1085 765 1093 q 747 1072 757 1078 q 731 1063 737 1065 q 712 1056 725 1060 q 693 1051 699 1053 q 673 1048 688 1050 q 656 1046 659 1046 q 481 1018 539 1026 l 458 1080 z "},"Â":{"ha":1206,"x_min":57,"x_max":1149,"o":"m 57 0 l 57 65 l 86 65 q 178 72 158 65 q 204 97 197 79 l 549 933 q 558 955 554 949 q 573 965 562 961 q 603 970 583 970 q 625 968 618 970 q 642 958 632 966 q 659 933 652 950 l 1014 65 l 1149 65 l 1149 0 q 922 4 1100 4 q 677 0 730 4 l 677 65 l 810 65 l 726 268 l 354 268 l 285 100 q 279 83 279 94 q 403 65 279 65 l 403 0 q 220 4 351 4 q 57 0 215 4 m 382 334 l 699 334 l 541 720 l 382 334 m 383 1075 l 383 1076 l 602 1250 l 603 1250 l 821 1076 l 821 1075 l 783 1022 l 603 1135 l 602 1135 l 422 1022 l 383 1075 z "},"Ã":{"ha":1206,"x_min":57,"x_max":1149,"o":"m 57 0 l 57 65 l 86 65 q 178 72 158 65 q 204 97 197 79 l 549 933 q 558 955 554 949 q 573 965 562 961 q 603 970 583 970 q 625 968 618 970 q 642 958 632 966 q 659 933 652 950 l 1014 65 l 1149 65 l 1149 0 q 922 4 1100 4 q 677 0 730 4 l 677 65 l 810 65 l 726 268 l 354 268 l 285 100 q 279 83 279 94 q 403 65 279 65 l 403 0 q 220 4 351 4 q 57 0 215 4 m 292 1128 q 315 1152 298 1135 q 338 1176 332 1169 q 358 1195 345 1182 q 379 1212 372 1207 q 399 1224 386 1217 q 423 1235 412 1232 q 448 1240 433 1238 q 479 1242 463 1242 q 617 1218 526 1242 q 754 1194 708 1194 q 876 1242 823 1194 l 913 1206 q 889 1181 906 1199 q 866 1158 872 1164 q 846 1139 860 1152 q 825 1122 832 1126 q 805 1109 818 1117 q 781 1099 791 1101 q 756 1094 771 1096 q 725 1092 742 1092 q 587 1115 677 1092 q 450 1139 497 1139 q 326 1092 382 1139 l 292 1128 m 382 334 l 699 334 l 541 720 l 382 334 z "},"Ä":{"ha":1206,"x_min":57,"x_max":1149,"o":"m 57 0 l 57 65 l 86 65 q 178 72 158 65 q 204 97 197 79 l 549 933 q 558 955 554 949 q 573 965 562 961 q 603 970 583 970 q 625 968 618 970 q 642 958 632 966 q 659 933 652 950 l 1014 65 l 1149 65 l 1149 0 q 922 4 1100 4 q 677 0 730 4 l 677 65 l 810 65 l 726 268 l 354 268 l 285 100 q 279 83 279 94 q 403 65 279 65 l 403 0 q 220 4 351 4 q 57 0 215 4 m 372 1056 q 355 1072 372 1056 q 339 1134 339 1088 q 371 1211 339 1179 q 446 1242 403 1242 q 522 1211 490 1242 q 554 1133 554 1181 q 524 1058 554 1090 q 447 1025 493 1025 q 372 1056 404 1025 m 382 334 l 699 334 l 541 720 l 382 334 m 648 1133 q 680 1208 648 1175 q 757 1242 711 1242 q 832 1211 800 1242 q 865 1133 865 1179 q 833 1057 865 1088 q 757 1025 802 1025 q 681 1055 713 1025 q 648 1133 648 1086 z "},"Å":{"ha":1206,"x_min":56,"x_max":1149,"o":"m 56 0 l 56 66 q 155 70 126 66 q 192 81 183 74 q 208 109 200 87 l 545 928 q 436 1086 436 966 q 481 1207 436 1162 q 601 1253 526 1253 q 722 1207 676 1253 q 768 1086 768 1161 q 660 928 768 967 l 1014 66 l 1149 66 l 1149 0 q 929 4 1017 4 q 676 0 803 4 l 676 66 l 808 66 l 725 267 l 353 267 q 282 86 282 94 q 401 66 282 66 l 401 0 q 216 4 310 4 q 56 0 153 4 m 380 334 l 699 334 l 541 720 l 380 334 m 501 1090 q 502 1057 501 1069 q 508 1026 503 1044 q 524 997 514 1007 q 553 978 533 986 q 600 970 572 970 q 680 998 659 970 q 701 1082 701 1026 q 701 1115 701 1103 q 694 1146 700 1128 q 679 1176 689 1165 q 650 1195 669 1186 q 603 1203 631 1203 q 522 1175 543 1203 q 501 1090 501 1146 z "},"Æ":{"ha":1445,"x_min":56,"x_max":1400,"o":"m 56 0 l 56 66 q 155 70 126 66 q 192 80 183 74 q 208 107 200 86 l 536 886 l 429 886 l 429 953 l 1314 953 l 1356 616 l 1291 616 q 1270 733 1281 692 q 1231 814 1258 775 q 1154 869 1203 852 q 1025 886 1104 885 l 852 886 l 852 492 l 929 492 q 976 493 958 492 q 1017 502 993 494 q 1058 527 1042 509 q 1080 572 1074 545 q 1088 653 1087 599 l 1154 653 l 1154 262 l 1088 262 q 1043 401 1088 370 q 929 425 1010 425 l 852 425 l 852 66 l 997 66 q 1096 69 1059 66 q 1184 94 1132 72 q 1265 160 1236 117 q 1333 382 1305 217 l 1400 382 l 1336 0 l 555 0 l 555 66 l 668 66 l 668 425 l 422 425 q 355 262 392 349 q 301 135 318 176 q 283 87 283 94 q 403 66 283 66 l 403 0 q 218 4 311 4 q 56 0 153 4 m 452 492 l 668 492 l 668 886 l 616 886 l 452 492 z "},"Ç":{"ha":1152,"x_min":87,"x_max":1064,"o":"m 87 476 q 242 832 87 697 q 644 968 397 968 q 920 873 804 968 l 921 873 q 1026 964 1014 957 q 1039 966 1033 966 q 1064 926 1064 966 l 1064 627 q 1056 598 1064 606 q 1031 591 1048 591 l 1028 591 q 997 599 1006 591 q 988 620 989 607 q 979 663 987 632 q 953 729 971 694 q 920 779 939 754 q 868 834 901 804 q 785 883 835 864 q 677 901 736 901 q 376 777 476 901 q 300 478 300 680 q 330 261 300 352 q 446 114 361 171 q 679 52 538 52 q 897 124 806 52 q 996 302 987 197 q 1010 339 1000 333 q 1031 343 1018 343 q 1064 314 1064 343 q 1045 221 1064 269 q 988 126 1026 174 q 883 42 950 79 q 730 -8 817 5 l 730 -41 q 864 -151 864 -65 q 765 -252 864 -227 q 440 -277 665 -277 l 440 -227 l 453 -227 q 643 -211 582 -227 q 704 -154 704 -195 q 572 -83 704 -85 l 572 -11 q 476 3 524 -7 q 370 39 429 14 q 263 101 311 65 q 172 197 215 138 q 107 334 129 257 q 87 476 87 397 z "},"È":{"ha":1048,"x_min":54,"x_max":1004,"o":"m 54 0 l 54 65 l 204 65 l 204 879 l 54 879 l 54 945 l 917 945 l 960 610 l 895 610 q 879 704 888 667 q 850 777 869 741 q 802 833 831 812 q 725 867 772 854 q 612 879 677 879 l 401 879 l 401 522 l 478 522 q 598 560 571 522 q 625 685 625 597 l 690 685 l 690 294 l 625 294 q 598 419 625 382 q 478 457 571 457 l 401 457 l 401 65 l 612 65 q 723 74 675 65 q 804 105 771 83 q 861 151 838 126 q 899 215 884 175 q 922 290 914 254 q 939 380 930 326 l 1004 380 l 940 0 l 54 0 m 367 1128 q 390 1188 367 1161 q 444 1215 412 1215 l 446 1215 q 480 1206 464 1215 q 581 1145 497 1198 q 682 1081 640 1107 l 660 1019 q 448 1050 637 1021 q 367 1128 367 1061 z "},"É":{"ha":1048,"x_min":54,"x_max":1004,"o":"m 54 0 l 54 65 l 204 65 l 204 879 l 54 879 l 54 945 l 917 945 l 960 610 l 895 610 q 879 704 888 667 q 850 777 869 741 q 802 833 831 812 q 725 867 772 854 q 612 879 677 879 l 401 879 l 401 522 l 478 522 q 598 560 571 522 q 625 685 625 597 l 690 685 l 690 294 l 625 294 q 598 419 625 382 q 478 457 571 457 l 401 457 l 401 65 l 612 65 q 723 74 675 65 q 804 105 771 83 q 861 151 838 126 q 899 215 884 175 q 922 290 914 254 q 939 380 930 326 l 1004 380 l 940 0 l 54 0 m 460 1081 q 669 1211 657 1206 q 696 1215 682 1215 l 697 1215 q 752 1188 729 1215 q 775 1128 775 1162 q 773 1106 775 1117 q 765 1089 771 1096 q 755 1076 760 1082 q 741 1065 751 1069 q 726 1059 730 1061 q 708 1053 722 1056 q 692 1050 694 1050 q 673 1046 689 1049 l 659 1045 q 482 1019 608 1037 l 460 1081 z "},"Ê":{"ha":1048,"x_min":54,"x_max":1004,"o":"m 54 0 l 54 65 l 204 65 l 204 879 l 54 879 l 54 945 l 917 945 l 960 610 l 895 610 q 879 704 888 667 q 850 777 869 741 q 802 833 831 812 q 725 867 772 854 q 612 879 677 879 l 401 879 l 401 522 l 478 522 q 598 560 571 522 q 625 685 625 597 l 690 685 l 690 294 l 625 294 q 598 419 625 382 q 478 457 571 457 l 401 457 l 401 65 l 612 65 q 723 74 675 65 q 804 105 771 83 q 861 151 838 126 q 899 215 884 175 q 922 290 914 254 q 939 380 930 326 l 1004 380 l 940 0 l 54 0 m 319 1076 l 538 1250 l 539 1250 l 755 1076 l 718 1022 l 539 1135 l 538 1135 l 357 1022 l 319 1076 z "},"Ë":{"ha":1048,"x_min":54,"x_max":1004,"o":"m 54 0 l 54 65 l 204 65 l 204 879 l 54 879 l 54 945 l 917 945 l 960 610 l 895 610 q 879 704 888 667 q 850 777 869 741 q 802 833 831 812 q 725 867 772 854 q 612 879 677 879 l 401 879 l 401 522 l 478 522 q 598 560 571 522 q 625 685 625 597 l 690 685 l 690 294 l 625 294 q 598 419 625 382 q 478 457 571 457 l 401 457 l 401 65 l 612 65 q 723 74 675 65 q 804 105 771 83 q 861 151 838 126 q 899 215 884 175 q 922 290 914 254 q 939 380 930 326 l 1004 380 l 940 0 l 54 0 m 275 1133 q 308 1211 275 1181 q 382 1242 340 1242 q 457 1211 425 1242 q 490 1133 490 1179 q 460 1057 490 1088 q 383 1025 429 1025 q 308 1056 340 1025 q 275 1133 275 1087 m 585 1133 q 616 1209 585 1176 q 693 1242 647 1242 q 769 1211 736 1242 q 802 1133 802 1179 q 768 1055 802 1086 q 693 1025 734 1025 q 617 1056 650 1025 q 585 1133 585 1087 z "},"Ì":{"ha":605,"x_min":46,"x_max":559,"o":"m 46 0 l 46 65 l 204 65 l 204 888 l 46 888 l 46 953 q 303 949 103 949 q 559 953 503 949 l 559 888 l 401 888 l 401 65 l 559 65 l 559 0 q 303 4 503 4 q 46 0 103 4 m 110 1128 q 133 1188 110 1161 q 187 1215 155 1215 q 232 1201 205 1215 q 346 1131 258 1187 q 424 1080 393 1100 l 401 1018 q 350 1026 374 1022 q 284 1036 326 1029 q 191 1051 241 1043 q 110 1128 110 1067 z "},"Í":{"ha":605,"x_min":46,"x_max":559,"o":"m 46 0 l 46 65 l 204 65 l 204 888 l 46 888 l 46 953 q 303 949 103 949 q 559 953 503 949 l 559 888 l 401 888 l 401 65 l 559 65 l 559 0 q 303 4 503 4 q 46 0 103 4 m 150 1080 q 359 1211 347 1205 q 386 1215 372 1215 q 441 1188 418 1215 q 464 1128 464 1161 q 460 1104 464 1116 q 453 1085 457 1093 q 439 1072 449 1078 q 424 1063 429 1065 q 404 1056 418 1060 q 385 1051 390 1053 q 365 1048 380 1050 q 347 1046 349 1046 q 172 1018 231 1026 l 150 1080 z "},"Î":{"ha":605,"x_min":46,"x_max":559,"o":"m 46 0 l 46 65 l 204 65 l 204 888 l 46 888 l 46 953 q 303 949 103 949 q 559 953 503 949 l 559 888 l 401 888 l 401 65 l 559 65 l 559 0 q 303 4 503 4 q 46 0 103 4 m 85 1076 l 303 1250 l 521 1076 l 482 1022 l 303 1135 l 124 1022 l 85 1076 z "},"Ï":{"ha":605,"x_min":39,"x_max":566,"o":"m 39 1133 q 70 1208 39 1175 q 147 1242 102 1242 q 223 1211 190 1242 q 256 1133 256 1179 q 224 1058 256 1092 q 147 1025 193 1025 q 72 1056 104 1025 q 39 1133 39 1087 m 46 0 l 46 65 l 204 65 l 204 888 l 46 888 l 46 953 q 303 949 103 949 q 559 953 503 949 l 559 888 l 401 888 l 401 65 l 559 65 l 559 0 q 303 4 503 4 q 46 0 103 4 m 349 1133 q 380 1207 349 1175 q 457 1240 411 1240 q 533 1209 500 1240 q 566 1132 566 1178 q 534 1058 566 1090 q 457 1025 503 1025 q 379 1058 410 1025 q 349 1133 349 1090 z "},"Ð":{"ha":1225,"x_min":54,"x_max":1136,"o":"m 54 0 l 54 66 l 204 66 l 204 435 l 93 435 q 54 468 54 435 q 93 500 54 500 l 204 500 l 204 886 l 54 886 l 54 953 l 616 953 q 1000 823 868 953 q 1136 469 1137 691 q 1017 142 1136 265 q 708 3 899 20 q 616 0 677 0 l 54 0 m 395 66 l 578 66 q 860 170 772 66 q 930 441 930 254 l 930 489 q 929 562 930 530 q 919 637 928 593 q 898 713 911 681 q 859 779 885 745 q 795 836 832 814 q 703 872 758 857 q 576 886 647 886 l 395 886 l 395 500 l 631 500 q 672 467 672 500 q 631 435 672 435 l 395 435 l 395 66 z "},"Ñ":{"ha":1250,"x_min":54,"x_max":1194,"o":"m 54 0 l 54 65 l 89 65 q 164 69 130 65 q 199 77 193 72 q 204 106 204 82 l 204 888 l 54 888 l 54 953 l 372 953 q 400 950 393 953 q 418 935 407 947 l 971 285 l 971 847 q 965 876 971 871 q 929 884 960 880 q 856 888 892 888 l 821 888 l 821 953 q 1008 949 878 949 q 1194 953 1142 949 l 1194 888 l 1160 888 q 1084 884 1118 888 q 1050 876 1055 881 q 1044 847 1044 871 l 1044 45 q 1039 8 1044 17 q 1007 0 1034 0 q 985 3 990 0 q 970 18 981 5 l 278 832 l 278 106 q 283 77 278 82 q 319 69 289 72 q 393 65 357 65 l 428 65 l 428 0 q 240 4 371 4 q 54 0 107 4 m 314 1128 q 337 1152 321 1135 q 360 1176 354 1169 q 381 1195 367 1182 q 401 1212 395 1207 q 421 1224 408 1217 q 445 1235 435 1232 q 470 1240 456 1238 q 501 1242 485 1242 q 639 1218 547 1242 q 778 1194 730 1194 q 900 1242 847 1194 l 935 1206 q 908 1178 926 1198 q 882 1152 889 1158 q 860 1132 875 1145 q 835 1114 844 1118 q 811 1103 825 1109 q 781 1094 796 1096 q 747 1092 765 1092 q 610 1115 700 1092 q 472 1139 519 1139 q 350 1092 406 1139 l 314 1128 z "},"Ò":{"ha":1198,"x_min":89,"x_max":1109,"o":"m 89 471 q 227 830 89 693 q 600 968 366 968 q 970 832 831 968 q 1109 471 1109 696 q 972 119 1109 254 q 599 -16 835 -16 q 227 118 366 -16 q 89 471 89 252 m 301 492 q 358 187 301 294 q 464 78 398 113 q 599 43 530 43 q 833 175 751 43 q 897 492 897 281 q 839 782 897 684 q 734 880 799 847 q 599 913 669 913 q 470 883 532 913 q 367 793 407 852 q 301 492 301 692 m 428 1128 q 451 1188 428 1161 q 505 1215 473 1215 q 545 1204 524 1215 q 656 1136 566 1193 q 743 1080 709 1103 l 720 1018 q 628 1032 686 1022 q 510 1051 570 1042 q 428 1128 428 1063 z "},"Ó":{"ha":1198,"x_min":89,"x_max":1109,"o":"m 89 471 q 227 830 89 693 q 600 968 366 968 q 970 832 831 968 q 1109 471 1109 696 q 972 119 1109 254 q 599 -16 835 -16 q 227 118 366 -16 q 89 471 89 252 m 301 492 q 358 187 301 294 q 464 78 398 113 q 599 43 530 43 q 833 175 751 43 q 897 492 897 281 q 839 782 897 684 q 734 880 799 847 q 599 913 669 913 q 470 883 532 913 q 367 793 407 852 q 301 492 301 692 m 454 1081 q 664 1211 652 1206 q 690 1215 676 1215 l 692 1215 q 747 1188 724 1215 q 770 1128 770 1162 q 768 1106 770 1117 q 760 1089 766 1096 q 750 1076 754 1082 q 735 1065 746 1069 q 721 1059 725 1061 q 703 1053 717 1056 q 686 1050 689 1050 q 668 1046 684 1049 l 653 1045 q 477 1019 603 1037 l 454 1081 z "},"Ô":{"ha":1198,"x_min":89,"x_max":1109,"o":"m 89 471 q 227 830 89 693 q 600 968 366 968 q 970 832 831 968 q 1109 471 1109 696 q 972 119 1109 254 q 599 -16 835 -16 q 227 118 366 -16 q 89 471 89 252 m 301 492 q 358 187 301 294 q 464 78 398 113 q 599 43 530 43 q 833 175 751 43 q 897 492 897 281 q 839 782 897 684 q 734 880 799 847 q 599 913 669 913 q 470 883 532 913 q 367 793 407 852 q 301 492 301 692 m 380 1076 l 599 1250 l 600 1250 l 817 1076 l 779 1022 l 600 1135 l 599 1135 l 418 1022 l 380 1076 z "},"Õ":{"ha":1198,"x_min":89,"x_max":1109,"o":"m 89 471 q 227 830 89 693 q 600 968 366 968 q 970 832 831 968 q 1109 471 1109 696 q 972 119 1109 254 q 599 -16 835 -16 q 227 118 366 -16 q 89 471 89 252 m 289 1128 q 312 1152 296 1135 q 335 1176 329 1169 q 356 1195 342 1182 q 376 1212 370 1207 q 396 1224 383 1217 q 420 1235 410 1232 q 445 1240 431 1238 q 476 1242 460 1242 q 614 1218 522 1242 q 751 1194 705 1194 q 873 1242 821 1194 l 908 1206 q 881 1178 900 1198 q 856 1152 863 1158 q 833 1132 848 1145 q 808 1114 818 1118 q 784 1103 799 1109 q 754 1094 770 1096 q 721 1092 739 1092 q 583 1115 675 1092 q 446 1139 492 1139 q 323 1092 379 1139 l 289 1128 m 301 492 q 358 187 301 294 q 464 78 398 113 q 599 43 530 43 q 833 175 751 43 q 897 492 897 281 q 839 782 897 684 q 734 880 799 847 q 599 913 669 913 q 470 883 532 913 q 367 793 407 852 q 301 492 301 692 z "},"Ö":{"ha":1198,"x_min":89,"x_max":1109,"o":"m 89 471 q 227 830 89 693 q 600 968 366 968 q 970 832 831 968 q 1109 471 1109 696 q 972 119 1109 254 q 599 -16 835 -16 q 227 118 366 -16 q 89 471 89 252 m 301 492 q 358 187 301 294 q 464 78 398 113 q 599 43 530 43 q 833 175 751 43 q 897 492 897 281 q 839 782 897 684 q 734 880 799 847 q 599 913 669 913 q 470 883 532 913 q 367 793 407 852 q 301 492 301 692 m 336 1133 q 368 1210 336 1178 q 443 1242 399 1242 q 518 1211 486 1242 q 551 1133 551 1179 q 518 1055 551 1086 q 443 1025 485 1025 q 368 1056 400 1025 q 336 1133 336 1087 m 646 1133 q 676 1209 646 1176 q 753 1242 707 1242 q 828 1211 795 1242 q 861 1134 861 1179 q 829 1056 861 1088 q 754 1025 798 1025 q 679 1056 711 1025 q 646 1133 646 1087 z "},"Ø":{"ha":1241,"x_min":87,"x_max":1152,"o":"m 87 472 q 233 832 87 696 q 618 968 378 968 q 892 911 755 968 l 979 1036 l 981 1036 l 1025 1004 l 942 882 q 1097 711 1042 819 q 1152 471 1152 603 q 1007 118 1152 251 q 621 -16 863 -16 q 347 40 483 -16 l 261 -83 l 214 -52 l 297 68 q 181 171 228 111 q 117 294 135 232 q 93 396 98 357 q 87 472 87 435 m 285 469 q 302 271 285 336 q 357 151 319 205 l 842 840 l 842 842 q 619 917 751 917 q 455 880 528 917 q 342 775 382 843 q 285 469 285 680 m 396 110 q 619 35 493 35 q 899 174 812 35 q 954 453 954 264 l 954 472 q 937 679 954 612 q 882 799 920 746 l 396 110 z "},"Ù":{"ha":1227,"x_min":54,"x_max":1174,"o":"m 54 888 l 54 953 q 303 949 107 949 q 551 953 498 949 l 551 888 l 401 888 l 401 310 q 404 252 401 275 q 419 186 406 228 q 456 118 432 144 q 529 71 479 92 q 647 50 578 50 q 759 65 707 50 q 855 110 811 79 q 924 195 899 140 q 950 323 950 250 l 950 847 q 944 876 950 871 q 908 884 939 880 q 835 888 871 888 l 800 888 l 800 953 q 987 949 857 949 q 1174 953 1121 949 l 1174 888 l 1139 888 q 1064 884 1097 888 q 1029 876 1035 881 q 1023 847 1023 871 l 1023 318 q 926 82 1023 179 q 642 -16 828 -16 q 319 80 435 -16 q 204 321 204 175 l 204 888 l 54 888 m 443 1128 q 466 1188 443 1161 q 521 1215 489 1215 q 560 1204 539 1215 q 671 1136 581 1193 q 758 1080 724 1103 l 734 1018 q 643 1032 701 1022 q 525 1051 585 1042 q 443 1128 443 1063 z "},"Ú":{"ha":1227,"x_min":54,"x_max":1174,"o":"m 54 888 l 54 953 q 303 949 107 949 q 551 953 498 949 l 551 888 l 401 888 l 401 310 q 404 252 401 275 q 419 186 406 228 q 456 118 432 144 q 529 71 479 92 q 647 50 578 50 q 759 65 707 50 q 855 110 811 79 q 924 195 899 140 q 950 323 950 250 l 950 847 q 944 876 950 871 q 908 884 939 880 q 835 888 871 888 l 800 888 l 800 953 q 987 949 857 949 q 1174 953 1121 949 l 1174 888 l 1139 888 q 1064 884 1097 888 q 1029 876 1035 881 q 1023 847 1023 871 l 1023 318 q 926 82 1023 179 q 642 -16 828 -16 q 319 80 435 -16 q 204 321 204 175 l 204 888 l 54 888 m 536 1081 q 745 1211 733 1206 q 772 1215 758 1215 l 773 1215 q 828 1188 805 1215 q 851 1128 851 1162 q 849 1106 851 1117 q 841 1089 847 1096 q 831 1076 836 1082 q 817 1065 827 1069 q 802 1059 806 1061 q 784 1053 798 1056 q 768 1050 770 1050 q 749 1046 765 1049 l 734 1045 q 558 1019 684 1037 l 536 1081 z "},"Û":{"ha":1227,"x_min":54,"x_max":1174,"o":"m 54 888 l 54 953 q 303 949 107 949 q 551 953 498 949 l 551 888 l 401 888 l 401 310 q 404 252 401 275 q 419 186 406 228 q 456 118 432 144 q 529 71 479 92 q 647 50 578 50 q 759 65 707 50 q 855 110 811 79 q 924 195 899 140 q 950 323 950 250 l 950 847 q 944 876 950 871 q 908 884 939 880 q 835 888 871 888 l 800 888 l 800 953 q 987 949 857 949 q 1174 953 1121 949 l 1174 888 l 1139 888 q 1064 884 1097 888 q 1029 876 1035 881 q 1023 847 1023 871 l 1023 318 q 926 82 1023 179 q 642 -16 828 -16 q 319 80 435 -16 q 204 321 204 175 l 204 888 l 54 888 m 427 1076 l 644 1250 l 646 1250 l 864 1076 l 825 1022 l 646 1135 l 644 1135 l 464 1022 l 427 1076 z "},"Ü":{"ha":1227,"x_min":54,"x_max":1174,"o":"m 54 888 l 54 953 q 303 949 107 949 q 551 953 498 949 l 551 888 l 401 888 l 401 310 q 404 252 401 275 q 419 186 406 228 q 456 118 432 144 q 529 71 479 92 q 647 50 578 50 q 759 65 707 50 q 855 110 811 79 q 924 195 899 140 q 950 323 950 250 l 950 847 q 944 876 950 871 q 908 884 939 880 q 835 888 871 888 l 800 888 l 800 953 q 987 949 857 949 q 1174 953 1121 949 l 1174 888 l 1139 888 q 1064 884 1097 888 q 1029 876 1035 881 q 1023 847 1023 871 l 1023 318 q 926 82 1023 179 q 642 -16 828 -16 q 319 80 435 -16 q 204 321 204 175 l 204 888 l 54 888 m 351 1133 q 382 1210 351 1178 q 458 1242 414 1242 q 534 1211 501 1242 q 567 1133 567 1179 q 533 1055 567 1086 q 458 1025 500 1025 q 384 1056 416 1025 q 351 1133 351 1087 m 661 1133 q 692 1209 661 1176 q 768 1242 722 1242 q 844 1211 811 1242 q 876 1133 876 1179 q 845 1057 876 1088 q 770 1025 814 1025 q 694 1056 727 1025 q 661 1133 661 1087 z "},"Ý":{"ha":1206,"x_min":26,"x_max":1179,"o":"m 26 888 l 26 953 q 256 949 75 949 q 510 953 453 949 l 510 888 l 392 888 l 673 475 l 933 857 q 943 873 936 861 q 838 888 907 887 l 838 953 q 1021 949 889 949 q 1064 949 1038 949 q 1125 951 1090 950 q 1179 953 1160 953 l 1179 888 l 1150 888 q 1078 884 1114 888 q 1029 868 1039 878 q 1023 860 1027 864 l 697 380 l 697 65 l 848 65 l 848 0 q 603 4 795 4 q 358 0 408 4 l 358 65 l 509 65 l 509 380 l 163 888 l 26 888 m 525 1080 q 739 1213 722 1206 q 762 1215 749 1215 q 818 1187 795 1215 q 840 1128 840 1160 q 837 1104 840 1116 q 828 1085 833 1093 q 814 1072 823 1078 q 798 1062 804 1065 q 778 1056 791 1059 q 760 1051 765 1053 q 740 1048 754 1050 q 722 1046 725 1046 q 547 1018 606 1026 l 525 1080 z "},"Þ":{"ha":1002,"x_min":54,"x_max":914,"o":"m 54 0 l 54 66 l 204 66 l 204 886 l 54 886 l 54 953 q 304 949 179 949 l 310 949 q 538 953 407 949 l 538 886 l 387 886 l 387 785 l 579 785 q 741 759 672 785 q 845 691 810 733 q 897 605 880 648 q 914 515 914 561 q 838 333 914 404 q 636 250 761 262 q 557 248 610 248 l 387 248 l 387 66 l 538 66 l 538 0 q 289 4 414 4 q 54 0 172 4 m 387 314 l 521 314 q 666 373 624 314 q 708 517 708 432 q 671 658 708 597 q 547 718 635 718 l 387 718 l 387 314 z "},"ß":{"ha":829,"x_min":49,"x_max":775,"o":"m 49 0 l 49 66 l 146 66 l 146 551 l 49 551 l 49 618 l 146 618 l 146 739 q 145 754 146 745 q 144 768 144 764 q 416 972 144 972 q 650 772 650 972 q 641 672 650 713 q 615 615 632 632 q 586 592 599 599 q 552 583 572 585 q 528 579 532 581 q 484 500 483 566 q 570 404 484 416 q 622 394 604 399 q 675 369 639 390 q 736 315 711 349 q 775 195 774 261 q 727 53 775 113 q 566 -7 679 -7 q 467 22 511 -7 q 408 -7 425 -7 q 385 25 385 -7 l 385 184 q 392 211 386 203 q 418 218 399 218 q 443 211 436 218 q 453 186 450 203 q 491 77 467 111 q 566 43 515 43 q 651 73 627 43 q 676 146 676 103 q 614 241 676 211 q 549 257 600 248 q 468 286 498 267 q 385 449 385 339 q 424 575 385 528 q 545 628 464 623 q 566 636 560 629 q 578 673 572 643 q 583 764 583 703 q 580 818 583 797 q 563 866 576 839 q 512 907 549 893 q 421 921 476 921 q 351 909 378 921 q 312 872 323 897 q 298 828 301 847 q 296 775 296 808 l 296 0 l 241 4 l 49 0 z "},"à":{"ha":776,"x_min":45,"x_max":775,"o":"m 45 150 q 496 368 45 349 l 496 415 q 343 579 496 579 q 243 570 289 579 q 273 501 273 549 q 247 437 273 460 q 186 414 221 414 q 127 437 154 414 q 100 501 100 460 q 349 629 100 629 q 576 571 498 629 q 654 415 654 513 l 654 117 q 657 89 654 97 q 679 73 660 81 q 739 65 699 65 q 757 64 751 65 q 769 56 762 62 q 775 33 775 49 q 765 5 775 11 q 730 0 755 0 l 664 0 q 581 10 612 0 q 537 39 549 20 q 522 72 525 58 q 519 107 519 85 q 313 -8 460 -8 q 229 -2 271 -8 q 143 20 187 4 q 72 69 98 36 q 45 150 45 102 m 207 151 q 244 73 207 105 q 334 41 281 41 q 375 47 352 41 q 427 67 397 53 q 476 114 457 81 q 496 193 496 147 l 496 325 q 438 320 465 323 q 365 305 411 317 q 288 276 319 293 q 231 227 256 260 q 207 151 207 194 m 244 832 q 269 892 244 865 q 326 920 293 920 q 337 919 332 920 q 346 918 342 918 q 355 913 350 917 q 365 907 361 909 q 378 898 370 904 q 392 886 386 892 q 411 869 399 880 q 433 849 422 859 q 461 822 443 839 q 494 791 479 806 l 549 742 l 514 686 q 428 715 482 697 q 274 775 303 757 q 244 832 244 793 z "},"á":{"ha":776,"x_min":45,"x_max":775,"o":"m 45 150 q 496 368 45 349 l 496 415 q 343 579 496 579 q 243 570 289 579 q 273 501 273 549 q 247 437 273 460 q 186 414 221 414 q 127 437 154 414 q 100 501 100 460 q 349 629 100 629 q 576 571 498 629 q 654 415 654 513 l 654 117 q 657 89 654 97 q 679 73 660 81 q 739 65 699 65 q 757 64 751 65 q 769 56 762 62 q 775 33 775 49 q 765 5 775 11 q 730 0 755 0 l 664 0 q 581 10 612 0 q 537 39 549 20 q 522 72 525 58 q 519 107 519 85 q 313 -8 460 -8 q 229 -2 271 -8 q 143 20 187 4 q 72 69 98 36 q 45 150 45 102 m 207 151 q 244 73 207 105 q 334 41 281 41 q 375 47 352 41 q 427 67 397 53 q 476 114 457 81 q 496 193 496 147 l 496 325 q 438 320 465 323 q 365 305 411 317 q 288 276 319 293 q 231 227 256 260 q 207 151 207 194 m 248 743 q 428 905 412 895 q 469 920 448 919 q 527 892 503 920 q 551 832 551 865 q 523 776 551 793 q 370 717 494 758 q 282 686 315 697 l 248 743 z "},"â":{"ha":776,"x_min":45,"x_max":775,"o":"m 45 150 q 496 368 45 349 l 496 415 q 343 579 496 579 q 243 570 289 579 q 273 501 273 549 q 247 437 273 460 q 186 414 221 414 q 127 437 154 414 q 100 501 100 460 q 349 629 100 629 q 576 571 498 629 q 654 415 654 513 l 654 117 q 657 89 654 97 q 679 73 660 81 q 739 65 699 65 q 757 64 751 65 q 769 56 762 62 q 775 33 775 49 q 765 5 775 11 q 730 0 755 0 l 664 0 q 581 10 612 0 q 537 39 549 20 q 522 72 525 58 q 519 107 519 85 q 313 -8 460 -8 q 229 -2 271 -8 q 143 20 187 4 q 72 69 98 36 q 45 150 45 102 m 133 708 l 354 914 l 355 914 l 574 708 l 532 659 l 355 800 l 354 800 l 176 659 l 133 708 m 207 151 q 244 73 207 105 q 334 41 281 41 q 375 47 352 41 q 427 67 397 53 q 476 114 457 81 q 496 193 496 147 l 496 325 q 438 320 465 323 q 365 305 411 317 q 288 276 319 293 q 231 227 256 260 q 207 151 207 194 z "},"ã":{"ha":776,"x_min":45,"x_max":775,"o":"m 45 150 q 496 368 45 349 l 496 415 q 343 579 496 579 q 243 570 289 579 q 273 501 273 549 q 247 437 273 460 q 186 414 221 414 q 127 437 154 414 q 100 501 100 460 q 349 629 100 629 q 576 571 498 629 q 654 415 654 513 l 654 117 q 657 89 654 97 q 679 73 660 81 q 739 65 699 65 q 757 64 751 65 q 769 56 762 62 q 775 33 775 49 q 765 5 775 11 q 730 0 755 0 l 664 0 q 581 10 612 0 q 537 39 549 20 q 522 72 525 58 q 519 107 519 85 q 313 -8 460 -8 q 229 -2 271 -8 q 143 20 187 4 q 72 69 98 36 q 45 150 45 102 m 83 762 q 113 795 90 769 q 141 826 136 821 q 163 846 146 831 q 191 865 180 861 q 217 873 201 868 q 251 878 233 878 q 362 854 290 878 q 473 831 435 831 q 528 841 507 831 q 578 878 549 851 l 615 843 q 585 811 607 835 q 557 781 564 787 q 534 760 551 775 q 506 741 517 745 q 480 732 496 737 q 446 728 464 728 q 335 751 407 728 q 224 775 264 775 q 170 765 191 775 q 119 728 149 754 l 83 762 m 207 151 q 244 73 207 105 q 334 41 281 41 q 375 47 352 41 q 427 67 397 53 q 476 114 457 81 q 496 193 496 147 l 496 325 q 438 320 465 323 q 365 305 411 317 q 288 276 319 293 q 231 227 256 260 q 207 151 207 194 z "},"ä":{"ha":776,"x_min":45,"x_max":775,"o":"m 45 150 q 496 368 45 349 l 496 415 q 343 579 496 579 q 243 570 289 579 q 273 501 273 549 q 247 437 273 460 q 186 414 221 414 q 127 437 154 414 q 100 501 100 460 q 349 629 100 629 q 576 571 498 629 q 654 415 654 513 l 654 117 q 657 89 654 97 q 679 73 660 81 q 739 65 699 65 q 757 64 751 65 q 769 56 762 62 q 775 33 775 49 q 765 5 775 11 q 730 0 755 0 l 664 0 q 581 10 612 0 q 537 39 549 20 q 522 72 525 58 q 519 107 519 85 q 313 -8 460 -8 q 229 -2 271 -8 q 143 20 187 4 q 72 69 98 36 q 45 150 45 102 m 135 844 q 166 919 135 886 q 243 953 197 953 q 318 922 286 953 q 350 844 350 890 q 319 768 350 800 q 243 736 288 736 q 167 766 199 736 q 135 844 135 797 m 207 151 q 244 73 207 105 q 334 41 281 41 q 375 47 352 41 q 427 67 397 53 q 476 114 457 81 q 496 193 496 147 l 496 325 q 438 320 465 323 q 365 305 411 317 q 288 276 319 293 q 231 227 256 260 q 207 151 207 194 m 446 844 q 477 921 446 889 q 553 953 509 953 q 628 922 595 953 q 661 844 661 890 q 628 766 661 797 q 553 736 595 736 q 478 767 510 736 q 446 844 446 798 z "},"å":{"ha":776,"x_min":45,"x_max":775,"o":"m 45 150 q 496 368 45 349 l 496 415 q 343 579 496 579 q 243 570 289 579 q 273 501 273 549 q 247 437 273 460 q 186 414 221 414 q 127 437 154 414 q 100 501 100 460 q 349 629 100 629 q 576 571 498 629 q 654 415 654 513 l 654 117 q 657 89 654 97 q 679 73 660 81 q 739 65 699 65 q 757 64 751 65 q 769 56 762 62 q 775 33 775 49 q 765 5 775 11 q 730 0 755 0 l 664 0 q 581 10 612 0 q 537 39 549 20 q 522 72 525 58 q 519 107 519 85 q 313 -8 460 -8 q 229 -2 271 -8 q 143 20 187 4 q 72 69 98 36 q 45 150 45 102 m 226 714 q 207 733 226 714 q 187 797 187 751 q 227 881 187 843 q 354 918 267 918 q 480 881 441 918 q 519 797 519 843 q 480 714 519 751 q 351 676 440 676 q 226 714 265 676 m 207 151 q 244 73 207 105 q 334 41 281 41 q 375 47 352 41 q 427 67 397 53 q 476 114 457 81 q 496 193 496 147 l 496 325 q 438 320 465 323 q 365 305 411 317 q 288 276 319 293 q 231 227 256 260 q 207 151 207 194 m 254 798 q 262 757 254 772 q 285 735 269 742 q 314 726 301 728 q 350 725 328 725 q 390 726 375 725 q 421 735 404 728 q 445 757 437 742 q 453 798 453 772 q 431 853 453 838 q 357 869 410 869 q 280 856 305 869 q 254 798 254 842 z "},"æ":{"ha":1152,"x_min":52,"x_max":1108,"o":"m 52 143 q 70 208 52 178 q 133 270 87 239 q 271 321 178 301 q 497 345 364 342 l 497 403 q 450 543 497 501 q 347 578 412 578 q 243 570 293 578 q 272 501 272 541 q 247 439 272 464 q 186 415 222 415 q 125 438 151 415 q 98 503 98 461 q 347 629 100 629 q 600 551 511 629 q 832 629 690 629 q 968 603 911 629 q 1054 532 1025 576 q 1096 441 1083 488 q 1108 343 1108 395 q 1102 315 1108 325 q 1088 304 1096 306 q 1065 302 1080 302 l 656 302 q 863 49 663 48 q 969 78 922 49 q 1038 155 1017 107 q 1040 160 1039 157 q 1042 166 1042 164 q 1044 171 1043 168 q 1047 175 1046 174 q 1050 179 1048 176 q 1055 182 1053 182 q 1061 184 1057 183 q 1067 186 1064 186 q 1075 187 1071 187 q 1107 161 1107 187 q 1092 120 1107 146 q 1050 64 1078 94 q 969 14 1022 35 q 848 -7 916 -7 q 593 82 694 -7 q 315 -7 508 -7 q 194 4 249 -7 q 95 51 139 16 q 52 143 52 86 m 215 144 q 250 71 215 100 q 336 43 285 43 q 468 82 412 43 q 524 172 524 121 q 512 212 524 179 q 497 298 501 245 q 278 245 347 290 q 215 144 215 205 m 656 349 l 977 349 q 969 425 975 393 q 950 495 964 456 q 905 556 936 534 q 829 578 875 578 q 697 511 745 578 q 656 349 659 456 z "},"ç":{"ha":709,"x_min":53,"x_max":663,"o":"m 53 309 q 71 419 53 366 q 128 521 89 472 q 238 600 167 570 q 404 629 309 629 q 647 501 647 629 q 622 439 647 463 q 560 415 596 415 q 498 439 524 415 q 473 500 473 463 q 500 567 473 534 q 407 572 464 572 q 241 439 276 572 q 231 301 231 394 q 249 171 231 224 q 299 93 268 118 q 361 58 330 68 q 425 49 392 49 q 527 77 482 49 q 595 157 572 106 q 629 182 604 182 q 663 161 663 182 q 614 73 663 130 q 478 0 566 17 l 478 -41 q 611 -153 612 -65 q 594 -203 611 -182 q 545 -238 578 -225 q 478 -260 511 -252 q 391 -272 444 -268 q 302 -276 338 -275 q 211 -277 267 -277 l 186 -277 l 186 -227 l 224 -227 q 452 -154 452 -227 q 319 -83 452 -85 l 319 -1 q 290 4 309 0 q 226 28 272 8 q 146 79 180 49 q 82 170 111 110 q 53 309 53 231 z "},"è":{"ha":732,"x_min":45,"x_max":686,"o":"m 45 313 q 136 539 45 449 q 387 629 227 629 q 608 554 530 629 q 686 340 686 476 q 677 308 686 314 q 642 302 668 302 l 222 302 q 419 47 222 47 q 542 78 487 47 q 618 158 596 109 q 630 182 625 176 q 653 187 636 187 q 686 163 686 187 q 679 136 686 153 q 651 92 671 118 q 601 44 631 66 q 520 7 571 22 q 407 -8 469 -8 q 143 81 241 -8 q 45 313 45 171 m 222 349 l 554 349 q 387 579 547 579 q 256 507 302 579 q 222 349 228 464 m 256 832 q 279 892 256 865 q 336 920 302 918 l 338 920 q 348 919 343 920 q 357 918 353 918 q 367 913 361 917 q 376 907 372 909 q 389 899 380 905 q 404 886 397 892 q 421 869 410 880 q 443 849 433 859 q 471 824 453 840 q 504 793 489 807 q 558 742 540 760 l 525 686 q 297 768 318 757 q 256 832 258 798 z "},"é":{"ha":732,"x_min":45,"x_max":686,"o":"m 45 313 q 136 539 45 449 q 387 629 227 629 q 608 554 530 629 q 686 340 686 476 q 677 308 686 314 q 642 302 668 302 l 222 302 q 419 47 222 47 q 542 78 487 47 q 618 158 596 109 q 630 182 625 176 q 653 187 636 187 q 686 163 686 187 q 679 136 686 153 q 651 92 671 118 q 601 44 631 66 q 520 7 571 22 q 407 -8 469 -8 q 143 81 241 -8 q 45 313 45 171 m 214 743 q 392 904 375 893 q 436 920 414 920 q 493 892 469 920 q 517 832 517 865 q 486 775 517 793 q 330 714 456 757 q 249 686 279 697 l 214 743 m 222 349 l 554 349 q 387 579 547 579 q 256 507 302 579 q 222 349 228 464 z "},"ê":{"ha":732,"x_min":45,"x_max":686,"o":"m 45 313 q 136 539 45 449 q 387 629 227 629 q 608 554 530 629 q 686 340 686 476 q 677 308 686 314 q 642 302 668 302 l 222 302 q 419 47 222 47 q 542 78 487 47 q 618 158 596 109 q 630 182 625 176 q 653 187 636 187 q 686 163 686 187 q 679 136 686 153 q 651 92 671 118 q 601 44 631 66 q 520 7 571 22 q 407 -8 469 -8 q 143 81 241 -8 q 45 313 45 171 m 143 708 l 364 914 l 366 914 l 585 708 l 543 660 l 542 660 l 366 800 l 364 800 l 187 660 l 186 660 l 143 708 m 222 349 l 554 349 q 387 579 547 579 q 256 507 302 579 q 222 349 228 464 z "},"ë":{"ha":732,"x_min":45,"x_max":686,"o":"m 45 313 q 136 539 45 449 q 387 629 227 629 q 608 554 530 629 q 686 340 686 476 q 677 308 686 314 q 642 302 668 302 l 222 302 q 419 47 222 47 q 542 78 487 47 q 618 158 596 109 q 630 182 625 176 q 653 187 636 187 q 686 163 686 187 q 679 136 686 153 q 651 92 671 118 q 601 44 631 66 q 520 7 571 22 q 407 -8 469 -8 q 143 81 241 -8 q 45 313 45 171 m 132 769 q 117 785 132 769 q 102 845 102 802 q 132 920 102 888 q 208 953 163 953 q 284 922 251 953 q 317 845 317 890 q 285 767 317 799 q 210 736 253 736 q 132 769 162 736 m 222 349 l 554 349 q 387 579 547 579 q 256 507 302 579 q 222 349 228 464 m 411 844 q 443 921 411 889 q 519 953 475 953 q 595 922 562 953 q 628 844 628 890 q 597 769 628 803 q 519 736 566 736 q 444 767 477 736 q 411 844 411 798 z "},"ì":{"ha":443,"x_min":-6,"x_max":397,"o":"m -6 832 q 18 892 -6 865 q 76 920 43 920 q 86 919 81 920 q 96 918 92 918 q 105 913 100 917 q 115 907 111 909 q 127 898 119 904 q 142 886 136 892 q 160 869 149 880 q 182 849 172 859 q 211 822 193 839 q 244 791 229 806 l 298 742 l 264 686 q 178 715 232 697 q 23 775 53 757 q -6 832 -6 793 m 65 0 l 65 65 l 161 65 l 161 494 q 148 541 161 533 q 69 549 134 549 l 69 614 l 311 625 l 311 65 l 397 65 l 397 0 q 235 4 248 4 q 65 0 194 4 z "},"í":{"ha":443,"x_min":65,"x_max":433,"o":"m 65 0 l 65 65 l 161 65 l 161 494 q 148 541 161 533 q 69 549 134 549 l 69 614 l 311 625 l 311 65 l 397 65 l 397 0 q 235 4 248 4 q 65 0 194 4 m 131 743 q 311 905 295 895 q 353 920 331 919 q 410 892 387 920 q 433 832 433 864 q 405 776 433 793 q 253 717 376 758 q 165 686 199 697 l 131 743 z "},"î":{"ha":443,"x_min":15,"x_max":456,"o":"m 15 708 l 236 914 l 237 914 l 456 708 l 414 659 l 237 800 l 236 800 l 58 659 l 15 708 m 65 0 l 65 65 l 161 65 l 161 494 q 148 541 161 533 q 69 549 134 549 l 69 614 l 311 625 l 311 65 l 397 65 l 397 0 q 235 4 248 4 q 65 0 194 4 z "},"ï":{"ha":532,"x_min":18,"x_max":545,"o":"m 18 844 q 50 919 18 886 q 126 953 81 953 q 201 922 169 953 q 233 844 233 890 q 202 768 233 800 q 126 736 171 736 q 50 766 82 736 q 18 844 18 797 m 110 0 l 110 66 l 205 66 l 205 498 q 191 538 205 529 q 126 547 176 547 l 114 547 l 114 614 l 357 625 l 357 66 l 443 66 l 443 0 q 290 4 357 4 l 285 4 q 110 0 197 4 m 329 844 q 360 921 329 889 q 436 953 392 953 q 512 922 479 953 q 545 844 545 890 q 511 766 545 797 q 436 736 478 736 q 361 767 393 736 q 329 844 329 798 z "},"ð":{"ha":798,"x_min":43,"x_max":753,"o":"m 43 304 q 143 543 43 456 q 392 629 243 629 q 546 571 475 629 q 397 789 501 689 l 396 789 q 268 721 288 721 q 252 733 258 721 q 243 754 245 744 q 255 773 243 765 q 347 828 268 782 q 150 909 240 895 q 115 932 115 915 q 189 965 115 965 q 319 948 257 965 q 416 914 380 930 q 457 897 452 897 q 522 929 468 897 q 586 961 576 961 q 606 950 597 961 q 615 929 615 940 q 612 918 615 922 q 587 897 610 913 q 515 857 564 882 q 611 771 574 812 q 753 408 753 616 l 753 328 q 720 163 753 232 q 633 59 688 94 q 520 8 578 24 q 397 -7 463 -7 q 139 79 236 -7 q 43 304 43 164 m 221 298 q 224 229 221 257 q 238 160 227 200 q 277 94 249 121 q 349 56 306 66 q 397 49 376 49 q 522 98 474 49 q 575 302 575 154 q 558 442 575 385 q 512 528 541 500 q 455 567 484 555 q 396 578 427 578 q 268 524 317 578 q 221 349 223 473 l 221 298 z "},"ñ":{"ha":886,"x_min":62,"x_max":854,"o":"m 62 0 l 62 65 l 158 65 l 158 494 q 143 541 158 533 q 62 549 129 549 l 62 614 l 301 625 l 301 475 q 545 625 378 625 q 705 578 652 625 q 758 425 758 532 l 758 65 l 854 65 l 854 0 q 679 4 738 4 q 504 0 621 4 l 504 65 l 600 65 l 600 440 q 581 545 600 515 q 524 575 561 575 q 382 517 447 575 q 317 355 317 460 l 317 65 l 412 65 l 412 0 q 237 4 296 4 q 62 0 179 4 m 193 762 q 223 795 200 769 q 251 826 245 821 q 273 846 256 831 q 301 865 290 861 q 327 873 311 868 q 361 878 343 878 q 472 854 399 878 q 583 831 545 831 q 637 841 616 831 q 688 878 659 851 l 725 843 q 695 811 717 835 q 667 781 673 787 q 644 760 661 775 q 616 741 627 745 q 590 732 606 737 q 555 728 574 728 q 445 751 517 728 q 334 775 374 775 q 280 765 301 775 q 229 728 258 754 l 193 762 z "},"ò":{"ha":798,"x_min":45,"x_max":753,"o":"m 45 302 q 138 537 45 446 q 399 629 232 629 q 659 537 564 629 q 753 302 753 446 q 660 80 753 168 q 399 -8 567 -8 q 138 80 231 -8 q 45 302 45 168 m 222 318 q 223 255 222 277 q 229 195 224 233 q 244 136 233 157 q 274 92 256 115 q 324 58 293 68 q 398 47 355 47 q 473 58 441 47 q 523 92 504 68 q 553 136 542 115 q 569 195 564 157 q 574 255 574 233 q 575 318 575 277 q 546 509 575 461 q 399 579 501 579 q 245 498 288 579 q 222 318 222 452 m 244 832 q 269 892 244 865 q 326 920 293 920 q 337 919 332 920 q 346 918 342 918 q 355 913 350 917 q 365 907 361 909 q 378 898 370 904 q 392 886 386 892 q 411 869 399 880 q 433 849 422 859 q 461 822 443 839 q 494 791 479 806 l 549 742 l 514 686 q 428 715 482 697 q 274 775 303 757 q 244 832 244 793 z "},"ó":{"ha":798,"x_min":45,"x_max":753,"o":"m 45 302 q 138 537 45 446 q 399 629 232 629 q 659 537 564 629 q 753 302 753 446 q 660 80 753 168 q 399 -8 567 -8 q 138 80 231 -8 q 45 302 45 168 m 222 318 q 223 255 222 277 q 229 195 224 233 q 244 136 233 157 q 274 92 256 115 q 324 58 293 68 q 398 47 355 47 q 473 58 441 47 q 523 92 504 68 q 553 136 542 115 q 569 195 564 157 q 574 255 574 233 q 575 318 575 277 q 546 509 575 461 q 399 579 501 579 q 245 498 288 579 q 222 318 222 452 m 248 743 q 428 905 412 895 q 469 920 448 919 q 527 892 503 920 q 551 832 551 865 q 523 776 551 793 q 370 717 494 758 q 282 686 315 697 l 248 743 z "},"ô":{"ha":798,"x_min":45,"x_max":753,"o":"m 45 302 q 138 537 45 446 q 399 629 232 629 q 659 537 564 629 q 753 302 753 446 q 660 80 753 168 q 399 -8 567 -8 q 138 80 231 -8 q 45 302 45 168 m 176 708 l 397 914 l 399 914 l 618 708 l 575 659 l 399 800 l 397 800 l 220 659 l 176 708 m 222 318 q 223 255 222 277 q 229 195 224 233 q 244 136 233 157 q 274 92 256 115 q 324 58 293 68 q 398 47 355 47 q 473 58 441 47 q 523 92 504 68 q 553 136 542 115 q 569 195 564 157 q 574 255 574 233 q 575 318 575 277 q 546 509 575 461 q 399 579 501 579 q 245 498 288 579 q 222 318 222 452 z "},"õ":{"ha":798,"x_min":45,"x_max":753,"o":"m 45 302 q 138 537 45 446 q 399 629 232 629 q 659 537 564 629 q 753 302 753 446 q 660 80 753 168 q 399 -8 567 -8 q 138 80 231 -8 q 45 302 45 168 m 132 762 q 162 795 139 769 q 190 826 184 821 q 212 846 195 831 q 240 865 229 861 q 266 873 250 868 q 300 878 282 878 q 411 854 338 878 q 522 831 484 831 q 576 841 555 831 q 627 878 597 851 l 664 843 q 634 811 656 835 q 606 781 612 787 q 583 760 600 775 q 555 741 566 745 q 529 732 545 737 q 494 728 513 728 q 384 751 456 728 q 273 775 313 775 q 219 765 240 775 q 168 728 197 754 l 132 762 m 222 318 q 223 255 222 277 q 229 195 224 233 q 244 136 233 157 q 274 92 256 115 q 324 58 293 68 q 398 47 355 47 q 473 58 441 47 q 523 92 504 68 q 553 136 542 115 q 569 195 564 157 q 574 255 574 233 q 575 318 575 277 q 546 509 575 461 q 399 579 501 579 q 245 498 288 579 q 222 318 222 452 z "},"ö":{"ha":798,"x_min":45,"x_max":753,"o":"m 45 302 q 138 537 45 446 q 399 629 232 629 q 659 537 564 629 q 753 302 753 446 q 660 80 753 168 q 399 -8 567 -8 q 138 80 231 -8 q 45 302 45 168 m 135 844 q 166 919 135 886 q 243 953 197 953 q 318 922 286 953 q 350 844 350 890 q 319 768 350 800 q 243 736 288 736 q 167 766 199 736 q 135 844 135 797 m 222 318 q 223 255 222 277 q 229 195 224 233 q 244 136 233 157 q 274 92 256 115 q 324 58 293 68 q 398 47 355 47 q 473 58 441 47 q 523 92 504 68 q 553 136 542 115 q 569 195 564 157 q 574 255 574 233 q 575 318 575 277 q 546 509 575 461 q 399 579 501 579 q 245 498 288 579 q 222 318 222 452 m 446 844 q 477 921 446 889 q 553 953 509 953 q 628 922 595 953 q 661 844 661 890 q 628 766 661 797 q 553 736 595 736 q 478 767 510 736 q 446 844 446 798 z "},"÷":{"ha":1241,"x_min":89,"x_max":1150,"o":"m 89 347 q 123 387 89 380 q 158 389 129 389 l 1090 389 q 1117 387 1113 389 q 1150 347 1150 379 q 1093 306 1150 306 l 142 306 q 89 347 89 306 m 528 -86 q 508 -67 528 -86 q 489 7 489 -49 q 528 100 489 62 q 619 138 567 138 q 713 98 676 138 q 750 7 750 58 q 711 -86 750 -49 q 620 -123 672 -123 q 528 -86 567 -123 m 528 593 q 508 612 528 593 q 489 686 489 631 q 528 779 489 742 q 619 817 567 817 q 713 777 676 817 q 750 686 750 737 q 711 593 750 631 q 620 555 672 555 q 528 593 567 555 z "},"ø":{"ha":798,"x_min":43,"x_max":753,"o":"m 43 304 q 138 538 43 448 q 397 629 233 629 q 551 603 477 629 l 652 765 l 653 765 l 694 739 l 694 737 l 597 582 q 682 514 648 554 q 729 433 715 475 q 748 362 743 392 q 753 304 753 332 q 656 78 753 163 q 397 -7 559 -7 q 245 17 314 -7 l 144 -149 l 102 -122 l 102 -121 l 199 36 q 117 100 150 62 q 69 177 83 138 q 48 247 54 216 q 43 304 43 277 m 201 290 q 243 107 201 163 l 515 546 q 397 578 458 578 q 241 510 292 578 q 201 309 201 456 l 201 290 m 281 72 q 399 43 332 43 q 494 62 454 43 q 552 104 533 81 q 581 167 571 127 q 593 230 591 207 q 595 289 595 253 l 595 321 q 593 389 595 363 q 582 447 591 414 q 554 510 572 481 l 553 510 l 281 72 z "},"ù":{"ha":886,"x_min":62,"x_max":854,"o":"m 62 549 l 62 614 l 317 625 l 317 151 q 335 64 317 87 q 428 41 353 41 q 552 93 505 41 q 600 229 600 144 l 600 494 q 586 541 600 533 q 504 549 571 549 l 504 614 l 758 625 l 758 119 q 773 73 758 81 q 854 65 787 65 l 854 0 l 608 -8 l 608 100 q 408 -8 545 -9 q 224 30 290 -8 q 158 171 158 68 l 158 494 q 143 541 158 533 q 62 549 129 549 m 283 832 q 307 892 283 865 q 365 920 332 920 q 375 919 370 920 q 385 918 380 918 q 394 913 389 917 q 404 907 399 909 q 416 898 408 904 q 431 886 425 892 q 449 869 437 880 q 471 849 461 859 q 499 822 481 839 q 533 791 517 806 l 587 742 l 553 686 q 467 715 521 697 q 312 775 342 757 q 283 832 283 793 z "},"ú":{"ha":886,"x_min":62,"x_max":854,"o":"m 62 549 l 62 614 l 317 625 l 317 151 q 335 64 317 87 q 428 41 353 41 q 552 93 505 41 q 600 229 600 144 l 600 494 q 586 541 600 533 q 504 549 571 549 l 504 614 l 758 625 l 758 119 q 773 73 758 81 q 854 65 787 65 l 854 0 l 608 -8 l 608 100 q 408 -8 545 -9 q 224 30 290 -8 q 158 171 158 68 l 158 494 q 143 541 158 533 q 62 549 129 549 m 309 743 q 489 905 473 895 q 530 920 509 919 q 588 892 565 920 q 611 832 611 864 q 583 776 611 793 q 431 717 554 758 q 343 686 376 697 l 309 743 z "},"û":{"ha":886,"x_min":62,"x_max":854,"o":"m 62 549 l 62 614 l 317 625 l 317 151 q 335 64 317 87 q 428 41 353 41 q 552 93 505 41 q 600 229 600 144 l 600 494 q 586 541 600 533 q 504 549 571 549 l 504 614 l 758 625 l 758 119 q 773 73 758 81 q 854 65 787 65 l 854 0 l 608 -8 l 608 100 q 408 -8 545 -9 q 224 30 290 -8 q 158 171 158 68 l 158 494 q 143 541 158 533 q 62 549 129 549 m 236 708 l 457 914 l 458 914 l 677 708 l 635 659 l 458 800 l 457 800 l 279 659 l 236 708 z "},"ü":{"ha":886,"x_min":62,"x_max":854,"o":"m 62 549 l 62 614 l 317 625 l 317 151 q 335 64 317 87 q 428 41 353 41 q 552 93 505 41 q 600 229 600 144 l 600 494 q 586 541 600 533 q 504 549 571 549 l 504 614 l 758 625 l 758 119 q 773 73 758 81 q 854 65 787 65 l 854 0 l 608 -8 l 608 100 q 408 -8 545 -9 q 224 30 290 -8 q 158 171 158 68 l 158 494 q 143 541 158 533 q 62 549 129 549 m 196 844 q 227 919 196 886 q 304 953 258 953 q 379 922 347 953 q 411 844 411 890 q 380 768 411 800 q 304 736 349 736 q 228 766 260 736 q 196 844 196 797 m 507 844 q 538 921 507 889 q 614 953 570 953 q 689 922 656 953 q 722 844 722 890 q 689 766 722 797 q 614 736 656 736 q 539 767 571 736 q 507 844 507 798 z "},"ý":{"ha":842,"x_min":31,"x_max":806,"o":"m 31 -150 q 54 -90 31 -111 q 110 -69 78 -69 q 168 -92 144 -69 q 191 -149 191 -114 q 146 -222 191 -203 q 179 -228 161 -228 q 242 -213 214 -228 q 292 -170 271 -199 q 326 -122 314 -142 q 353 -66 338 -102 l 385 0 l 125 551 l 36 551 l 36 616 q 111 614 50 616 q 195 612 172 612 q 367 616 298 612 l 367 551 l 292 551 l 468 176 l 628 518 q 635 534 635 525 q 570 551 635 551 l 570 616 q 696 612 657 612 q 806 616 755 612 l 806 551 q 741 548 763 551 q 714 539 720 545 q 703 522 708 534 l 404 -113 q 313 -229 372 -180 q 179 -278 253 -278 q 74 -240 117 -278 q 31 -150 31 -203 m 359 743 q 541 905 524 895 q 582 920 560 919 q 638 892 614 920 q 663 832 663 865 q 634 776 663 793 q 481 717 606 758 q 393 686 427 697 l 359 743 z "},"þ":{"ha":887,"x_min":49,"x_max":832,"o":"m 49 -204 l 146 -204 l 146 848 q 127 887 144 879 q 58 895 110 895 l 49 895 l 49 960 l 296 972 l 296 557 q 509 625 391 625 q 741 539 650 625 q 832 310 832 453 q 735 79 832 165 q 485 -7 637 -7 q 304 56 387 -7 l 304 -204 l 400 -204 l 400 -271 q 218 -267 309 -267 q 49 -271 203 -267 l 49 -204 m 302 157 q 354 82 302 121 q 468 43 406 43 q 597 105 540 43 q 654 311 654 167 q 608 499 654 429 q 484 568 561 568 q 375 541 424 568 q 310 486 326 513 q 304 458 304 478 l 304 167 q 303 162 304 165 q 302 157 302 159 z "},"ÿ":{"ha":842,"x_min":31,"x_max":806,"o":"m 31 -150 q 54 -90 31 -111 q 110 -69 78 -69 q 168 -92 144 -69 q 191 -149 191 -114 q 146 -222 191 -203 q 179 -228 161 -228 q 242 -213 214 -228 q 292 -170 271 -199 q 326 -122 314 -142 q 353 -66 338 -102 l 385 0 l 125 551 l 36 551 l 36 616 q 111 614 50 616 q 195 612 172 612 q 367 616 298 612 l 367 551 l 292 551 l 468 176 l 628 518 q 635 534 635 525 q 570 551 635 551 l 570 616 q 696 612 657 612 q 806 616 755 612 l 806 551 q 741 548 763 551 q 714 539 720 545 q 703 522 708 534 l 404 -113 q 313 -229 372 -180 q 179 -278 253 -278 q 74 -240 117 -278 q 31 -150 31 -203 m 158 844 q 191 922 158 892 q 265 953 224 953 q 341 922 308 953 q 374 844 374 890 q 342 768 374 800 q 267 736 311 736 q 191 767 224 736 q 158 844 158 798 m 468 844 q 499 921 468 889 q 575 953 530 953 q 651 922 618 953 q 684 844 684 890 q 653 769 684 802 q 576 736 623 736 q 501 767 534 736 q 468 844 468 798 z "},"Ā":{"ha":1206,"x_min":57,"x_max":1149,"o":"m 57 0 l 57 65 l 86 65 q 178 72 158 65 q 204 97 197 79 l 549 933 q 558 955 554 949 q 573 965 562 961 q 603 970 583 970 q 625 968 618 970 q 642 958 632 966 q 659 933 652 950 l 1014 65 l 1149 65 l 1149 0 q 922 4 1100 4 q 677 0 730 4 l 677 65 l 810 65 l 726 268 l 354 268 l 285 100 q 279 83 279 94 q 403 65 279 65 l 403 0 q 220 4 351 4 q 57 0 215 4 m 279 1099 l 279 1170 l 926 1170 l 926 1099 l 279 1099 m 382 334 l 699 334 l 541 720 l 382 334 z "},"ā":{"ha":776,"x_min":45,"x_max":775,"o":"m 45 150 q 496 368 45 349 l 496 415 q 343 579 496 579 q 243 570 289 579 q 273 501 273 549 q 247 437 273 460 q 186 414 221 414 q 127 437 154 414 q 100 501 100 460 q 349 629 100 629 q 576 571 498 629 q 654 415 654 513 l 654 117 q 657 89 654 97 q 679 73 660 81 q 739 65 699 65 q 757 64 751 65 q 769 56 762 62 q 775 33 775 49 q 765 5 775 11 q 730 0 755 0 l 664 0 q 581 10 612 0 q 537 39 549 20 q 522 72 525 58 q 519 107 519 85 q 313 -8 460 -8 q 229 -2 271 -8 q 143 20 187 4 q 72 69 98 36 q 45 150 45 102 m 60 767 l 60 839 l 636 839 l 636 767 l 60 767 m 207 151 q 244 73 207 105 q 334 41 281 41 q 375 47 352 41 q 427 67 397 53 q 476 114 457 81 q 496 193 496 147 l 496 325 q 438 320 465 323 q 365 305 411 317 q 288 276 319 293 q 231 227 256 260 q 207 151 207 194 z "},"Ă":{"ha":1206,"x_min":57,"x_max":1149,"o":"m 57 0 l 57 65 l 86 65 q 178 72 158 65 q 204 97 197 79 l 549 933 q 558 955 554 949 q 573 965 562 961 q 603 970 583 970 q 625 968 618 970 q 642 958 632 966 q 659 933 652 950 l 1014 65 l 1149 65 l 1149 0 q 922 4 1100 4 q 677 0 730 4 l 677 65 l 810 65 l 726 268 l 354 268 l 285 100 q 279 83 279 94 q 403 65 279 65 l 403 0 q 220 4 351 4 q 57 0 215 4 m 355 1242 l 406 1242 q 600 1136 415 1136 q 799 1242 791 1136 l 848 1242 q 772 1100 844 1152 q 603 1048 700 1048 q 434 1098 509 1048 q 355 1242 359 1147 m 382 334 l 699 334 l 541 720 l 382 334 z "},"ă":{"ha":776,"x_min":45,"x_max":775,"o":"m 45 150 q 496 368 45 349 l 496 415 q 343 579 496 579 q 243 570 289 579 q 273 501 273 549 q 247 437 273 460 q 186 414 221 414 q 127 437 154 414 q 100 501 100 460 q 349 629 100 629 q 576 571 498 629 q 654 415 654 513 l 654 117 q 657 89 654 97 q 679 73 660 81 q 739 65 699 65 q 757 64 751 65 q 769 56 762 62 q 775 33 775 49 q 765 5 775 11 q 730 0 755 0 l 664 0 q 581 10 612 0 q 537 39 549 20 q 522 72 525 58 q 519 107 519 85 q 313 -8 460 -8 q 229 -2 271 -8 q 143 20 187 4 q 72 69 98 36 q 45 150 45 102 m 150 907 l 200 907 q 227 836 203 865 q 284 794 250 807 q 345 777 318 782 q 397 772 372 772 q 470 780 432 772 q 548 820 507 787 q 593 907 589 852 l 643 907 q 565 745 639 804 q 397 686 492 686 q 227 747 300 686 q 150 907 153 807 m 207 151 q 244 73 207 105 q 334 41 281 41 q 375 47 352 41 q 427 67 397 53 q 476 114 457 81 q 496 193 496 147 l 496 325 q 438 320 465 323 q 365 305 411 317 q 288 276 319 293 q 231 227 256 260 q 207 151 207 194 z "},"Ą":{"ha":1206,"x_min":56,"x_max":1149,"o":"m 56 0 l 56 66 q 172 73 149 66 q 205 104 195 79 l 546 930 q 566 961 555 953 q 602 970 576 970 q 638 961 627 970 q 660 928 650 951 l 1014 66 l 1149 66 l 1149 0 q 1087 1 1143 0 q 1015 3 1031 3 q 958 -22 983 3 q 924 -94 924 -57 q 951 -160 924 -130 q 1014 -191 979 -191 q 1052 -177 1032 -191 q 1080 -163 1072 -163 q 1103 -172 1090 -163 q 1117 -195 1117 -182 q 1073 -252 1117 -220 q 974 -285 1028 -285 q 860 -241 907 -285 q 812 -139 812 -197 q 890 4 812 -67 l 676 0 l 676 66 l 808 66 l 725 267 l 353 267 q 282 86 282 94 q 401 66 282 66 l 401 0 q 216 4 310 4 q 56 0 153 4 m 380 334 l 699 334 l 541 720 l 380 334 z "},"ą":{"ha":776,"x_min":43,"x_max":775,"o":"m 43 151 q 88 257 43 212 q 207 324 134 301 q 351 358 279 347 q 496 368 422 368 l 496 406 q 346 578 496 578 q 241 570 292 578 q 272 501 272 536 q 247 439 272 464 q 184 415 221 415 q 123 440 147 415 q 98 503 98 465 q 349 629 98 629 q 476 615 420 629 q 562 581 532 600 q 614 534 593 561 q 642 489 635 507 q 652 453 648 471 q 654 403 654 436 l 654 129 q 656 97 654 102 q 712 68 663 72 q 768 54 762 64 q 775 33 775 43 q 763 5 775 11 q 729 0 751 0 l 665 0 q 605 -32 628 0 q 582 -93 582 -64 q 610 -161 582 -133 q 669 -189 639 -189 q 710 -174 689 -189 q 739 -158 730 -158 q 762 -169 749 -158 q 775 -192 775 -179 q 731 -250 775 -214 q 629 -285 688 -285 q 518 -242 566 -285 q 471 -139 471 -200 q 564 18 471 -57 q 531 48 541 32 q 520 74 521 65 q 518 109 519 82 q 311 -7 460 -7 q 224 0 267 -7 q 139 23 182 7 q 69 72 96 39 q 43 151 43 105 m 207 153 q 244 74 207 105 q 334 43 281 43 q 443 78 391 43 q 496 196 496 114 l 496 325 q 225 216 282 311 q 207 153 207 184 z "},"Ć":{"ha":1152,"x_min":89,"x_max":1064,"o":"m 240 122 q 164 191 240 122 q 89 476 89 260 q 240 830 89 693 q 647 968 392 968 q 921 873 804 968 l 1013 956 q 1039 968 1026 968 q 1060 960 1056 968 q 1064 929 1064 953 l 1064 631 q 1058 597 1064 603 q 1026 591 1053 591 q 997 596 1002 591 q 989 621 991 600 q 879 826 966 749 q 676 903 791 903 q 393 796 498 903 q 301 476 302 701 q 383 168 301 268 q 681 50 483 50 q 895 121 799 50 q 999 321 991 192 q 1007 341 1000 338 q 1031 345 1014 345 q 1057 340 1050 345 q 1064 315 1064 335 q 948 86 1064 188 q 647 -16 832 -16 q 240 122 391 -16 m 497 1081 q 707 1211 694 1206 q 733 1215 719 1215 l 734 1215 q 789 1188 766 1215 q 812 1128 812 1162 q 810 1106 812 1117 q 803 1089 808 1096 q 793 1076 797 1082 q 778 1065 789 1069 q 764 1059 768 1061 q 746 1053 760 1056 q 729 1050 732 1050 q 711 1046 726 1049 l 696 1045 q 519 1019 646 1037 l 497 1081 z "},"ć":{"ha":709,"x_min":53,"x_max":664,"o":"m 53 309 q 141 536 53 442 q 404 629 229 629 q 646 501 646 629 q 619 437 646 460 q 558 414 593 414 q 499 437 526 414 q 472 501 472 460 q 500 566 472 540 q 410 574 464 574 q 322 553 358 574 q 269 506 286 532 q 242 438 252 481 q 232 373 233 396 q 231 315 231 350 q 424 47 231 47 q 597 161 550 47 q 608 178 603 175 q 631 182 612 182 q 664 163 664 182 q 659 141 664 157 q 635 98 653 125 q 589 49 616 72 q 510 9 561 26 q 397 -8 460 -8 q 146 80 239 -8 q 53 309 53 168 m 271 743 q 449 904 432 893 q 493 920 471 920 q 550 892 526 920 q 574 832 574 865 q 544 776 574 793 q 389 715 514 758 q 304 686 336 697 l 271 743 z "},"Ĉ":{"ha":1152,"x_min":89,"x_max":1064,"o":"m 240 122 q 164 191 240 122 q 89 476 89 260 q 240 830 89 693 q 647 968 392 968 q 921 873 804 968 l 1013 956 q 1039 968 1026 968 q 1060 960 1056 968 q 1064 929 1064 953 l 1064 631 q 1058 597 1064 603 q 1026 591 1053 591 q 997 596 1002 591 q 989 621 991 600 q 879 826 966 749 q 676 903 791 903 q 393 796 498 903 q 301 476 302 701 q 383 168 301 268 q 681 50 483 50 q 895 121 799 50 q 999 321 991 192 q 1007 341 1000 338 q 1031 345 1014 345 q 1057 340 1050 345 q 1064 315 1064 335 q 948 86 1064 188 q 647 -16 832 -16 q 240 122 391 -16 m 428 1076 l 646 1250 l 864 1076 l 825 1022 l 646 1135 l 467 1022 l 428 1076 z "},"ĉ":{"ha":709,"x_min":53,"x_max":664,"o":"m 53 309 q 141 536 53 442 q 404 629 229 629 q 646 501 646 629 q 619 437 646 460 q 558 414 593 414 q 499 437 526 414 q 472 501 472 460 q 500 566 472 540 q 410 574 464 574 q 322 553 358 574 q 269 506 286 532 q 242 438 252 481 q 232 373 233 396 q 231 315 231 350 q 424 47 231 47 q 597 161 550 47 q 608 178 603 175 q 631 182 612 182 q 664 163 664 182 q 659 141 664 157 q 635 98 653 125 q 589 49 616 72 q 510 9 561 26 q 397 -8 460 -8 q 146 80 239 -8 q 53 309 53 168 m 183 708 l 404 914 l 406 914 l 625 708 l 582 659 l 406 800 l 404 800 l 227 659 l 183 708 z "},"Ċ":{"ha":1152,"x_min":89,"x_max":1064,"o":"m 240 122 q 164 191 240 122 q 89 476 89 260 q 240 830 89 693 q 647 968 392 968 q 921 873 804 968 l 1013 956 q 1039 968 1026 968 q 1060 960 1056 968 q 1064 929 1064 953 l 1064 631 q 1058 597 1064 603 q 1026 591 1053 591 q 997 596 1002 591 q 989 621 991 600 q 879 826 966 749 q 676 903 791 903 q 393 796 498 903 q 301 476 302 701 q 383 168 301 268 q 681 50 483 50 q 895 121 799 50 q 999 321 991 192 q 1007 341 1000 338 q 1031 345 1014 345 q 1057 340 1050 345 q 1064 315 1064 335 q 948 86 1064 188 q 647 -16 832 -16 q 240 122 391 -16 m 568 1068 q 553 1084 568 1068 q 537 1144 537 1100 q 568 1221 537 1189 q 646 1253 600 1253 q 722 1221 690 1253 q 754 1144 754 1189 q 722 1068 754 1100 q 646 1036 690 1036 q 568 1068 600 1036 z "},"ċ":{"ha":709,"x_min":53,"x_max":664,"o":"m 53 309 q 141 536 53 442 q 404 629 229 629 q 646 501 646 629 q 619 437 646 460 q 558 414 593 414 q 499 437 526 414 q 472 501 472 460 q 500 566 472 540 q 410 574 464 574 q 322 553 358 574 q 269 506 286 532 q 242 438 252 481 q 232 373 233 396 q 231 315 231 350 q 424 47 231 47 q 597 161 550 47 q 608 178 603 175 q 631 182 612 182 q 664 163 664 182 q 659 141 664 157 q 635 98 653 125 q 589 49 616 72 q 510 9 561 26 q 397 -8 460 -8 q 146 80 239 -8 q 53 309 53 168 m 296 857 q 328 931 296 899 q 404 964 359 964 q 480 932 447 964 q 513 856 513 901 q 481 782 513 814 q 404 749 450 749 q 327 782 357 749 q 296 857 296 814 z "},"Č":{"ha":1152,"x_min":89,"x_max":1064,"o":"m 240 122 q 164 191 240 122 q 89 476 89 260 q 240 830 89 693 q 647 968 392 968 q 921 873 804 968 l 1013 956 q 1039 968 1026 968 q 1060 960 1056 968 q 1064 929 1064 953 l 1064 631 q 1058 597 1064 603 q 1026 591 1053 591 q 997 596 1002 591 q 989 621 991 600 q 879 826 966 749 q 676 903 791 903 q 393 796 498 903 q 301 476 302 701 q 383 168 301 268 q 681 50 483 50 q 895 121 799 50 q 999 321 991 192 q 1007 341 1000 338 q 1031 345 1014 345 q 1057 340 1050 345 q 1064 315 1064 335 q 948 86 1064 188 q 647 -16 832 -16 q 240 122 391 -16 m 446 1219 l 463 1255 q 682 1196 677 1196 l 684 1196 q 900 1255 685 1196 l 917 1219 q 757 1112 840 1169 q 682 1067 689 1066 q 606 1112 674 1067 q 446 1219 522 1169 z "},"č":{"ha":709,"x_min":53,"x_max":664,"o":"m 53 309 q 141 536 53 442 q 404 629 229 629 q 646 501 646 629 q 619 437 646 460 q 558 414 593 414 q 499 437 526 414 q 472 501 472 460 q 500 566 472 540 q 410 574 464 574 q 322 553 358 574 q 269 506 286 532 q 242 438 252 481 q 232 373 233 396 q 231 315 231 350 q 424 47 231 47 q 597 161 550 47 q 608 178 603 175 q 631 182 612 182 q 664 163 664 182 q 659 141 664 157 q 635 98 653 125 q 589 49 616 72 q 510 9 561 26 q 397 -8 460 -8 q 146 80 239 -8 q 53 309 53 168 m 163 890 l 163 892 l 186 922 l 187 922 q 401 803 395 803 l 403 803 q 615 922 410 803 l 616 922 l 642 892 l 642 890 l 403 653 l 401 653 l 163 890 z "},"Ď":{"ha":1223,"x_min":54,"x_max":1135,"o":"m 54 0 l 54 65 l 204 65 l 204 888 l 54 888 l 54 953 l 652 953 q 999 822 863 953 q 1135 468 1135 692 q 999 125 1135 250 q 653 0 864 0 l 54 0 m 296 1219 l 313 1255 q 532 1196 528 1196 l 533 1196 q 750 1255 534 1196 l 766 1219 q 607 1112 690 1169 q 532 1067 539 1066 q 456 1112 524 1067 q 296 1219 372 1169 m 393 65 l 596 65 q 869 182 788 65 q 917 293 903 229 q 930 469 930 357 q 871 764 930 676 q 596 888 785 887 l 393 888 l 393 65 z "},"ď":{"ha":1124,"x_min":53,"x_max":1042,"o":"m 53 307 q 150 538 53 452 q 401 625 248 625 q 589 562 509 625 l 589 833 q 574 880 589 872 q 493 888 559 888 l 493 953 l 739 964 l 739 119 q 754 73 739 81 q 835 65 768 65 l 835 0 l 581 -8 l 581 60 q 386 -8 496 -8 q 143 80 233 -8 q 53 307 53 168 m 231 307 q 231 252 231 273 q 236 196 232 232 q 251 137 240 160 q 280 90 262 114 q 329 53 298 65 q 400 41 359 41 q 581 143 507 41 l 581 490 q 415 575 517 575 q 267 503 317 575 q 231 307 231 449 m 832 862 q 818 878 832 862 q 803 939 803 893 q 833 1016 803 985 q 909 1047 863 1047 q 1001 1008 961 1047 q 1042 903 1042 970 q 976 726 1042 800 q 872 653 909 653 q 855 661 863 653 q 847 679 847 669 q 864 701 847 689 q 903 727 882 713 q 949 776 925 741 q 986 860 974 811 q 911 831 950 831 q 832 862 862 831 z "},"Đ":{"ha":1225,"x_min":54,"x_max":1136,"o":"m 54 0 l 54 66 l 204 66 l 204 435 l 93 435 q 54 468 54 435 q 93 500 54 500 l 204 500 l 204 886 l 54 886 l 54 953 l 616 953 q 1000 823 868 953 q 1136 469 1137 691 q 1017 142 1136 265 q 708 3 899 20 q 616 0 677 0 l 54 0 m 395 66 l 578 66 q 860 170 772 66 q 930 441 930 254 l 930 489 q 929 562 930 530 q 919 637 928 593 q 898 713 911 681 q 859 779 885 745 q 795 836 832 814 q 703 872 758 857 q 576 886 647 886 l 395 886 l 395 500 l 631 500 q 672 467 672 500 q 631 435 672 435 l 395 435 l 395 66 z "},"đ":{"ha":887,"x_min":53,"x_max":836,"o":"m 53 309 q 149 538 53 452 q 401 625 244 625 q 589 562 505 625 l 589 722 l 279 722 l 279 789 l 589 789 l 589 822 q 576 876 589 865 q 504 886 564 886 l 492 886 l 492 953 l 741 964 l 741 789 l 811 789 l 811 722 l 741 722 l 741 111 q 757 74 742 82 q 821 66 772 66 l 836 66 l 836 0 l 581 -7 l 581 61 q 383 -7 494 -7 q 146 79 239 -7 q 53 309 53 164 m 231 283 q 268 107 231 159 q 400 43 313 43 q 518 80 467 43 q 579 146 570 117 q 581 174 581 150 l 581 465 q 528 541 581 508 q 415 574 475 574 q 267 500 315 574 q 231 323 231 447 l 231 283 z "},"Ē":{"ha":1048,"x_min":54,"x_max":1004,"o":"m 54 0 l 54 65 l 204 65 l 204 879 l 54 879 l 54 945 l 917 945 l 960 610 l 895 610 q 879 704 888 667 q 850 777 869 741 q 802 833 831 812 q 725 867 772 854 q 612 879 677 879 l 401 879 l 401 522 l 478 522 q 598 560 571 522 q 625 685 625 597 l 690 685 l 690 294 l 625 294 q 598 419 625 382 q 478 457 571 457 l 401 457 l 401 65 l 612 65 q 723 74 675 65 q 804 105 771 83 q 861 151 838 126 q 899 215 884 175 q 922 290 914 254 q 939 380 930 326 l 1004 380 l 940 0 l 54 0 m 205 1099 l 205 1170 l 852 1170 l 852 1099 l 205 1099 z "},"ē":{"ha":732,"x_min":45,"x_max":686,"o":"m 45 313 q 136 539 45 449 q 387 629 227 629 q 608 554 530 629 q 686 340 686 476 q 677 308 686 314 q 642 302 668 302 l 222 302 q 419 47 222 47 q 542 78 487 47 q 618 158 596 109 q 630 182 625 176 q 653 187 636 187 q 686 163 686 187 q 679 136 686 153 q 651 92 671 118 q 601 44 631 66 q 520 7 571 22 q 407 -8 469 -8 q 143 81 241 -8 q 45 313 45 171 m 98 767 l 98 839 l 674 839 l 674 767 l 98 767 m 222 349 l 554 349 q 387 579 547 579 q 256 507 302 579 q 222 349 228 464 z "},"Ė":{"ha":1048,"x_min":54,"x_max":1004,"o":"m 54 0 l 54 65 l 204 65 l 204 879 l 54 879 l 54 945 l 917 945 l 960 610 l 895 610 q 879 704 888 667 q 850 777 869 741 q 802 833 831 812 q 725 867 772 854 q 612 879 677 879 l 401 879 l 401 522 l 478 522 q 598 560 571 522 q 625 685 625 597 l 690 685 l 690 294 l 625 294 q 598 419 625 382 q 478 457 571 457 l 401 457 l 401 65 l 612 65 q 723 74 675 65 q 804 105 771 83 q 861 151 838 126 q 899 215 884 175 q 922 290 914 254 q 939 380 930 326 l 1004 380 l 940 0 l 54 0 m 452 1068 q 436 1084 452 1068 q 420 1144 420 1100 q 452 1221 420 1189 q 529 1253 483 1253 q 606 1221 574 1253 q 637 1144 637 1189 q 605 1068 637 1100 q 529 1036 573 1036 q 452 1068 483 1036 z "},"ė":{"ha":732,"x_min":45,"x_max":686,"o":"m 45 313 q 136 539 45 449 q 387 629 227 629 q 608 554 530 629 q 686 340 686 476 q 677 308 686 314 q 642 302 668 302 l 222 302 q 419 47 222 47 q 542 78 487 47 q 618 158 596 109 q 630 182 625 176 q 653 187 636 187 q 686 163 686 187 q 679 136 686 153 q 651 92 671 118 q 601 44 631 66 q 520 7 571 22 q 407 -8 469 -8 q 143 81 241 -8 q 45 313 45 171 m 222 349 l 554 349 q 387 579 547 579 q 256 507 302 579 q 222 349 228 464 m 278 857 q 309 931 278 899 q 386 964 340 964 q 461 932 429 964 q 494 856 494 901 q 463 782 494 814 q 386 749 432 749 q 308 782 338 749 q 278 857 278 814 z "},"Ę":{"ha":1048,"x_min":54,"x_max":1004,"o":"m 54 0 l 54 66 l 204 66 l 204 879 l 54 879 l 54 945 l 918 945 l 960 608 l 895 608 q 864 747 884 694 q 798 835 844 800 q 581 879 738 880 l 401 879 l 401 524 l 471 524 q 516 526 498 524 q 557 535 533 528 q 597 559 582 542 q 619 606 612 576 q 625 686 625 627 l 692 686 l 692 294 l 625 294 q 594 424 625 390 q 471 457 562 457 l 401 457 l 401 66 l 614 66 q 764 87 705 68 q 856 150 822 106 q 906 244 890 195 q 937 382 922 293 l 1004 382 l 940 0 l 842 0 q 782 -31 807 0 q 757 -94 757 -62 q 785 -160 757 -130 q 847 -191 812 -191 q 885 -176 867 -191 q 914 -161 904 -161 q 938 -173 926 -161 q 950 -195 950 -184 q 905 -252 950 -220 q 806 -285 860 -285 q 693 -242 741 -285 q 646 -139 646 -199 q 720 0 646 -71 l 54 0 z "},"ę":{"ha":732,"x_min":43,"x_max":686,"o":"m 43 313 q 135 541 43 452 q 387 629 228 629 q 534 603 472 629 q 627 531 596 576 q 672 440 659 486 q 686 340 686 393 q 679 315 686 323 q 665 304 672 306 q 643 302 657 302 l 221 302 q 273 107 221 163 q 421 49 328 49 q 539 78 486 49 q 615 157 593 107 q 640 186 627 182 q 653 187 646 187 q 684 161 684 187 q 654 97 684 135 q 579 33 624 58 q 564 25 578 32 q 538 12 550 18 q 510 -6 526 5 q 482 -31 493 -18 q 463 -60 471 -43 q 454 -94 454 -77 q 482 -160 454 -129 q 545 -191 510 -191 q 583 -176 563 -191 q 611 -161 603 -161 q 634 -171 621 -161 q 647 -193 647 -180 q 603 -252 647 -218 q 504 -285 559 -285 q 391 -241 437 -285 q 345 -140 345 -197 q 408 -7 345 -74 q 138 85 233 -5 q 43 313 43 175 m 221 349 l 554 349 q 503 528 547 475 q 387 578 461 578 q 256 507 300 578 q 221 349 227 463 z "},"Ě":{"ha":1048,"x_min":54,"x_max":1004,"o":"m 54 0 l 54 65 l 204 65 l 204 879 l 54 879 l 54 945 l 917 945 l 960 610 l 895 610 q 879 704 888 667 q 850 777 869 741 q 802 833 831 812 q 725 867 772 854 q 612 879 677 879 l 401 879 l 401 522 l 478 522 q 598 560 571 522 q 625 685 625 597 l 690 685 l 690 294 l 625 294 q 598 419 625 382 q 478 457 571 457 l 401 457 l 401 65 l 612 65 q 723 74 675 65 q 804 105 771 83 q 861 151 838 126 q 899 215 884 175 q 922 290 914 254 q 939 380 930 326 l 1004 380 l 940 0 l 54 0 m 245 1219 l 262 1255 q 482 1196 477 1196 l 484 1196 q 700 1255 485 1196 l 717 1219 q 557 1112 640 1169 q 482 1067 489 1066 q 406 1112 474 1067 q 245 1219 322 1169 z "},"ě":{"ha":732,"x_min":45,"x_max":686,"o":"m 45 313 q 136 539 45 449 q 387 629 227 629 q 608 554 530 629 q 686 340 686 476 q 677 308 686 314 q 642 302 668 302 l 222 302 q 419 47 222 47 q 542 78 487 47 q 618 158 596 109 q 630 182 625 176 q 653 187 636 187 q 686 163 686 187 q 679 136 686 153 q 651 92 671 118 q 601 44 631 66 q 520 7 571 22 q 407 -8 469 -8 q 143 81 241 -8 q 45 313 45 171 m 148 890 l 148 892 l 171 922 l 172 922 q 387 803 380 803 l 388 803 q 600 922 395 803 l 602 922 l 627 892 l 627 890 l 388 653 l 387 653 l 148 890 m 222 349 l 554 349 q 387 579 547 579 q 256 507 302 579 q 222 349 228 464 z "},"Ĝ":{"ha":1255,"x_min":89,"x_max":1174,"o":"m 89 476 q 241 831 89 694 q 646 968 393 968 q 920 873 800 968 l 1011 956 q 1038 968 1025 968 q 1059 960 1055 968 q 1063 929 1063 953 l 1063 631 q 1057 597 1063 603 q 1025 591 1051 591 q 996 596 1001 591 q 987 621 990 600 q 878 826 965 749 q 676 903 790 903 q 502 869 579 903 q 380 782 424 836 q 301 478 301 677 q 379 176 301 277 q 510 82 428 114 q 686 50 593 50 q 811 79 762 50 q 865 178 865 111 l 865 318 l 665 318 l 665 383 q 950 379 741 379 q 1174 383 1125 379 l 1174 318 l 1063 318 l 1063 39 q 1043 0 1063 0 q 985 24 1034 0 q 907 74 936 49 q 648 -16 835 -15 q 238 123 387 -16 q 89 476 89 262 m 428 1076 l 646 1250 l 864 1076 l 825 1022 l 646 1135 l 467 1022 l 428 1076 z "},"ĝ":{"ha":798,"x_min":45,"x_max":775,"o":"m 45 -104 q 60 -50 45 -74 q 99 -12 75 -25 q 137 7 122 1 q 164 17 151 14 q 103 150 103 66 q 150 273 103 214 q 97 337 117 297 q 78 419 78 376 q 146 564 78 503 q 354 625 215 625 q 541 579 472 625 q 688 632 607 632 q 753 606 730 632 q 775 551 775 581 q 759 509 775 526 q 715 492 742 492 q 672 508 689 492 q 656 551 656 525 q 661 579 656 565 q 575 553 616 575 q 631 419 631 493 q 562 275 631 336 q 354 214 493 214 q 184 250 254 214 q 171 204 171 232 q 189 151 171 178 q 248 117 207 123 q 354 115 254 115 q 476 114 437 115 q 563 103 515 113 q 648 77 611 94 q 753 -100 753 24 q 663 -229 753 -178 q 399 -279 574 -279 q 128 -225 212 -279 q 45 -104 45 -171 m 132 708 l 353 914 l 354 914 l 573 708 l 530 659 l 354 800 l 353 800 l 175 659 l 132 708 m 164 -102 q 223 -192 164 -155 q 399 -229 282 -229 q 577 -190 521 -229 q 633 -104 633 -151 q 433 -18 633 -18 l 271 -18 q 164 -102 164 -18 m 233 460 q 232 453 233 460 q 232 419 232 446 q 233 379 232 393 q 239 339 233 364 q 258 300 245 314 q 295 275 271 286 q 354 264 319 264 q 413 275 389 264 q 450 300 437 286 q 469 339 463 314 q 475 379 475 364 q 476 419 476 393 q 475 460 476 446 q 469 500 475 475 q 450 539 463 525 q 413 564 437 553 q 354 575 389 575 q 295 564 319 575 q 258 539 271 553 q 239 500 245 525 q 233 460 233 475 z "},"Ğ":{"ha":1255,"x_min":89,"x_max":1175,"o":"m 89 476 q 105 609 89 544 q 164 741 122 675 q 269 856 207 807 q 432 937 332 905 q 659 968 533 968 q 806 958 742 968 q 901 936 871 947 q 935 925 932 925 q 984 946 944 925 q 1039 966 1025 966 q 1064 932 1064 966 l 1064 785 q 1058 752 1064 760 q 1026 745 1051 745 l 1023 745 q 995 754 1001 745 q 981 787 989 764 q 949 832 972 810 q 703 901 875 901 l 699 901 q 451 839 555 901 q 317 636 347 777 q 301 475 301 572 q 408 147 301 245 q 689 52 513 52 q 813 81 760 52 q 867 178 867 110 l 867 317 l 667 317 l 667 382 q 956 379 762 379 q 1175 382 1088 379 l 1175 317 l 1064 317 l 1064 32 q 1043 3 1064 3 q 985 25 1031 3 q 909 74 939 47 l 908 74 q 650 -16 825 -15 q 242 120 395 -16 q 89 476 89 256 m 406 1242 l 457 1242 q 656 1136 465 1136 q 848 1242 839 1136 l 900 1242 q 823 1100 896 1152 q 653 1048 750 1048 q 484 1098 559 1048 q 406 1242 410 1147 z "},"ğ":{"ha":798,"x_min":45,"x_max":775,"o":"m 45 -104 q 60 -50 45 -74 q 99 -12 75 -25 q 137 7 122 1 q 164 17 151 14 q 103 150 103 66 q 150 273 103 214 q 97 337 117 297 q 78 419 78 376 q 146 564 78 503 q 354 625 215 625 q 541 579 472 625 q 688 632 607 632 q 753 606 730 632 q 775 551 775 581 q 759 509 775 526 q 715 492 742 492 q 672 508 689 492 q 656 551 656 525 q 661 579 656 565 q 575 553 616 575 q 631 419 631 493 q 562 275 631 336 q 354 214 493 214 q 184 250 254 214 q 171 204 171 232 q 189 151 171 178 q 248 117 207 123 q 354 115 254 115 q 476 114 437 115 q 563 103 515 113 q 648 77 611 94 q 753 -100 753 24 q 663 -229 753 -178 q 399 -279 574 -279 q 128 -225 212 -279 q 45 -104 45 -171 m 150 907 l 200 907 q 227 836 203 865 q 284 794 250 807 q 345 777 318 782 q 397 772 372 772 q 470 780 432 772 q 548 820 507 787 q 593 907 589 852 l 643 907 q 565 745 639 804 q 397 686 492 686 q 227 747 300 686 q 150 907 153 807 m 164 -102 q 223 -192 164 -155 q 399 -229 282 -229 q 577 -190 521 -229 q 633 -104 633 -151 q 433 -18 633 -18 l 271 -18 q 164 -102 164 -18 m 233 460 q 232 453 233 460 q 232 419 232 446 q 233 379 232 393 q 239 339 233 364 q 258 300 245 314 q 295 275 271 286 q 354 264 319 264 q 413 275 389 264 q 450 300 437 286 q 469 339 463 314 q 475 379 475 364 q 476 419 476 393 q 475 460 476 446 q 469 500 475 475 q 450 539 463 525 q 413 564 437 553 q 354 575 389 575 q 295 564 319 575 q 258 539 271 553 q 239 500 245 525 q 233 460 233 475 z "},"Ġ":{"ha":1255,"x_min":89,"x_max":1174,"o":"m 89 476 q 241 831 89 694 q 646 968 393 968 q 920 873 800 968 l 1011 956 q 1038 968 1025 968 q 1059 960 1055 968 q 1063 929 1063 953 l 1063 631 q 1057 597 1063 603 q 1025 591 1051 591 q 996 596 1001 591 q 987 621 990 600 q 878 826 965 749 q 676 903 790 903 q 502 869 579 903 q 380 782 424 836 q 301 478 301 677 q 379 176 301 277 q 510 82 428 114 q 686 50 593 50 q 811 79 762 50 q 865 178 865 111 l 865 318 l 665 318 l 665 383 q 950 379 741 379 q 1174 383 1125 379 l 1174 318 l 1063 318 l 1063 39 q 1043 0 1063 0 q 985 24 1034 0 q 907 74 936 49 q 648 -16 835 -15 q 238 123 387 -16 q 89 476 89 262 m 568 1068 q 553 1084 568 1068 q 537 1144 537 1100 q 568 1221 537 1189 q 646 1253 600 1253 q 722 1221 690 1253 q 754 1144 754 1189 q 722 1068 754 1100 q 646 1036 690 1036 q 568 1068 600 1036 z "},"ġ":{"ha":798,"x_min":45,"x_max":775,"o":"m 45 -104 q 60 -50 45 -74 q 99 -12 75 -25 q 137 7 122 1 q 164 17 151 14 q 103 150 103 66 q 150 273 103 214 q 97 337 117 297 q 78 419 78 376 q 146 564 78 503 q 354 625 215 625 q 541 579 472 625 q 688 632 607 632 q 753 606 730 632 q 775 551 775 581 q 759 509 775 526 q 715 492 742 492 q 672 508 689 492 q 656 551 656 525 q 661 579 656 565 q 575 553 616 575 q 631 419 631 493 q 562 275 631 336 q 354 214 493 214 q 184 250 254 214 q 171 204 171 232 q 189 151 171 178 q 248 117 207 123 q 354 115 254 115 q 476 114 437 115 q 563 103 515 113 q 648 77 611 94 q 753 -100 753 24 q 663 -229 753 -178 q 399 -279 574 -279 q 128 -225 212 -279 q 45 -104 45 -171 m 164 -102 q 223 -192 164 -155 q 399 -229 282 -229 q 577 -190 521 -229 q 633 -104 633 -151 q 433 -18 633 -18 l 271 -18 q 164 -102 164 -18 m 233 460 q 232 453 233 460 q 232 419 232 446 q 233 379 232 393 q 239 339 233 364 q 258 300 245 314 q 295 275 271 286 q 354 264 319 264 q 413 275 389 264 q 450 300 437 286 q 469 339 463 314 q 475 379 475 364 q 476 419 476 393 q 475 460 476 446 q 469 500 475 475 q 450 539 463 525 q 413 564 437 553 q 354 575 389 575 q 295 564 319 575 q 258 539 271 553 q 239 500 245 525 q 233 460 233 475 m 245 857 q 276 931 245 899 q 353 964 307 964 q 428 932 395 964 q 461 856 461 901 q 430 782 461 814 q 353 749 399 749 q 275 782 305 749 q 245 857 245 814 z "},"Ĥ":{"ha":1250,"x_min":54,"x_max":1194,"o":"m 54 0 l 54 65 l 204 65 l 204 888 l 54 888 l 54 953 q 303 949 107 949 q 551 953 498 949 l 551 888 l 401 888 l 401 528 l 847 528 l 847 888 l 697 888 l 697 953 q 946 949 750 949 q 1194 953 1141 949 l 1194 888 l 1044 888 l 1044 65 l 1194 65 l 1194 0 q 946 4 1141 4 q 697 0 750 4 l 697 65 l 847 65 l 847 463 l 401 463 l 401 65 l 551 65 l 551 0 q 303 4 498 4 q 54 0 107 4 m 407 1076 l 625 1250 l 843 1076 l 804 1022 l 625 1135 l 446 1022 l 407 1076 z "},"ĥ":{"ha":886,"x_min":62,"x_max":854,"o":"m 62 0 l 62 65 l 158 65 l 158 833 q 143 880 158 872 q 62 888 129 888 l 62 953 l 309 964 l 309 492 l 310 492 q 545 625 388 625 q 705 578 652 625 q 758 425 758 532 l 758 65 l 854 65 l 854 0 q 679 4 738 4 q 504 0 621 4 l 504 65 l 600 65 l 600 440 q 581 545 600 515 q 524 575 561 575 q 382 517 447 575 q 317 355 317 460 l 317 65 l 412 65 l 412 0 q 237 4 296 4 q 62 0 179 4 m 237 1043 l 458 1249 l 460 1249 l 679 1043 l 636 994 l 460 1135 l 458 1135 l 281 994 l 237 1043 z "},"ħ":{"ha":932,"x_min":24,"x_max":900,"o":"m 64 725 q 24 758 24 725 q 65 791 24 791 l 201 791 l 201 822 q 189 876 201 865 q 117 888 176 888 l 104 888 l 104 953 l 353 965 l 353 791 l 541 791 q 582 758 582 791 q 542 725 582 725 l 353 725 l 353 489 q 589 625 429 625 q 690 611 648 625 q 753 576 732 596 q 787 522 775 555 q 801 467 799 489 q 803 410 803 444 l 803 66 l 900 66 l 900 0 q 717 4 808 4 q 547 0 701 4 l 547 66 l 644 66 l 644 432 q 640 502 644 475 q 617 551 636 529 q 566 574 599 574 q 509 564 539 574 q 443 532 478 554 q 383 460 407 510 q 359 345 359 411 l 359 66 l 457 66 l 457 0 q 273 4 366 4 q 104 0 258 4 l 104 66 l 201 66 l 201 725 l 64 725 z "},"Ī":{"ha":605,"x_min":14,"x_max":591,"o":"m 14 1038 l 14 1109 l 591 1109 l 591 1038 l 14 1038 m 46 0 l 46 65 l 204 65 l 204 888 l 46 888 l 46 953 q 303 949 103 949 q 559 953 503 949 l 559 888 l 401 888 l 401 65 l 559 65 l 559 0 q 303 4 503 4 q 46 0 103 4 z "},"ī":{"ha":443,"x_min":-53,"x_max":524,"o":"m -53 767 l -53 839 l 524 839 l 524 767 l -53 767 m 65 0 l 65 65 l 161 65 l 161 494 q 148 541 161 533 q 69 549 134 549 l 69 614 l 311 625 l 311 65 l 397 65 l 397 0 q 235 4 248 4 q 65 0 194 4 z "},"İ":{"ha":605,"x_min":46,"x_max":559,"o":"m 46 0 l 46 65 l 204 65 l 204 888 l 46 888 l 46 953 q 303 949 103 949 q 559 953 503 949 l 559 888 l 401 888 l 401 65 l 559 65 l 559 0 q 303 4 503 4 q 46 0 103 4 m 195 1195 q 226 1269 195 1236 q 302 1301 257 1301 q 378 1270 345 1301 q 411 1194 411 1239 q 380 1119 411 1152 q 302 1086 349 1086 q 225 1119 255 1086 q 195 1195 195 1152 z "},"ı":{"ha":443,"x_min":65,"x_max":397,"o":"m 65 0 l 65 65 l 161 65 l 161 494 q 148 541 161 533 q 69 549 134 549 l 69 614 l 311 625 l 311 65 l 397 65 l 397 0 q 235 4 248 4 q 65 0 194 4 z "},"Ĵ":{"ha":825,"x_min":32,"x_max":743,"o":"m 32 158 q 64 237 32 210 q 139 265 96 265 q 212 237 179 265 q 244 158 244 210 q 228 100 244 125 q 197 66 212 75 l 180 58 q 293 35 233 35 q 372 56 340 35 q 414 113 403 78 q 428 167 425 149 q 431 207 431 186 l 431 888 l 235 888 l 235 953 q 511 949 301 949 q 732 953 684 949 l 732 888 l 619 888 l 619 208 q 531 43 619 102 q 300 -16 443 -16 q 106 32 180 -16 q 32 158 32 79 m 307 1076 l 525 1250 l 743 1076 l 704 1022 l 525 1135 l 346 1022 l 307 1076 z "},"ĵ":{"ha":487,"x_min":-78,"x_max":516,"o":"m -78 -151 q -54 -89 -78 -114 q 9 -64 -29 -64 q 71 -89 47 -64 q 96 -150 96 -114 q 62 -220 96 -195 q 117 -228 94 -228 q 197 -176 172 -228 q 221 -58 221 -123 l 221 493 q 220 519 221 511 q 211 535 218 528 q 191 546 204 543 q 115 549 170 549 l 115 614 l 371 625 l 371 -58 q 295 -220 371 -161 q 119 -278 218 -278 q -23 -244 32 -278 q -78 -151 -78 -210 m 75 708 l 296 914 l 297 914 l 516 708 l 473 659 l 297 800 l 296 800 l 118 659 l 75 708 z "},"Ĺ":{"ha":960,"x_min":54,"x_max":893,"o":"m 54 0 l 54 65 l 204 65 l 204 888 l 54 888 l 54 953 q 309 949 107 949 q 589 953 528 949 l 589 888 l 401 888 l 401 65 l 545 65 q 638 78 596 65 q 708 110 681 92 q 757 160 734 129 q 790 215 779 192 q 810 276 802 239 q 821 332 819 314 q 828 380 823 350 l 893 380 l 850 0 l 54 0 m 126 1080 q 340 1213 323 1206 q 364 1215 350 1215 q 419 1187 397 1215 q 441 1128 441 1160 q 438 1104 441 1116 q 431 1085 435 1093 q 417 1072 427 1078 q 401 1063 407 1065 q 382 1056 396 1060 q 363 1051 368 1053 q 342 1048 358 1050 q 325 1046 326 1046 q 150 1018 208 1026 l 126 1080 z "},"ĺ":{"ha":443,"x_min":65,"x_max":473,"o":"m 65 0 l 65 65 l 161 65 l 161 833 q 147 880 161 872 q 65 888 132 888 l 65 953 l 311 964 l 311 65 l 407 65 l 407 0 q 236 4 265 4 q 65 0 199 4 m 158 1081 q 368 1211 355 1206 q 394 1215 380 1215 l 395 1215 q 450 1188 427 1215 q 473 1128 473 1162 q 471 1106 473 1117 q 464 1089 469 1096 q 454 1076 458 1082 q 439 1065 450 1069 q 425 1059 429 1061 q 407 1053 420 1056 q 390 1050 393 1050 q 372 1046 387 1049 l 357 1045 q 180 1019 307 1037 l 158 1081 z "},"Ľ":{"ha":960,"x_min":54,"x_max":893,"o":"m 54 0 l 54 66 l 204 66 l 204 886 l 54 886 l 54 953 q 317 949 186 949 q 572 951 418 949 q 568 956 572 951 q 561 965 564 961 q 552 978 557 970 q 544 994 547 986 q 538 1013 541 1002 q 536 1036 536 1023 q 566 1114 536 1082 q 643 1145 596 1145 q 733 1106 693 1145 q 774 1000 774 1068 q 708 824 774 899 q 606 750 643 750 q 588 758 596 750 q 579 775 579 765 q 607 801 579 785 q 670 856 635 818 q 720 956 705 895 q 644 928 684 928 q 590 940 622 928 l 590 886 l 401 886 l 401 66 l 532 66 q 674 92 616 66 q 762 167 732 118 q 805 264 791 216 q 827 382 818 313 l 893 382 l 851 0 l 54 0 z "},"ľ":{"ha":697,"x_min":65,"x_max":614,"o":"m 65 0 l 65 65 l 161 65 l 161 833 q 147 880 161 872 q 65 888 132 888 l 65 953 l 311 964 l 311 65 l 407 65 l 407 0 q 236 4 265 4 q 65 0 199 4 m 405 862 q 390 878 405 862 q 375 939 375 893 q 405 1016 375 985 q 482 1047 435 1047 q 574 1008 534 1047 q 614 903 614 970 q 548 726 614 800 q 444 653 482 653 q 426 661 435 653 q 418 679 418 669 q 435 701 418 689 q 475 727 453 713 q 522 776 497 741 q 558 860 546 811 q 484 831 522 831 q 405 862 435 831 z "},"Ł":{"ha":960,"x_min":54,"x_max":893,"o":"m 54 0 l 54 66 l 204 66 l 204 382 l 109 311 l 69 366 q 122 404 90 381 q 194 458 183 449 q 204 481 204 468 q 204 485 204 484 l 204 886 l 54 886 l 54 953 q 300 949 203 949 q 590 953 444 949 l 590 886 l 401 886 l 401 610 l 629 777 l 668 722 q 505 603 596 669 q 414 535 427 547 q 401 511 401 524 q 401 507 401 509 l 401 66 l 532 66 q 674 92 616 66 q 762 167 732 118 q 805 264 791 216 q 827 382 818 313 l 893 382 l 851 0 l 54 0 z "},"ł":{"ha":536,"x_min":90,"x_max":489,"o":"m 90 397 l 204 481 l 204 833 q 189 877 204 867 q 119 886 174 886 l 109 886 l 109 953 l 355 964 l 355 591 l 450 661 l 489 607 l 355 510 l 355 66 l 452 66 l 452 0 q 273 4 361 4 q 109 0 258 4 l 109 66 l 204 66 l 204 399 l 129 343 l 90 397 z "},"Ń":{"ha":1250,"x_min":54,"x_max":1194,"o":"m 54 0 l 54 65 l 89 65 q 164 69 130 65 q 199 77 193 72 q 204 106 204 82 l 204 888 l 54 888 l 54 953 l 372 953 q 400 950 393 953 q 418 935 407 947 l 971 285 l 971 847 q 965 876 971 871 q 929 884 960 880 q 856 888 892 888 l 821 888 l 821 953 q 1008 949 878 949 q 1194 953 1142 949 l 1194 888 l 1160 888 q 1084 884 1118 888 q 1050 876 1055 881 q 1044 847 1044 871 l 1044 45 q 1039 8 1044 17 q 1007 0 1034 0 q 985 3 990 0 q 970 18 981 5 l 278 832 l 278 106 q 283 77 278 82 q 319 69 289 72 q 393 65 357 65 l 428 65 l 428 0 q 240 4 371 4 q 54 0 107 4 m 481 1081 q 690 1211 678 1206 q 717 1215 703 1215 l 718 1215 q 773 1188 750 1215 q 796 1128 796 1162 q 794 1106 796 1117 q 786 1089 792 1096 q 777 1076 781 1082 q 762 1065 772 1069 q 747 1059 751 1061 q 729 1053 743 1056 q 713 1050 715 1050 q 694 1046 710 1049 l 680 1045 q 503 1019 629 1037 l 481 1081 z "},"ń":{"ha":886,"x_min":62,"x_max":854,"o":"m 62 0 l 62 65 l 158 65 l 158 494 q 143 541 158 533 q 62 549 129 549 l 62 614 l 301 625 l 301 475 q 545 625 378 625 q 705 578 652 625 q 758 425 758 532 l 758 65 l 854 65 l 854 0 q 679 4 738 4 q 504 0 621 4 l 504 65 l 600 65 l 600 440 q 581 545 600 515 q 524 575 561 575 q 382 517 447 575 q 317 355 317 460 l 317 65 l 412 65 l 412 0 q 237 4 296 4 q 62 0 179 4 m 353 743 q 533 905 517 895 q 575 920 553 919 q 631 892 607 920 q 656 832 656 865 q 627 775 656 793 q 472 715 597 757 q 387 686 419 697 l 353 743 z "},"Ň":{"ha":1250,"x_min":54,"x_max":1194,"o":"m 54 0 l 54 65 l 89 65 q 164 69 130 65 q 199 77 193 72 q 204 106 204 82 l 204 888 l 54 888 l 54 953 l 372 953 q 400 950 393 953 q 418 935 407 947 l 971 285 l 971 847 q 965 876 971 871 q 929 884 960 880 q 856 888 892 888 l 821 888 l 821 953 q 1008 949 878 949 q 1194 953 1142 949 l 1194 888 l 1160 888 q 1084 884 1118 888 q 1050 876 1055 881 q 1044 847 1044 871 l 1044 45 q 1039 8 1044 17 q 1007 0 1034 0 q 985 3 990 0 q 970 18 981 5 l 278 832 l 278 106 q 283 77 278 82 q 319 69 289 72 q 393 65 357 65 l 428 65 l 428 0 q 240 4 371 4 q 54 0 107 4 m 389 1219 l 406 1255 q 625 1196 621 1196 l 627 1196 q 844 1255 629 1196 l 860 1219 q 700 1112 783 1169 q 625 1067 632 1066 q 549 1112 617 1067 q 389 1219 465 1169 z "},"ň":{"ha":886,"x_min":62,"x_max":854,"o":"m 62 0 l 62 65 l 158 65 l 158 494 q 143 541 158 533 q 62 549 129 549 l 62 614 l 301 625 l 301 475 q 545 625 378 625 q 705 578 652 625 q 758 425 758 532 l 758 65 l 854 65 l 854 0 q 679 4 738 4 q 504 0 621 4 l 504 65 l 600 65 l 600 440 q 581 545 600 515 q 524 575 561 575 q 382 517 447 575 q 317 355 317 460 l 317 65 l 412 65 l 412 0 q 237 4 296 4 q 62 0 179 4 m 176 890 l 176 892 l 199 922 l 200 922 q 414 803 408 803 l 416 803 q 628 922 422 803 l 629 922 l 654 892 l 654 890 l 416 653 l 414 653 l 176 890 z "},"Ő":{"ha":1198,"x_min":89,"x_max":1109,"o":"m 89 471 q 227 830 89 693 q 600 968 366 968 q 970 832 831 968 q 1109 471 1109 696 q 972 119 1109 254 q 599 -16 835 -16 q 227 118 366 -16 q 89 471 89 252 m 301 492 q 358 187 301 294 q 464 78 398 113 q 599 43 530 43 q 833 175 751 43 q 897 492 897 281 q 839 782 897 684 q 734 880 799 847 q 599 913 669 913 q 470 883 532 913 q 367 793 407 852 q 301 492 301 692 m 387 1080 q 603 1211 585 1205 q 628 1215 612 1215 l 629 1215 q 680 1191 657 1214 q 703 1126 703 1168 l 703 1111 q 744 1137 722 1123 q 779 1160 766 1152 q 806 1177 791 1168 q 828 1191 821 1186 q 846 1201 836 1196 q 861 1208 856 1206 q 871 1212 865 1210 q 882 1215 878 1214 q 892 1215 886 1215 q 948 1188 926 1215 q 970 1129 970 1161 q 966 1101 970 1114 q 953 1081 962 1089 q 937 1067 943 1072 q 915 1057 930 1061 q 895 1051 900 1053 q 873 1047 890 1050 l 857 1046 q 676 1018 746 1027 l 661 1060 q 528 1037 616 1050 q 411 1018 440 1023 l 387 1080 z "},"ő":{"ha":798,"x_min":45,"x_max":772,"o":"m 45 302 q 138 537 45 446 q 399 629 232 629 q 659 537 564 629 q 753 302 753 446 q 660 80 753 168 q 399 -8 567 -8 q 138 80 231 -8 q 45 302 45 168 m 203 743 q 383 905 367 895 q 425 920 403 919 q 483 892 458 920 q 507 832 507 865 q 479 776 507 793 q 325 717 450 758 q 237 686 271 697 l 203 743 m 222 318 q 223 255 222 277 q 229 195 224 233 q 244 136 233 157 q 274 92 256 115 q 324 58 293 68 q 398 47 355 47 q 473 58 441 47 q 523 92 504 68 q 553 136 542 115 q 569 195 564 157 q 574 255 574 233 q 575 318 575 277 q 546 509 575 461 q 399 579 501 579 q 245 498 288 579 q 222 318 222 452 m 469 743 q 652 907 635 896 q 692 920 670 919 q 749 892 726 920 q 772 832 772 864 q 742 775 772 793 q 593 717 711 757 q 503 686 537 699 l 469 743 z "},"Œ":{"ha":1624,"x_min":115,"x_max":1579,"o":"m 115 471 q 259 830 115 692 q 648 968 403 968 q 778 960 693 968 q 930 953 863 953 l 1492 953 l 1535 616 l 1468 616 q 1445 736 1459 693 q 1402 818 1432 779 q 1321 871 1373 856 q 1185 886 1268 886 l 996 886 l 996 528 l 1122 528 q 1252 563 1217 530 q 1289 690 1287 595 l 1354 690 l 1354 298 l 1289 298 q 1247 431 1288 401 q 1104 461 1207 461 l 996 461 l 996 66 l 1164 66 q 1269 70 1229 66 q 1363 98 1308 74 q 1449 170 1418 122 q 1512 382 1487 228 l 1579 382 l 1515 0 l 928 0 q 777 -8 868 0 q 648 -16 686 -16 q 259 118 403 -16 q 115 471 115 252 m 321 494 q 350 280 321 372 q 429 136 379 187 q 535 60 479 85 q 654 35 591 35 q 794 89 763 35 q 825 311 825 143 l 825 663 q 792 866 825 815 q 657 917 758 917 q 411 802 500 917 q 321 494 321 688 z "},"œ":{"ha":1241,"x_min":43,"x_max":1196,"o":"m 139 81 q 91 125 139 81 q 43 313 43 170 q 139 543 43 456 q 393 629 236 629 q 661 528 560 629 l 663 528 q 918 629 758 629 q 1054 603 998 629 q 1141 532 1111 576 q 1183 441 1171 488 q 1196 343 1196 395 q 1190 315 1196 325 q 1176 304 1183 306 q 1154 302 1168 302 l 743 302 q 950 49 750 48 q 1057 78 1010 49 q 1125 155 1104 107 q 1128 160 1126 157 q 1130 166 1129 164 q 1132 171 1131 168 q 1135 175 1133 174 q 1138 179 1136 176 q 1142 182 1140 182 q 1148 184 1145 183 q 1155 186 1152 186 q 1162 187 1158 187 q 1194 161 1194 187 q 1180 120 1194 146 q 1138 64 1166 94 q 1057 14 1109 35 q 937 -7 1004 -7 q 664 97 773 -7 q 393 -7 568 -7 q 139 81 235 -7 m 205 313 q 250 111 205 171 q 395 43 299 43 q 528 97 475 43 q 585 306 585 157 l 585 338 q 545 507 585 450 q 395 578 494 578 q 257 522 307 578 q 205 345 208 467 l 205 313 m 745 349 l 1064 349 q 1057 425 1063 393 q 1037 496 1051 457 q 993 556 1023 534 q 917 578 962 578 q 786 511 833 578 q 745 349 747 457 z "},"Ŕ":{"ha":1197,"x_min":54,"x_max":1192,"o":"m 54 0 l 54 65 l 204 65 l 204 888 l 54 888 l 54 953 l 582 953 q 884 879 772 953 q 996 696 996 806 q 937 562 996 622 q 764 472 879 501 q 920 310 897 422 q 926 254 920 307 q 935 192 933 200 q 943 141 939 161 q 958 92 947 121 q 988 49 968 64 q 1038 35 1008 35 q 1096 60 1071 35 q 1126 131 1121 85 q 1129 147 1128 142 q 1138 158 1131 153 q 1158 163 1145 163 q 1192 132 1192 163 q 1189 108 1192 123 q 1176 71 1186 93 q 1148 30 1165 49 q 1099 -2 1132 11 q 1025 -16 1067 -16 q 821 21 892 -16 q 765 59 786 38 q 736 110 745 79 q 726 162 728 140 q 724 228 724 183 q 718 340 724 311 q 679 404 711 370 q 555 452 636 452 l 393 452 l 393 65 l 543 65 l 543 0 q 299 4 493 4 q 54 0 104 4 m 393 501 l 554 501 q 665 515 619 501 q 734 546 711 529 q 769 594 757 562 q 782 644 781 625 q 783 694 783 663 q 781 748 783 728 q 767 798 779 768 q 733 845 755 828 q 666 874 711 861 q 557 888 621 888 l 393 888 l 393 501 m 468 1081 q 677 1211 665 1206 q 704 1215 690 1215 l 705 1215 q 760 1188 737 1215 q 783 1128 783 1162 q 781 1106 783 1117 q 773 1089 779 1096 q 764 1076 768 1082 q 749 1065 760 1069 q 734 1059 739 1061 q 716 1053 730 1056 q 700 1050 703 1050 q 682 1046 697 1049 l 667 1045 q 490 1019 616 1037 l 468 1081 z "},"ŕ":{"ha":656,"x_min":52,"x_max":614,"o":"m 52 0 l 52 65 l 147 65 l 147 494 q 133 541 147 533 q 52 549 118 549 l 52 614 l 282 625 l 282 468 q 467 625 339 625 q 569 594 525 625 q 614 511 614 564 q 588 450 614 473 q 529 427 562 427 q 470 449 496 427 q 444 511 444 471 q 471 575 444 549 q 386 548 422 575 q 332 477 350 521 q 306 392 314 433 q 297 309 297 350 l 297 65 l 418 65 l 418 0 q 227 4 368 4 q 52 0 197 4 m 243 743 q 298 794 264 763 q 418 902 395 884 q 467 920 441 920 q 524 892 501 920 q 547 832 547 864 q 517 775 547 793 q 368 717 486 757 q 278 686 313 699 l 243 743 z "},"Ř":{"ha":1197,"x_min":54,"x_max":1192,"o":"m 54 0 l 54 65 l 204 65 l 204 888 l 54 888 l 54 953 l 582 953 q 884 879 772 953 q 996 696 996 806 q 937 562 996 622 q 764 472 879 501 q 920 310 897 422 q 926 254 920 307 q 935 192 933 200 q 943 141 939 161 q 958 92 947 121 q 988 49 968 64 q 1038 35 1008 35 q 1096 60 1071 35 q 1126 131 1121 85 q 1129 147 1128 142 q 1138 158 1131 153 q 1158 163 1145 163 q 1192 132 1192 163 q 1189 108 1192 123 q 1176 71 1186 93 q 1148 30 1165 49 q 1099 -2 1132 11 q 1025 -16 1067 -16 q 821 21 892 -16 q 765 59 786 38 q 736 110 745 79 q 726 162 728 140 q 724 228 724 183 q 718 340 724 311 q 679 404 711 370 q 555 452 636 452 l 393 452 l 393 65 l 543 65 l 543 0 q 299 4 493 4 q 54 0 104 4 m 282 1219 l 297 1255 q 517 1196 512 1196 l 518 1196 q 736 1255 521 1196 l 753 1219 q 522 1068 526 1069 q 517 1067 519 1067 q 454 1104 509 1067 q 282 1219 368 1162 m 393 501 l 554 501 q 665 515 619 501 q 734 546 711 529 q 769 594 757 562 q 782 644 781 625 q 783 694 783 663 q 781 748 783 728 q 767 798 779 768 q 733 845 755 828 q 666 874 711 861 q 557 888 621 888 l 393 888 l 393 501 z "},"ř":{"ha":656,"x_min":52,"x_max":614,"o":"m 52 0 l 52 65 l 147 65 l 147 494 q 133 541 147 533 q 52 549 118 549 l 52 614 l 282 625 l 282 468 q 467 625 339 625 q 569 594 525 625 q 614 511 614 564 q 588 450 614 473 q 529 427 562 427 q 470 449 496 427 q 444 511 444 471 q 471 575 444 549 q 386 548 422 575 q 332 477 350 521 q 306 392 314 433 q 297 309 297 350 l 297 65 l 418 65 l 418 0 q 227 4 368 4 q 52 0 197 4 m 99 890 l 99 892 l 122 922 l 123 922 q 338 803 332 803 l 339 803 q 551 922 346 803 l 553 922 l 578 892 l 578 890 l 339 653 l 338 653 l 99 890 z "},"Ś":{"ha":886,"x_min":89,"x_max":798,"o":"m 89 24 l 89 277 q 94 310 89 303 q 122 317 98 317 q 139 315 133 317 q 149 310 146 314 q 153 301 153 306 q 154 285 154 296 q 194 162 158 213 q 284 89 229 111 q 386 58 339 66 q 482 50 433 50 q 621 100 579 50 q 663 212 663 150 q 607 334 663 277 q 557 363 585 355 q 431 393 530 371 q 258 439 304 421 q 164 504 211 457 q 89 689 89 583 q 170 887 89 807 q 400 968 250 968 q 637 892 542 968 l 700 953 q 728 968 717 968 q 749 960 745 968 q 753 929 753 953 l 753 675 q 748 643 753 650 q 720 636 743 636 q 694 641 699 636 q 685 672 689 646 q 621 817 669 761 q 518 890 572 872 q 401 908 464 908 q 266 863 307 908 q 224 762 224 818 q 266 667 224 704 q 357 618 307 629 l 558 575 q 728 474 658 554 q 798 282 798 393 q 719 74 798 163 q 482 -16 640 -16 q 204 61 307 -16 l 140 -3 q 114 -16 127 -15 q 93 -8 97 -16 q 89 24 89 0 m 275 1081 q 484 1211 472 1206 q 511 1215 496 1215 l 512 1215 q 567 1188 544 1215 q 590 1128 590 1162 q 588 1106 590 1117 q 580 1089 586 1096 q 570 1076 574 1082 q 556 1065 566 1069 q 541 1059 545 1061 q 523 1053 537 1056 q 507 1050 509 1050 q 488 1046 504 1049 l 473 1045 q 297 1019 423 1037 l 275 1081 z "},"ś":{"ha":630,"x_min":53,"x_max":576,"o":"m 53 31 l 53 178 q 58 213 53 204 q 86 222 64 222 q 102 221 96 222 q 113 215 109 220 q 118 206 117 210 q 122 194 119 203 q 126 182 125 186 q 321 43 174 43 q 478 144 477 43 q 347 250 478 228 q 316 255 346 250 q 272 262 286 260 q 226 273 258 265 q 174 290 193 281 q 129 314 155 298 q 89 347 103 329 q 63 391 74 366 q 53 447 53 416 q 306 629 53 629 q 406 617 367 629 q 447 606 444 606 q 479 617 456 606 q 513 628 501 628 q 536 593 536 628 l 536 476 q 530 448 536 456 q 504 440 524 440 q 476 451 483 440 q 469 478 469 463 q 458 515 469 493 q 422 555 447 538 q 306 583 384 583 q 151 498 152 583 q 182 446 151 467 q 249 417 212 425 q 337 401 285 410 q 410 386 389 393 q 526 317 476 366 q 576 193 576 268 q 322 -7 576 -7 q 157 37 220 -7 l 155 37 q 77 -7 94 -7 q 53 31 53 -7 m 208 743 q 264 794 229 763 q 384 902 361 884 q 432 920 407 920 q 490 892 467 920 q 513 832 513 864 q 482 775 513 793 q 334 717 452 757 q 243 686 278 699 l 208 743 z "},"Ŝ":{"ha":886,"x_min":89,"x_max":798,"o":"m 89 24 l 89 277 q 94 310 89 303 q 122 317 98 317 q 139 315 133 317 q 149 310 146 314 q 153 301 153 306 q 154 285 154 296 q 194 162 158 213 q 284 89 229 111 q 386 58 339 66 q 482 50 433 50 q 621 100 579 50 q 663 212 663 150 q 607 334 663 277 q 557 363 585 355 q 431 393 530 371 q 258 439 304 421 q 164 504 211 457 q 89 689 89 583 q 170 887 89 807 q 400 968 250 968 q 637 892 542 968 l 700 953 q 728 968 717 968 q 749 960 745 968 q 753 929 753 953 l 753 675 q 748 643 753 650 q 720 636 743 636 q 694 641 699 636 q 685 672 689 646 q 621 817 669 761 q 518 890 572 872 q 401 908 464 908 q 266 863 307 908 q 224 762 224 818 q 266 667 224 704 q 357 618 307 629 l 558 575 q 728 474 658 554 q 798 282 798 393 q 719 74 798 163 q 482 -16 640 -16 q 204 61 307 -16 l 140 -3 q 114 -16 127 -15 q 93 -8 97 -16 q 89 24 89 0 m 182 1076 l 400 1250 l 618 1076 l 579 1022 l 400 1135 l 221 1022 l 182 1076 z "},"ŝ":{"ha":629,"x_min":53,"x_max":576,"o":"m 53 31 l 53 182 q 58 215 53 208 q 86 222 62 222 q 109 219 103 222 q 119 203 115 216 q 138 151 127 174 q 170 100 149 129 q 230 57 192 72 q 319 41 268 41 q 478 146 477 41 q 463 196 478 175 q 418 228 447 216 q 370 245 389 240 q 323 254 351 250 q 229 272 256 267 q 169 293 203 278 q 109 330 135 307 q 53 447 53 378 q 68 523 53 490 q 111 576 83 557 q 164 606 138 595 q 224 622 191 618 q 274 628 258 627 q 309 629 290 629 q 449 603 396 629 q 511 629 503 629 q 532 622 528 629 q 536 590 536 614 l 536 479 q 531 447 536 453 q 503 440 526 440 q 477 446 481 440 q 471 468 472 452 q 307 585 460 585 q 151 498 152 585 q 164 458 151 475 q 205 432 178 441 q 247 418 232 422 q 293 408 262 414 q 423 381 383 393 q 500 342 463 370 q 576 195 576 281 q 561 109 576 146 q 519 51 546 72 q 465 17 492 31 q 404 -1 439 4 q 354 -7 370 -5 q 319 -8 339 -8 q 155 36 220 -8 l 119 12 q 78 -8 90 -9 q 57 0 61 -8 q 53 31 53 8 m 87 708 l 308 914 l 309 914 l 528 708 l 486 659 l 309 800 l 308 800 l 130 659 l 87 708 z "},"Ş":{"ha":887,"x_min":87,"x_max":798,"o":"m 87 25 l 87 286 q 121 317 89 317 q 144 312 136 317 q 152 301 151 307 q 154 278 153 294 q 158 248 155 261 q 271 98 179 144 q 482 52 363 52 q 620 101 579 52 q 661 211 661 151 q 575 354 661 304 q 428 394 547 370 q 278 429 309 418 q 144 527 201 458 q 87 690 87 595 q 170 888 87 808 q 399 968 252 968 q 636 890 541 968 l 637 890 q 730 966 707 967 q 753 932 753 966 l 753 668 q 744 642 751 648 q 720 636 737 636 q 693 643 700 636 q 684 668 686 650 q 585 848 665 790 q 400 907 505 907 q 268 864 313 907 q 224 764 224 822 q 301 640 224 684 q 448 598 332 622 q 585 568 564 575 q 734 465 671 541 q 798 282 798 389 q 741 99 798 180 q 567 -7 684 17 l 567 -41 q 699 -153 699 -65 q 602 -251 699 -224 q 275 -277 505 -277 l 275 -227 l 285 -227 q 477 -211 416 -227 q 539 -154 539 -195 q 407 -83 539 -86 l 407 -11 q 356 -3 380 -8 q 313 8 332 1 q 278 21 294 16 q 249 34 262 26 q 229 46 236 41 q 212 56 221 50 q 201 62 203 62 q 111 -14 131 -14 q 87 25 87 -14 z "},"ş":{"ha":630,"x_min":53,"x_max":576,"o":"m 53 31 l 53 178 q 58 213 53 204 q 86 222 64 222 q 100 221 94 222 q 109 218 106 220 q 115 211 113 216 q 119 203 118 205 q 123 192 119 201 q 127 178 126 182 q 321 43 175 43 q 476 144 476 43 q 334 253 476 229 q 307 257 332 253 q 266 264 281 261 q 221 274 250 267 q 172 291 192 282 q 128 314 153 300 q 89 347 103 329 q 63 391 74 366 q 53 446 53 416 q 306 629 53 629 q 383 623 353 629 q 426 611 412 616 q 446 606 439 606 q 478 617 455 606 q 514 628 501 628 q 538 590 538 628 q 537 577 538 586 q 536 566 536 568 l 536 475 q 504 440 536 440 q 477 449 484 440 q 469 470 469 457 q 463 502 469 482 q 439 541 456 522 q 304 583 397 583 l 302 583 q 151 498 151 583 q 181 446 151 467 q 245 418 211 425 q 331 403 279 411 q 403 389 383 395 q 523 321 469 370 q 576 193 576 272 q 393 -3 576 24 l 393 -41 q 526 -153 527 -65 q 510 -203 526 -182 q 461 -238 494 -225 q 395 -260 428 -252 q 310 -272 363 -268 q 221 -276 257 -275 q 127 -277 184 -277 l 102 -277 l 102 -227 l 118 -227 q 303 -212 240 -227 q 367 -154 366 -197 q 235 -83 367 -85 l 235 0 l 240 0 q 157 37 203 8 l 155 37 q 77 -7 92 -7 q 53 31 53 -7 z "},"Š":{"ha":886,"x_min":89,"x_max":798,"o":"m 89 24 l 89 277 q 94 310 89 303 q 122 317 98 317 q 139 315 133 317 q 149 310 146 314 q 153 301 153 306 q 154 285 154 296 q 194 162 158 213 q 284 89 229 111 q 386 58 339 66 q 482 50 433 50 q 621 100 579 50 q 663 212 663 150 q 607 334 663 277 q 557 363 585 355 q 431 393 530 371 q 258 439 304 421 q 164 504 211 457 q 89 689 89 583 q 170 887 89 807 q 400 968 250 968 q 637 892 542 968 l 700 953 q 728 968 717 968 q 749 960 745 968 q 753 929 753 953 l 753 675 q 748 643 753 650 q 720 636 743 636 q 694 641 699 636 q 685 672 689 646 q 621 817 669 761 q 518 890 572 872 q 401 908 464 908 q 266 863 307 908 q 224 762 224 818 q 266 667 224 704 q 357 618 307 629 l 558 575 q 728 474 658 554 q 798 282 798 393 q 719 74 798 163 q 482 -16 640 -16 q 204 61 307 -16 l 140 -3 q 114 -16 127 -15 q 93 -8 97 -16 q 89 24 89 0 m 207 1219 l 224 1255 q 441 1196 439 1196 l 443 1196 q 661 1255 446 1196 l 677 1219 q 447 1068 451 1069 q 441 1067 444 1067 q 379 1104 433 1067 q 207 1219 293 1162 z "},"š":{"ha":630,"x_min":53,"x_max":576,"o":"m 53 31 l 53 178 q 58 213 53 204 q 86 222 64 222 q 102 221 96 222 q 113 215 109 220 q 118 206 117 210 q 122 194 119 203 q 126 182 125 186 q 321 43 174 43 q 478 144 477 43 q 347 250 478 227 q 316 255 346 250 q 272 262 286 260 q 226 273 258 265 q 174 290 193 281 q 129 314 155 298 q 89 347 103 329 q 63 391 74 366 q 53 447 53 416 q 306 629 53 629 q 406 617 367 629 q 447 606 444 606 q 479 617 456 606 q 513 628 501 628 q 536 593 536 628 l 536 476 q 530 448 536 456 q 504 440 524 440 q 475 451 483 440 q 469 476 468 461 q 458 514 469 492 q 421 555 447 536 q 306 583 382 583 l 302 583 q 151 498 151 583 q 182 446 151 467 q 249 417 212 425 q 337 401 285 410 q 410 386 389 393 q 526 317 476 366 q 576 193 576 268 q 322 -7 576 -7 q 157 37 220 -7 l 155 37 q 77 -7 94 -7 q 53 31 53 -7 m 56 890 l 56 892 l 79 922 l 81 922 q 294 803 289 803 l 296 803 q 509 922 302 803 l 510 922 l 534 892 l 534 890 l 296 653 l 294 653 l 56 890 z "},"Ţ":{"ha":1111,"x_min":57,"x_max":1053,"o":"m 57 602 l 86 937 l 1022 937 l 1053 602 l 986 602 q 968 730 979 685 q 930 810 957 775 q 859 858 904 846 q 739 871 814 871 l 654 871 l 654 66 l 867 66 l 867 0 l 633 4 l 633 -41 q 766 -153 767 -65 q 750 -203 766 -182 q 701 -238 734 -225 q 635 -260 668 -252 q 550 -272 603 -268 q 461 -276 497 -275 q 368 -277 425 -277 l 342 -277 l 342 -227 l 358 -227 q 544 -211 481 -227 q 607 -154 607 -196 q 475 -83 607 -85 l 475 4 l 243 0 l 243 66 l 456 66 l 456 871 l 371 871 q 298 868 326 871 q 233 850 271 865 q 172 804 195 835 q 123 602 139 762 l 57 602 z "},"ţ":{"ha":621,"x_min":29,"x_max":595,"o":"m 29 551 l 29 602 q 146 650 98 604 q 214 755 195 696 q 235 882 233 815 l 300 882 l 300 618 l 504 618 l 504 551 l 300 551 l 300 171 q 304 112 300 135 q 327 69 309 89 q 379 49 346 49 q 438 78 411 49 q 465 176 465 107 l 465 245 l 532 245 l 532 174 q 418 0 532 49 l 463 0 l 463 -41 q 595 -153 595 -65 q 578 -203 595 -182 q 530 -238 562 -225 q 465 -260 497 -252 q 378 -272 432 -268 q 290 -276 325 -275 q 197 -277 254 -277 l 171 -277 l 171 -227 l 186 -227 q 372 -211 309 -227 q 436 -154 435 -196 q 304 -83 436 -85 l 304 -4 q 197 38 235 5 q 150 102 158 71 q 142 176 142 134 l 142 551 l 29 551 z "},"Ť":{"ha":1111,"x_min":58,"x_max":1051,"o":"m 58 603 l 87 937 l 1022 937 l 1051 603 l 986 603 q 977 692 981 661 q 958 765 972 724 q 921 825 943 806 q 858 858 899 844 q 760 872 818 872 l 654 872 l 654 65 l 867 65 l 867 0 q 555 4 791 4 q 244 0 319 4 l 244 65 l 457 65 l 457 872 l 350 872 q 251 858 292 872 q 188 824 210 843 q 152 764 165 804 q 133 692 138 724 q 123 603 127 661 l 58 603 m 319 1219 l 336 1255 q 555 1196 551 1196 l 557 1196 q 774 1255 558 1196 l 790 1219 q 631 1112 713 1169 q 555 1067 563 1066 q 479 1112 547 1067 q 319 1219 396 1169 z "},"ť":{"ha":621,"x_min":29,"x_max":635,"o":"m 29 551 l 29 602 q 147 650 98 604 q 215 755 196 696 q 235 882 233 815 l 300 882 l 300 618 l 504 618 l 504 551 l 300 551 l 300 171 q 304 112 300 135 q 327 69 309 89 q 379 49 346 49 q 439 78 412 49 q 465 176 465 107 l 465 245 l 532 245 l 532 186 q 494 56 532 105 q 361 -7 447 -7 q 242 10 289 -7 q 174 58 195 26 q 148 117 154 90 q 142 182 142 144 l 142 551 l 29 551 m 427 913 q 412 929 427 913 q 397 990 397 945 q 427 1067 397 1036 q 504 1099 457 1099 q 595 1060 555 1099 q 635 954 635 1021 q 569 778 635 851 q 467 704 504 704 q 449 712 457 704 q 440 731 440 721 q 457 752 440 741 q 496 777 475 764 q 543 826 518 790 q 579 909 567 861 q 504 882 546 882 q 427 913 456 882 z "},"Ū":{"ha":1227,"x_min":54,"x_max":1174,"o":"m 54 888 l 54 953 q 303 949 107 949 q 551 953 498 949 l 551 888 l 401 888 l 401 310 q 404 252 401 275 q 419 186 406 228 q 456 118 432 144 q 529 71 479 92 q 647 50 578 50 q 759 65 707 50 q 855 110 811 79 q 924 195 899 140 q 950 323 950 250 l 950 847 q 944 876 950 871 q 908 884 939 880 q 835 888 871 888 l 800 888 l 800 953 q 987 949 857 949 q 1174 953 1121 949 l 1174 888 l 1139 888 q 1064 884 1097 888 q 1029 876 1035 881 q 1023 847 1023 871 l 1023 318 q 926 82 1023 179 q 642 -16 828 -16 q 319 80 435 -16 q 204 321 204 175 l 204 888 l 54 888 m 290 1099 l 290 1170 l 937 1170 l 937 1099 l 290 1099 z "},"ū":{"ha":886,"x_min":62,"x_max":854,"o":"m 62 549 l 62 614 l 317 625 l 317 151 q 335 64 317 87 q 428 41 353 41 q 552 93 505 41 q 600 229 600 144 l 600 494 q 586 541 600 533 q 504 549 571 549 l 504 614 l 758 625 l 758 119 q 773 73 758 81 q 854 65 787 65 l 854 0 l 608 -8 l 608 100 q 408 -8 545 -9 q 224 30 290 -8 q 158 171 158 68 l 158 494 q 143 541 158 533 q 62 549 129 549 m 170 767 l 170 839 l 746 839 l 746 767 l 170 767 z "},"Ŭ":{"ha":1227,"x_min":54,"x_max":1174,"o":"m 54 888 l 54 953 q 303 949 107 949 q 551 953 498 949 l 551 888 l 401 888 l 401 310 q 404 252 401 275 q 419 186 406 228 q 456 118 432 144 q 529 71 479 92 q 647 50 578 50 q 759 65 707 50 q 855 110 811 79 q 924 195 899 140 q 950 323 950 250 l 950 847 q 944 876 950 871 q 908 884 939 880 q 835 888 871 888 l 800 888 l 800 953 q 987 949 857 949 q 1174 953 1121 949 l 1174 888 l 1139 888 q 1064 884 1097 888 q 1029 876 1035 881 q 1023 847 1023 871 l 1023 318 q 926 82 1023 179 q 642 -16 828 -16 q 319 80 435 -16 q 204 321 204 175 l 204 888 l 54 888 m 366 1242 l 416 1242 q 614 1136 426 1136 q 808 1242 798 1136 l 861 1242 q 781 1099 855 1149 q 614 1048 707 1048 q 446 1099 521 1048 q 366 1242 372 1149 z "},"ŭ":{"ha":886,"x_min":62,"x_max":854,"o":"m 62 549 l 62 614 l 317 625 l 317 151 q 335 64 317 87 q 428 41 353 41 q 552 93 505 41 q 600 229 600 144 l 600 494 q 586 541 600 533 q 504 549 571 549 l 504 614 l 758 625 l 758 119 q 773 73 758 81 q 854 65 787 65 l 854 0 l 608 -8 l 608 100 q 408 -8 545 -9 q 224 30 290 -8 q 158 171 158 68 l 158 494 q 143 541 158 533 q 62 549 129 549 m 211 907 l 261 907 q 288 836 264 865 q 345 794 311 807 q 406 777 379 782 q 458 772 433 772 q 531 780 493 772 q 609 820 568 787 q 654 907 650 852 l 704 907 q 626 745 700 804 q 458 686 553 686 q 288 747 361 686 q 211 907 214 807 z "},"Ů":{"ha":1227,"x_min":54,"x_max":1174,"o":"m 54 888 l 54 953 q 303 949 107 949 q 551 953 498 949 l 551 888 l 401 888 l 401 310 q 404 252 401 275 q 419 186 406 228 q 456 118 432 144 q 529 71 479 92 q 647 50 578 50 q 759 65 707 50 q 855 110 811 79 q 924 195 899 140 q 950 323 950 250 l 950 847 q 944 876 950 871 q 908 884 939 880 q 835 888 871 888 l 800 888 l 800 953 q 987 949 857 949 q 1174 953 1121 949 l 1174 888 l 1139 888 q 1064 884 1097 888 q 1029 876 1035 881 q 1023 847 1023 871 l 1023 318 q 926 82 1023 179 q 642 -16 828 -16 q 319 80 435 -16 q 204 321 204 175 l 204 888 l 54 888 m 509 1125 q 549 1214 509 1174 q 676 1253 589 1253 q 797 1218 751 1253 q 842 1125 842 1182 q 802 1038 842 1076 q 675 999 762 999 q 554 1034 600 999 q 509 1125 509 1068 m 576 1126 q 601 1063 576 1078 q 672 1049 625 1049 l 679 1049 q 725 1052 708 1049 q 759 1073 741 1055 q 777 1125 777 1090 q 753 1185 777 1168 q 677 1203 729 1203 q 601 1188 625 1203 q 576 1126 576 1173 z "},"ů":{"ha":886,"x_min":62,"x_max":854,"o":"m 62 549 l 62 614 l 317 625 l 317 151 q 335 64 317 87 q 428 41 353 41 q 552 93 505 41 q 600 229 600 144 l 600 494 q 586 541 600 533 q 504 549 571 549 l 504 614 l 758 625 l 758 119 q 773 73 758 81 q 854 65 787 65 l 854 0 l 608 -8 l 608 100 q 408 -8 545 -9 q 224 30 290 -8 q 158 171 158 68 l 158 494 q 143 541 158 533 q 62 549 129 549 m 293 798 q 337 885 293 852 q 456 918 382 918 q 584 881 545 918 q 624 797 624 843 q 585 714 624 751 q 458 676 546 676 q 332 714 371 676 q 293 798 293 751 m 358 798 q 366 756 358 771 q 392 734 374 741 q 424 726 410 728 q 465 725 437 725 q 558 798 558 725 q 551 839 558 824 q 525 861 543 854 q 493 868 507 867 q 450 869 479 869 q 358 798 358 869 z "},"Ű":{"ha":1227,"x_min":54,"x_max":1174,"o":"m 54 888 l 54 953 q 303 949 107 949 q 551 953 498 949 l 551 888 l 401 888 l 401 310 q 404 252 401 275 q 419 186 406 228 q 456 118 432 144 q 529 71 479 92 q 647 50 578 50 q 759 65 707 50 q 855 110 811 79 q 924 195 899 140 q 950 323 950 250 l 950 847 q 944 876 950 871 q 908 884 939 880 q 835 888 871 888 l 800 888 l 800 953 q 987 949 857 949 q 1174 953 1121 949 l 1174 888 l 1139 888 q 1064 884 1097 888 q 1029 876 1035 881 q 1023 847 1023 871 l 1023 318 q 926 82 1023 179 q 642 -16 828 -16 q 319 80 435 -16 q 204 321 204 175 l 204 888 l 54 888 m 403 1080 q 618 1211 600 1205 q 643 1215 627 1215 l 644 1215 q 695 1191 672 1214 q 718 1126 718 1168 l 718 1111 q 760 1137 738 1123 q 794 1160 782 1152 q 822 1177 807 1168 q 844 1191 836 1186 q 861 1201 851 1196 q 876 1208 871 1206 q 887 1212 880 1210 q 897 1215 893 1214 q 907 1215 901 1215 q 963 1188 941 1215 q 985 1129 985 1161 q 981 1101 985 1114 q 968 1081 978 1089 q 952 1067 958 1072 q 931 1057 946 1061 q 910 1051 916 1053 q 889 1047 905 1050 l 872 1046 q 692 1018 761 1027 l 676 1060 q 544 1037 631 1050 q 427 1018 456 1023 l 403 1080 z "},"ű":{"ha":886,"x_min":62,"x_max":854,"o":"m 62 549 l 62 614 l 317 625 l 317 151 q 335 64 317 87 q 428 41 353 41 q 552 93 505 41 q 600 229 600 144 l 600 494 q 586 541 600 533 q 504 549 571 549 l 504 614 l 758 625 l 758 119 q 773 73 758 81 q 854 65 787 65 l 854 0 l 608 -8 l 608 100 q 408 -8 545 -9 q 224 30 290 -8 q 158 171 158 68 l 158 494 q 143 541 158 533 q 62 549 129 549 m 264 743 q 444 905 428 895 q 486 920 464 919 q 543 892 518 920 q 567 832 567 865 q 538 776 567 793 q 385 717 510 758 q 297 686 330 697 l 264 743 m 529 743 q 585 794 550 763 q 705 902 682 884 q 753 920 728 920 q 810 892 787 920 q 833 832 833 864 q 803 775 833 793 q 654 717 772 757 q 564 686 599 699 l 529 743 z "},"Ÿ":{"ha":1206,"x_min":26,"x_max":1179,"o":"m 26 888 l 26 953 q 256 949 75 949 q 510 953 453 949 l 510 888 l 392 888 l 673 475 l 933 857 q 943 873 936 861 q 838 888 907 887 l 838 953 q 1021 949 889 949 q 1064 949 1038 949 q 1125 951 1090 950 q 1179 953 1160 953 l 1179 888 l 1150 888 q 1078 884 1114 888 q 1029 868 1039 878 q 1023 860 1027 864 l 697 380 l 697 65 l 848 65 l 848 0 q 603 4 795 4 q 358 0 408 4 l 358 65 l 509 65 l 509 380 l 163 888 l 26 888 m 340 1133 q 371 1210 340 1178 q 447 1242 401 1242 q 523 1211 490 1242 q 555 1133 555 1179 q 525 1058 555 1090 q 449 1025 494 1025 q 373 1056 406 1025 q 340 1133 340 1087 m 650 1133 q 681 1208 650 1175 q 758 1242 713 1242 q 833 1211 801 1242 q 865 1133 865 1179 q 834 1057 865 1088 q 759 1025 803 1025 q 682 1055 714 1025 q 650 1133 650 1086 z "},"Ź":{"ha":975,"x_min":89,"x_max":896,"o":"m 89 36 q 100 72 89 56 l 656 888 l 475 888 q 257 822 329 888 q 176 618 184 757 l 111 618 l 127 953 l 842 953 q 867 951 860 953 q 881 942 875 950 q 886 918 886 935 q 875 885 886 901 l 321 71 l 515 71 q 622 81 575 71 q 701 107 669 92 q 755 150 732 122 q 792 201 779 178 q 813 263 804 225 q 825 327 822 301 q 831 395 828 353 l 896 395 l 871 0 l 134 0 q 107 1 115 0 q 94 10 100 3 q 89 36 89 18 m 366 1081 q 575 1211 563 1206 q 602 1215 587 1215 l 603 1215 q 658 1188 635 1215 q 681 1128 681 1162 q 679 1106 681 1117 q 671 1089 677 1096 q 661 1076 665 1082 q 647 1065 657 1069 q 632 1059 636 1061 q 614 1053 628 1056 q 597 1050 600 1050 q 579 1046 595 1049 l 564 1045 q 388 1019 514 1037 l 366 1081 z "},"ź":{"ha":709,"x_min":45,"x_max":642,"o":"m 45 31 q 57 61 45 46 l 444 567 l 326 567 q 180 525 220 567 q 132 374 139 482 l 66 374 l 83 616 l 593 616 q 617 616 610 616 q 631 608 624 615 q 637 587 637 602 q 624 557 637 576 l 239 56 l 358 56 q 467 70 425 56 q 532 117 510 83 q 563 185 554 150 q 576 281 571 220 l 642 281 l 616 0 l 89 0 q 64 1 72 0 q 51 10 57 3 q 45 31 45 17 m 248 743 q 429 907 413 896 q 469 920 448 919 q 526 892 503 920 q 550 832 550 865 q 519 775 550 793 q 364 714 489 757 q 282 686 313 697 l 248 743 z "},"Ż":{"ha":975,"x_min":89,"x_max":896,"o":"m 89 36 q 100 72 89 56 l 656 888 l 475 888 q 257 822 329 888 q 176 618 184 757 l 111 618 l 127 953 l 842 953 q 867 951 860 953 q 881 942 875 950 q 886 918 886 935 q 875 885 886 901 l 321 71 l 515 71 q 622 81 575 71 q 701 107 669 92 q 755 150 732 122 q 792 201 779 178 q 813 263 804 225 q 825 327 822 301 q 831 395 828 353 l 896 395 l 871 0 l 134 0 q 107 1 115 0 q 94 10 100 3 q 89 36 89 18 m 424 1195 q 455 1269 424 1236 q 532 1301 486 1301 q 607 1270 574 1301 q 640 1194 640 1239 q 609 1119 640 1152 q 532 1086 578 1086 q 454 1119 484 1086 q 424 1195 424 1152 z "},"ż":{"ha":709,"x_min":45,"x_max":642,"o":"m 45 31 q 57 61 45 46 l 444 567 l 326 567 q 180 525 220 567 q 132 374 139 482 l 66 374 l 83 616 l 593 616 q 617 616 610 616 q 631 608 624 615 q 637 587 637 602 q 624 557 637 576 l 239 56 l 358 56 q 467 70 425 56 q 532 117 510 83 q 563 185 554 150 q 576 281 571 220 l 642 281 l 616 0 l 89 0 q 64 1 72 0 q 51 10 57 3 q 45 31 45 17 m 268 857 q 298 931 268 899 q 375 964 329 964 q 453 931 422 964 q 484 856 484 899 q 453 782 484 814 q 376 749 422 749 q 298 782 329 749 q 268 857 268 814 z "},"Ž":{"ha":975,"x_min":89,"x_max":896,"o":"m 89 36 q 100 72 89 56 l 656 888 l 475 888 q 257 822 329 888 q 176 618 184 757 l 111 618 l 127 953 l 842 953 q 867 951 860 953 q 881 942 875 950 q 886 918 886 935 q 875 885 886 901 l 321 71 l 515 71 q 622 81 575 71 q 701 107 669 92 q 755 150 732 122 q 792 201 779 178 q 813 263 804 225 q 825 327 822 301 q 831 395 828 353 l 896 395 l 871 0 l 134 0 q 107 1 115 0 q 94 10 100 3 q 89 36 89 18 m 227 1219 l 243 1255 q 463 1196 458 1196 l 464 1196 q 681 1255 465 1196 l 697 1219 q 538 1112 621 1169 q 463 1067 470 1066 q 386 1112 454 1067 q 227 1219 303 1169 z "},"ž":{"ha":709,"x_min":45,"x_max":642,"o":"m 45 31 q 57 61 45 46 l 444 567 l 326 567 q 180 525 220 567 q 132 374 139 482 l 66 374 l 83 616 l 593 616 q 617 616 610 616 q 631 608 624 615 q 637 587 637 602 q 624 557 637 576 l 239 56 l 358 56 q 467 70 425 56 q 532 117 510 83 q 563 185 554 150 q 576 281 571 220 l 642 281 l 616 0 l 89 0 q 64 1 72 0 q 51 10 57 3 q 45 31 45 17 m 99 890 l 99 892 l 122 922 l 123 922 q 338 803 332 803 l 339 803 q 551 922 346 803 l 553 922 l 578 892 l 578 890 l 339 653 l 338 653 l 99 890 z "},"ƒ":{"ha":833,"x_min":31,"x_max":803,"o":"m 31 -171 q 65 -92 31 -117 q 129 -68 100 -68 q 178 -85 158 -68 q 199 -132 199 -103 q 138 -222 199 -186 q 180 -235 165 -235 q 244 -161 222 -235 q 318 189 267 -87 l 385 551 l 267 551 q 232 557 241 551 q 222 579 222 562 q 269 616 222 616 l 396 616 q 406 671 399 619 q 430 789 412 722 q 476 896 447 856 q 647 981 536 981 q 758 949 713 981 q 803 865 803 917 q 767 785 803 810 q 704 761 732 761 q 655 779 675 761 q 636 827 636 798 q 696 916 636 886 q 650 929 668 929 q 600 892 619 929 q 545 616 591 872 l 694 616 q 733 590 733 616 q 688 551 733 551 l 532 551 l 465 187 q 379 -135 422 -47 q 292 -243 347 -200 q 180 -286 237 -286 q 73 -254 115 -285 q 31 -171 31 -222 z "},"Ș":{"ha":886,"x_min":89,"x_max":798,"o":"m 89 24 l 89 277 q 94 310 89 303 q 122 317 98 317 q 139 315 133 317 q 149 310 146 314 q 153 301 153 306 q 154 285 154 296 q 194 162 158 213 q 284 89 229 111 q 386 58 339 66 q 482 50 433 50 q 621 100 579 50 q 663 212 663 150 q 607 334 663 277 q 557 363 585 355 q 431 393 530 371 q 258 439 304 421 q 164 504 211 457 q 89 689 89 583 q 170 887 89 807 q 400 968 250 968 q 637 892 542 968 l 700 953 q 728 968 717 968 q 749 960 745 968 q 753 929 753 953 l 753 675 q 748 643 753 650 q 720 636 743 636 q 694 641 699 636 q 685 672 689 646 q 621 817 669 761 q 518 890 572 872 q 401 908 464 908 q 266 863 307 908 q 224 762 224 818 q 266 667 224 704 q 357 618 307 629 l 558 575 q 728 474 658 554 q 798 282 798 393 q 719 74 798 163 q 482 -16 640 -16 q 204 61 307 -16 l 140 -3 q 114 -16 127 -15 q 93 -8 97 -16 q 89 24 89 0 m 383 -215 q 372 -204 383 -215 q 361 -161 361 -193 q 381 -107 361 -130 q 436 -85 402 -85 q 500 -119 475 -85 q 525 -207 525 -154 q 499 -319 525 -267 q 447 -398 473 -372 q 410 -424 420 -424 q 391 -407 391 -424 q 414 -380 391 -401 q 461 -317 436 -359 q 490 -217 486 -274 q 437 -236 463 -237 q 383 -215 406 -236 z "},"ș":{"ha":629,"x_min":53,"x_max":576,"o":"m 53 31 l 53 182 q 58 215 53 208 q 86 222 62 222 q 109 219 103 222 q 119 203 115 216 q 138 151 127 174 q 170 100 149 129 q 230 57 192 72 q 319 41 268 41 q 478 146 477 41 q 463 196 478 175 q 418 228 447 216 q 370 245 389 240 q 323 254 351 250 q 229 272 256 267 q 169 293 203 278 q 109 330 135 307 q 53 447 53 378 q 68 523 53 490 q 111 576 83 557 q 164 606 138 595 q 224 622 191 618 q 274 628 258 627 q 309 629 290 629 q 449 603 396 629 q 511 629 503 629 q 532 622 528 629 q 536 590 536 614 l 536 479 q 531 447 536 453 q 503 440 526 440 q 477 446 481 440 q 471 468 472 452 q 307 585 460 585 q 151 498 152 585 q 164 458 151 475 q 205 432 178 441 q 247 418 232 422 q 293 408 262 414 q 423 381 383 393 q 500 342 463 370 q 576 195 576 281 q 561 109 576 146 q 519 51 546 72 q 465 17 492 31 q 404 -1 439 4 q 354 -7 370 -5 q 319 -8 339 -8 q 155 36 220 -8 l 119 12 q 78 -8 90 -9 q 57 0 61 -8 q 53 31 53 8 m 256 -207 q 244 -196 256 -207 q 233 -153 233 -185 q 254 -99 233 -121 q 309 -77 275 -77 q 372 -111 347 -77 q 397 -199 397 -146 q 372 -311 397 -258 q 319 -390 346 -364 q 282 -416 293 -416 q 264 -399 264 -416 q 286 -372 264 -393 q 333 -309 309 -351 q 362 -209 358 -266 q 310 -228 336 -229 q 256 -207 278 -228 z "},"Ț":{"ha":1111,"x_min":58,"x_max":1051,"o":"m 58 603 l 87 937 l 1022 937 l 1051 603 l 986 603 q 977 692 981 661 q 958 765 972 724 q 921 825 943 806 q 858 858 899 844 q 760 872 818 872 l 654 872 l 654 65 l 867 65 l 867 0 q 555 4 791 4 q 244 0 319 4 l 244 65 l 457 65 l 457 872 l 350 872 q 251 858 292 872 q 188 824 210 843 q 152 764 165 804 q 133 692 138 724 q 123 603 127 661 l 58 603 m 494 -199 q 483 -188 494 -199 q 472 -146 472 -178 q 493 -92 472 -114 q 547 -69 513 -69 q 611 -104 586 -69 q 636 -191 636 -138 q 610 -304 636 -251 q 558 -382 585 -357 q 521 -408 532 -408 q 503 -391 503 -408 q 525 -365 503 -386 q 572 -301 547 -344 q 601 -201 597 -258 q 549 -220 574 -221 q 494 -199 517 -220 z "},"ț":{"ha":621,"x_min":29,"x_max":530,"o":"m 29 551 l 29 602 q 180 687 126 604 q 236 882 235 770 l 301 882 l 301 616 l 504 616 l 504 551 l 301 551 l 301 168 q 382 47 301 47 q 440 79 415 47 q 465 175 465 110 l 465 245 l 530 245 l 530 172 q 485 43 530 94 q 363 -8 440 -8 q 143 171 143 -8 l 143 551 l 29 551 m 221 -207 q 210 -196 221 -207 q 199 -153 199 -185 q 219 -99 199 -121 q 274 -77 240 -77 q 338 -111 313 -77 q 363 -199 363 -146 q 337 -311 363 -258 q 285 -390 311 -364 q 248 -416 258 -416 q 229 -399 229 -416 q 252 -372 229 -393 q 299 -309 274 -351 q 328 -209 323 -266 q 275 -228 301 -229 q 221 -207 243 -228 z "},"ˆ":{"ha":798,"x_min":178,"x_max":619,"o":"m 178 708 l 399 914 l 400 914 l 619 708 l 576 659 l 400 800 l 399 800 l 221 659 l 178 708 z "},"ˇ":{"ha":798,"x_min":160,"x_max":639,"o":"m 160 890 l 160 892 l 183 922 l 184 922 q 399 803 393 803 l 400 803 q 612 922 407 803 l 614 922 l 639 892 l 639 890 l 400 653 l 399 653 l 160 890 z "},"˘":{"ha":798,"x_min":151,"x_max":644,"o":"m 151 907 l 201 907 q 228 836 204 865 q 286 794 252 807 q 347 777 319 782 q 399 772 374 772 q 471 780 433 772 q 549 820 509 787 q 595 907 590 852 l 644 907 q 567 745 640 804 q 399 686 493 686 q 228 747 302 686 q 151 907 154 807 z "},"˙":{"ha":443,"x_min":135,"x_max":351,"o":"m 135 857 q 166 931 135 899 q 243 964 197 964 q 318 932 286 964 q 351 856 351 901 q 320 782 351 814 q 243 749 289 749 q 165 782 195 749 q 135 857 135 814 z "},"˚":{"ha":1206,"x_min":436,"x_max":768,"o":"m 476 714 q 456 733 476 714 q 436 797 436 751 q 476 881 436 843 q 604 918 517 918 q 729 881 690 918 q 768 798 768 843 q 724 710 768 745 q 603 676 679 676 q 476 714 515 676 m 503 798 q 510 756 503 771 q 536 734 518 741 q 567 726 554 728 q 608 725 581 725 q 653 728 636 725 q 687 748 671 730 q 703 798 703 765 q 695 839 703 824 q 670 861 688 854 q 638 868 652 867 q 595 869 624 869 q 563 867 576 869 q 535 859 550 865 q 511 837 519 852 q 503 798 503 821 z "},"˛":{"ha":443,"x_min":-7,"x_max":366,"o":"m -7 -178 q 22 -103 -7 -135 q 85 -57 52 -72 q 170 -24 119 -43 q 241 5 221 -5 q 289 39 264 18 l 311 1 l 311 0 q 249 -46 296 -12 q 180 -104 203 -79 q 157 -155 157 -129 q 175 -188 157 -175 q 216 -201 193 -201 q 323 -129 275 -201 l 366 -157 q 278 -258 334 -215 q 150 -301 222 -301 q 38 -263 82 -301 q -7 -178 -7 -225 z "},"˜":{"ha":798,"x_min":132,"x_max":664,"o":"m 132 848 q 162 881 139 855 q 190 912 184 907 q 212 932 195 917 q 240 951 229 947 q 266 959 250 954 q 300 964 282 964 q 411 940 338 964 q 522 917 484 917 q 576 927 555 917 q 627 964 597 937 l 664 929 q 634 897 656 921 q 606 867 612 873 q 583 846 600 861 q 555 827 566 831 q 529 819 545 823 q 494 814 513 814 q 384 838 456 814 q 273 861 313 861 q 219 851 240 861 q 168 814 197 840 l 132 848 z "},"˝":{"ha":798,"x_min":204,"x_max":772,"o":"m 204 743 q 385 905 368 895 q 426 920 404 919 q 484 892 460 920 q 507 832 507 864 q 478 776 507 793 q 326 717 450 758 q 239 686 272 697 l 204 743 m 470 743 q 650 905 634 895 q 692 920 670 919 q 749 892 726 920 q 772 832 772 864 q 744 776 772 793 q 592 717 715 758 q 505 686 538 697 l 470 743 z "},"ʹ":{"ha":362,"x_min":97,"x_max":322,"o":"m 97 694 q 100 706 98 700 q 105 727 102 713 q 113 757 109 741 q 126 808 118 774 q 146 884 135 843 l 149 897 q 153 917 151 911 q 160 936 155 922 q 171 956 165 949 q 185 971 176 962 q 205 983 193 979 q 231 987 216 987 q 293 963 264 987 q 322 904 322 939 q 305 860 322 880 q 207 760 288 839 q 125 679 157 711 l 123 679 l 97 694 z "},"͵":{"ha":362,"x_min":46,"x_max":271,"o":"m 46 -218 q 65 -170 46 -195 q 160 -74 85 -146 q 243 7 210 -25 l 271 -7 l 215 -225 q 138 -301 195 -302 q 75 -277 104 -301 q 46 -218 46 -253 z "},"ͺ":{"ha":223,"x_min":32,"x_max":192,"o":"m 32 -117 q 38 -85 32 -94 q 64 -77 45 -77 l 155 -77 q 185 -87 179 -77 q 192 -126 192 -97 l 192 -243 q 183 -292 192 -272 q 160 -321 175 -313 q 135 -334 146 -330 q 111 -338 123 -338 q 89 -334 100 -338 q 63 -321 77 -330 q 40 -292 49 -313 q 32 -243 32 -272 l 32 -117 z "},";":{"ha":501,"x_min":142,"x_max":363,"o":"m 142 109 q 171 184 142 151 q 250 216 200 216 q 332 169 302 216 q 363 45 363 122 q 328 -118 363 -41 q 258 -231 293 -195 q 208 -268 224 -268 q 192 -260 200 -268 q 183 -243 183 -253 q 201 -215 183 -235 q 241 -170 220 -195 q 284 -94 262 -144 q 311 17 306 -43 q 250 0 278 0 q 172 31 201 0 q 142 109 142 62 m 142 510 q 175 588 142 557 q 250 618 208 618 q 326 587 293 618 q 358 510 358 555 q 327 435 358 469 q 250 401 296 401 q 175 433 208 401 q 142 510 142 464 z "},"΄":{"ha":316,"x_min":60,"x_max":285,"o":"m 60 694 q 78 765 68 726 q 92 824 87 803 q 104 871 97 846 q 116 911 111 897 q 127 940 121 925 q 139 963 134 956 q 153 977 144 970 q 171 985 161 983 q 193 987 180 987 q 256 963 227 987 q 285 905 285 939 q 264 856 285 880 q 168 757 244 831 q 87 679 119 709 l 60 694 z "},"΅":{"ha":501,"x_min":-4,"x_max":507,"o":"m -4 736 q 14 773 -4 757 q 77 790 32 790 q 136 773 117 790 q 155 736 155 757 q 137 697 155 715 q 74 679 118 679 q 18 695 39 679 q -4 736 -4 711 m 200 694 q 269 944 250 900 q 334 987 288 987 q 397 962 370 987 q 424 905 424 936 q 403 855 424 880 q 296 746 382 829 q 228 679 254 705 l 200 694 m 367 696 q 357 705 367 696 q 347 735 347 714 q 366 773 347 755 q 429 790 385 790 q 488 773 469 790 q 507 735 507 755 q 489 696 507 714 q 427 679 471 679 q 367 696 387 679 z "},"Ά":{"ha":1295,"x_min":60,"x_max":1217,"o":"m 60 694 q 78 765 68 726 q 92 824 87 803 q 104 871 97 846 q 116 911 111 897 q 127 940 121 925 q 139 963 134 956 q 153 977 144 970 q 171 985 161 983 q 193 987 180 987 q 256 963 227 987 q 285 905 285 939 q 264 856 285 880 q 168 757 244 831 q 87 679 119 709 l 60 694 m 78 0 l 78 66 q 195 73 172 66 q 229 104 218 79 l 589 930 q 609 961 598 953 q 646 970 621 970 q 680 962 667 970 q 696 949 693 954 q 705 928 699 943 l 1040 157 q 1060 112 1047 141 q 1079 66 1072 82 l 1217 66 l 1217 0 q 1002 4 1097 4 l 991 4 q 743 0 868 4 l 743 66 l 872 66 l 783 271 l 383 271 q 343 175 363 222 q 315 111 322 129 q 307 86 307 93 q 425 66 307 66 l 425 0 q 243 4 336 4 q 78 0 161 4 m 412 338 l 754 338 l 585 730 l 412 338 z "},"·":{"ha":501,"x_min":142,"x_max":358,"o":"m 142 510 q 175 588 142 557 q 250 618 208 618 q 326 587 293 618 q 358 510 358 555 q 327 435 358 469 q 250 401 296 401 q 175 433 208 401 q 142 510 142 464 z "},"Έ":{"ha":1450,"x_min":60,"x_max":1383,"o":"m 60 694 q 78 765 68 726 q 92 824 87 803 q 104 871 97 846 q 116 911 111 897 q 127 940 121 925 q 139 963 134 956 q 153 977 144 970 q 171 985 161 983 q 193 987 180 987 q 256 963 227 987 q 285 905 285 939 q 264 856 285 880 q 168 757 244 831 q 87 679 119 709 l 60 694 m 397 0 l 397 66 l 547 66 l 547 879 l 397 879 l 397 945 q 636 942 477 942 q 762 943 704 942 q 829 945 819 945 l 1295 945 l 1337 608 l 1271 608 q 1188 823 1250 766 q 972 879 1126 879 l 745 879 l 745 524 l 842 524 q 963 563 936 525 q 990 686 990 602 l 1057 686 l 1057 294 l 990 294 q 963 417 990 379 q 842 457 936 456 l 745 457 l 745 66 l 949 66 q 1138 87 1064 66 q 1257 180 1211 109 q 1318 382 1294 241 l 1383 382 l 1321 0 l 829 0 q 761 2 820 0 q 633 4 703 4 q 397 0 517 4 z "},"Ή":{"ha":1655,"x_min":60,"x_max":1572,"o":"m 60 694 q 78 765 68 726 q 92 824 87 803 q 104 871 97 846 q 116 911 111 897 q 127 940 121 925 q 139 963 134 956 q 153 977 144 970 q 171 985 161 983 q 193 987 180 987 q 256 963 227 987 q 285 905 285 939 q 264 856 285 880 q 168 757 244 831 q 87 679 119 709 l 60 694 m 397 0 l 397 66 l 547 66 l 547 886 l 397 886 l 397 953 q 652 949 525 949 q 896 953 772 949 l 896 886 l 745 886 l 745 528 l 1225 528 l 1225 886 l 1075 886 l 1075 953 q 1329 949 1202 949 q 1572 953 1450 949 l 1572 886 l 1422 886 l 1422 66 l 1572 66 l 1572 0 q 1329 4 1450 4 q 1075 0 1203 4 l 1075 66 l 1225 66 l 1225 463 l 745 463 l 745 66 l 896 66 l 896 0 q 642 4 770 4 q 397 0 519 4 z "},"Ί":{"ha":976,"x_min":60,"x_max":903,"o":"m 60 694 q 78 765 68 726 q 92 824 87 803 q 104 871 97 846 q 116 911 111 897 q 127 940 121 925 q 139 963 134 956 q 153 977 144 970 q 171 985 161 983 q 193 987 180 987 q 256 963 227 987 q 285 905 285 939 q 264 856 285 880 q 168 757 244 831 q 87 679 119 709 l 60 694 m 389 0 l 389 65 l 547 65 l 547 888 l 389 888 l 389 953 q 646 949 446 949 q 903 953 846 949 l 903 888 l 745 888 l 745 65 l 903 65 l 903 0 q 646 4 846 4 q 389 0 446 4 z "},"Ό":{"ha":1450,"x_min":60,"x_max":1337,"o":"m 60 694 q 78 765 68 726 q 92 824 87 803 q 104 871 97 846 q 116 911 111 897 q 127 940 121 925 q 139 963 134 956 q 153 977 144 970 q 171 985 161 983 q 193 987 180 987 q 256 963 227 987 q 285 905 285 939 q 264 856 285 880 q 168 757 244 831 q 87 679 119 709 l 60 694 m 269 471 q 288 616 269 546 q 348 751 307 686 q 450 863 390 815 q 603 939 511 911 q 805 968 694 968 q 1192 832 1046 968 q 1337 472 1337 696 q 1192 118 1337 252 q 801 -16 1047 -16 q 414 118 558 -16 q 269 471 269 252 m 553 790 q 481 494 481 690 q 543 191 481 298 q 607 112 569 143 q 685 67 646 81 q 752 50 725 54 q 804 45 779 45 q 905 61 857 45 q 1001 115 954 77 q 1080 227 1048 153 q 1120 404 1112 301 q 1123 503 1123 443 q 1048 799 1123 699 q 945 881 1010 850 q 802 911 880 911 q 659 880 726 911 q 553 790 593 848 z "},"Ύ":{"ha":1651,"x_min":60,"x_max":1537,"o":"m 60 694 q 78 765 68 726 q 92 824 87 803 q 104 871 97 846 q 116 911 111 897 q 127 940 121 925 q 139 963 134 956 q 153 977 144 970 q 171 985 161 983 q 193 987 180 987 q 256 963 227 987 q 285 905 285 939 q 264 856 285 880 q 168 757 244 831 q 87 679 119 709 l 60 694 m 428 771 q 488 904 428 840 q 650 968 549 968 q 721 958 685 968 q 808 920 757 949 q 907 820 860 890 q 983 643 954 749 q 1021 751 996 699 q 1085 855 1046 804 q 1184 937 1124 905 q 1316 968 1244 968 q 1476 903 1415 968 q 1537 771 1537 839 q 1503 737 1537 738 q 1473 745 1480 737 q 1463 763 1466 753 q 1454 783 1461 772 q 1416 801 1447 793 q 1329 808 1385 808 q 1169 741 1230 808 q 1082 456 1082 644 l 1082 66 l 1270 66 l 1270 0 q 972 4 1120 4 q 696 0 833 4 l 696 66 l 885 66 l 885 454 q 861 625 885 553 q 802 733 838 697 q 737 785 766 770 q 682 806 709 800 q 636 808 667 808 q 550 801 581 808 q 512 783 519 793 q 502 763 504 772 q 493 745 500 753 q 465 737 486 737 q 428 771 428 738 z "},"Ώ":{"ha":1400,"x_min":60,"x_max":1307,"o":"m 60 694 q 78 765 68 726 q 92 824 87 803 q 104 871 97 846 q 116 911 111 897 q 127 940 121 925 q 139 963 134 956 q 153 977 144 970 q 171 985 161 983 q 193 987 180 987 q 256 963 227 987 q 285 905 285 939 q 264 856 285 880 q 168 757 244 831 q 87 679 119 709 l 60 694 m 251 278 l 318 278 q 345 170 335 185 q 423 143 361 146 q 459 143 437 143 l 548 143 q 470 264 522 197 q 377 379 418 330 q 303 497 336 428 q 271 635 271 566 q 295 744 271 690 q 373 850 319 798 q 532 935 427 903 q 779 968 637 968 q 984 946 892 968 q 1131 889 1075 924 q 1223 808 1186 854 q 1273 719 1259 762 q 1287 633 1287 676 q 1255 495 1287 564 q 1181 378 1222 427 q 1087 264 1140 330 q 1008 143 1034 197 l 1084 143 q 1202 159 1183 144 q 1237 260 1222 174 q 1240 278 1238 271 l 1307 278 l 1255 0 l 968 0 q 939 11 947 1 q 930 41 930 20 q 1003 335 930 133 q 1075 637 1075 536 q 1048 774 1075 717 q 976 861 1022 832 q 882 904 930 890 q 779 917 834 917 q 675 904 724 917 q 582 861 627 890 q 509 774 536 832 q 483 636 483 717 q 554 334 483 536 q 626 40 626 131 q 619 10 626 19 q 590 0 612 1 l 302 0 l 251 278 z "},"ΐ":{"ha":455,"x_min":-56,"x_max":456,"o":"m -56 736 q -38 773 -56 757 q 25 790 -20 790 q 85 773 65 790 q 104 736 104 757 q 85 697 104 715 q 22 679 66 679 q -34 695 -12 679 q -56 736 -56 711 m 114 595 q 149 625 114 625 l 252 625 q 285 600 285 625 q 249 427 285 588 q 214 249 214 267 q 231 200 214 221 q 275 179 249 179 q 312 194 296 179 q 328 232 328 210 q 347 268 328 268 q 401 231 368 268 q 433 139 433 193 q 390 34 433 79 q 283 -12 347 -12 q 142 151 165 -12 q 125 383 136 193 q 114 595 114 574 m 149 694 q 217 944 199 900 q 282 987 236 987 q 345 962 318 987 q 372 905 372 936 q 351 855 372 880 q 244 746 330 829 q 176 679 203 705 l 149 694 m 315 696 q 306 705 315 696 q 296 735 296 714 q 315 773 296 755 q 378 790 334 790 q 434 775 412 790 q 456 734 456 760 q 437 696 456 713 q 375 679 419 679 q 315 696 335 679 z "},"Α":{"ha":1295,"x_min":78,"x_max":1217,"o":"m 78 0 l 78 66 q 195 73 172 66 q 229 104 218 79 l 589 930 q 609 961 598 953 q 646 970 621 970 q 680 962 667 970 q 696 949 693 954 q 705 928 699 943 l 1040 157 q 1060 112 1047 141 q 1079 66 1072 82 l 1217 66 l 1217 0 q 1002 4 1097 4 l 991 4 q 743 0 868 4 l 743 66 l 872 66 l 783 271 l 383 271 q 343 175 363 222 q 315 111 322 129 q 307 86 307 93 q 425 66 307 66 l 425 0 q 243 4 336 4 q 78 0 161 4 m 412 338 l 754 338 l 585 730 l 412 338 z "},"Β":{"ha":1222,"x_min":82,"x_max":1109,"o":"m 82 0 l 82 66 l 232 66 l 232 886 l 82 886 l 82 953 q 317 949 199 949 q 430 951 372 949 q 528 953 488 953 l 669 953 q 1008 848 912 953 q 1064 713 1064 789 q 810 497 1064 549 q 945 468 880 492 q 1060 390 1010 444 q 1109 258 1109 335 q 1076 142 1109 201 q 961 43 1043 82 q 713 0 871 0 l 536 0 q 442 2 498 0 q 315 4 386 4 q 82 0 199 4 m 415 66 l 677 66 q 852 123 800 66 q 904 262 904 180 q 862 401 904 345 q 746 468 821 458 q 696 471 729 471 l 415 471 l 415 66 m 415 521 l 637 521 q 754 540 705 521 q 825 592 803 559 q 856 653 847 624 q 865 713 865 682 q 824 833 865 781 q 685 886 783 886 l 415 886 l 415 521 z "},"Γ":{"ha":1042,"x_min":81,"x_max":951,"o":"m 81 0 l 81 66 l 231 66 l 231 879 l 81 879 l 81 945 q 319 942 160 942 q 444 943 386 942 q 511 945 501 945 l 909 945 l 951 608 l 886 608 q 863 729 877 685 q 821 810 850 774 q 742 862 791 847 q 614 879 692 878 l 428 879 l 428 66 l 616 66 l 616 0 q 328 4 472 4 q 81 0 192 4 z "},"Δ":{"ha":1428,"x_min":104,"x_max":1322,"o":"m 104 18 q 115 46 104 28 l 639 918 q 670 959 657 949 q 711 970 682 970 q 750 963 736 970 q 779 932 764 956 l 1307 52 q 1322 17 1322 25 q 1295 0 1322 0 l 139 0 q 104 18 104 0 m 275 168 l 1007 168 l 642 778 l 640 778 l 275 168 z "},"Ε":{"ha":1133,"x_min":81,"x_max":1067,"o":"m 81 0 l 81 66 l 231 66 l 231 879 l 81 879 l 81 945 q 319 942 160 942 q 445 943 387 942 q 513 945 503 945 l 978 945 l 1021 608 l 954 608 q 871 823 933 766 q 656 879 810 879 l 428 879 l 428 524 l 525 524 q 646 563 619 525 q 673 686 673 602 l 741 686 l 741 294 l 673 294 q 646 417 673 379 q 525 457 619 456 l 428 457 l 428 66 l 632 66 q 821 87 747 66 q 940 180 895 109 q 1002 382 977 241 l 1067 382 l 1004 0 l 513 0 q 445 2 503 0 q 317 4 386 4 q 81 0 200 4 z "},"Ζ":{"ha":1057,"x_min":111,"x_max":953,"o":"m 111 37 q 132 85 111 54 l 708 886 l 543 886 q 453 883 489 886 q 367 866 416 880 q 286 824 317 851 q 231 745 256 798 q 200 616 205 692 l 134 616 l 151 953 l 899 953 q 932 946 921 953 q 943 918 943 939 q 921 869 943 901 l 347 72 l 561 72 q 714 93 654 73 q 811 155 775 113 q 864 254 847 197 q 886 396 880 310 l 953 396 l 928 0 l 155 0 q 122 7 133 0 q 111 37 111 14 z "},"Η":{"ha":1339,"x_min":81,"x_max":1255,"o":"m 81 0 l 81 66 l 231 66 l 231 886 l 81 886 l 81 953 q 335 949 208 949 q 579 953 456 949 l 579 886 l 428 886 l 428 528 l 908 528 l 908 886 l 758 886 l 758 953 q 1013 949 886 949 q 1255 953 1133 949 l 1255 886 l 1105 886 l 1105 66 l 1255 66 l 1255 0 q 1013 4 1133 4 q 758 0 886 4 l 758 66 l 908 66 l 908 463 l 428 463 l 428 66 l 579 66 l 579 0 q 325 4 453 4 q 81 0 203 4 z "},"Θ":{"ha":1335,"x_min":111,"x_max":1221,"o":"m 111 471 q 260 830 111 692 q 668 968 408 968 q 1070 831 920 968 q 1221 471 1221 694 q 1071 118 1221 251 q 667 -16 921 -16 q 259 121 407 -16 q 111 471 111 257 m 309 472 q 439 113 309 218 q 665 39 528 39 q 759 48 714 39 q 853 85 803 57 q 939 158 903 113 q 999 284 975 204 q 1023 469 1023 364 q 896 839 1023 730 q 667 917 806 917 q 573 908 618 917 q 479 869 529 899 q 393 793 429 840 q 333 663 357 746 q 309 472 309 581 m 403 347 l 403 610 l 468 610 l 468 562 l 864 562 l 864 610 l 930 610 l 930 347 l 864 347 l 864 395 l 468 395 l 468 347 l 403 347 z "},"Ι":{"ha":659,"x_min":73,"x_max":586,"o":"m 73 0 l 73 65 l 231 65 l 231 888 l 73 888 l 73 953 q 329 949 130 949 q 586 953 529 949 l 586 888 l 428 888 l 428 65 l 586 65 l 586 0 q 329 4 529 4 q 73 0 130 4 z "},"Κ":{"ha":1341,"x_min":81,"x_max":1253,"o":"m 81 0 l 81 66 l 231 66 l 231 886 l 81 886 l 81 953 q 335 949 208 949 q 579 953 456 949 l 579 886 l 428 886 l 428 437 l 977 873 q 882 886 943 886 l 882 953 l 1132 949 l 1229 953 l 1229 886 q 1174 886 1197 886 q 1134 883 1152 885 q 1107 879 1117 880 q 1088 873 1097 878 q 1075 865 1079 868 q 1062 855 1071 863 q 1047 843 1053 847 q 858 693 936 755 q 756 612 779 631 q 720 583 733 593 l 1111 97 q 1145 71 1129 75 q 1218 66 1161 66 l 1253 66 l 1253 0 q 1050 4 1132 4 q 802 0 925 4 l 802 66 l 814 66 q 892 82 892 66 q 878 107 892 89 l 621 427 l 583 475 q 516 421 565 461 q 450 370 467 382 q 431 350 433 356 q 428 322 428 345 l 428 66 l 579 66 l 579 0 q 325 4 453 4 q 81 0 203 4 z "},"Λ":{"ha":1202,"x_min":77,"x_max":1125,"o":"m 77 0 l 77 66 q 181 73 161 66 q 211 104 201 79 l 545 930 q 565 961 553 951 q 600 970 576 970 q 637 961 625 970 q 657 928 648 951 l 1004 66 l 1125 66 l 1125 0 q 911 4 1029 4 q 660 0 785 4 l 660 66 l 791 66 l 533 705 l 282 82 q 310 74 293 77 q 339 70 326 71 q 376 68 353 69 q 408 66 399 66 l 408 0 q 225 4 317 4 q 77 0 165 4 z "},"Μ":{"ha":1616,"x_min":86,"x_max":1528,"o":"m 86 0 l 86 66 q 191 70 160 66 q 229 80 222 74 q 236 103 236 86 l 236 886 l 86 886 l 86 953 l 397 953 q 434 945 422 953 q 458 913 446 937 l 770 257 q 807 176 803 185 l 808 176 q 843 254 831 229 l 1156 913 q 1180 945 1168 938 q 1217 953 1192 953 l 1528 953 l 1528 886 l 1378 886 l 1378 66 l 1528 66 l 1528 0 q 1283 4 1406 4 l 1278 4 q 1053 0 1182 4 l 1053 66 l 1204 66 l 1204 843 l 1203 890 q 1162 806 1191 861 l 806 47 q 753 1 783 1 q 725 13 737 1 q 710 30 713 24 q 699 53 707 36 l 310 873 l 310 103 q 313 84 310 90 q 330 74 315 79 q 374 68 345 69 q 461 66 404 66 l 461 0 q 274 4 367 4 q 86 0 180 4 z "},"Ν":{"ha":1339,"x_min":81,"x_max":1255,"o":"m 81 0 l 81 66 l 85 66 q 186 70 157 66 q 223 80 216 74 q 231 103 231 86 l 231 886 l 81 886 l 81 953 l 407 953 q 456 928 433 953 l 1032 278 l 1032 839 q 1014 879 1032 872 q 903 886 996 886 l 882 886 l 882 953 q 1069 949 975 949 q 1255 953 1161 949 l 1255 886 q 1168 886 1197 886 q 1125 879 1140 885 q 1107 867 1109 872 q 1105 844 1105 861 l 1105 37 q 1069 0 1105 0 q 1060 1 1064 0 q 1051 3 1055 1 q 1043 7 1047 4 q 1036 13 1039 11 q 1025 23 1032 16 q 1014 35 1018 31 q 999 52 1010 40 q 981 74 989 64 l 304 835 l 304 100 q 313 79 306 84 q 351 70 319 74 q 456 66 383 66 l 456 0 q 268 4 361 4 q 81 0 175 4 z "},"Ξ":{"ha":1149,"x_min":89,"x_max":1061,"o":"m 89 292 l 155 292 q 172 179 161 196 q 237 158 183 161 q 351 155 313 155 l 791 155 q 966 167 948 155 q 994 292 990 180 l 1061 292 l 1047 0 l 102 0 l 89 292 m 98 661 l 111 937 l 1039 937 l 1051 661 l 985 661 q 971 756 981 736 q 936 778 962 775 q 775 782 904 782 l 366 782 q 206 777 232 782 q 174 742 180 772 q 165 661 168 722 l 98 661 m 250 346 l 250 629 l 317 629 l 317 566 l 832 566 l 832 629 l 899 629 l 899 346 l 832 346 l 832 410 l 317 410 l 317 346 l 250 346 z "},"Ο":{"ha":1291,"x_min":111,"x_max":1179,"o":"m 111 471 q 130 616 111 546 q 190 751 149 686 q 292 863 232 815 q 445 939 353 911 q 647 968 536 968 q 1034 832 888 968 q 1179 472 1179 696 q 1034 118 1179 252 q 643 -16 889 -16 q 256 118 400 -16 q 111 471 111 252 m 395 790 q 323 494 323 690 q 385 191 323 298 q 449 112 411 143 q 527 67 488 81 q 594 50 567 54 q 646 45 621 45 q 747 61 699 45 q 843 115 796 77 q 922 227 890 153 q 962 404 954 301 q 965 503 965 443 q 890 799 965 699 q 787 881 852 850 q 644 911 722 911 q 501 880 568 911 q 395 790 435 848 z "},"Π":{"ha":1339,"x_min":81,"x_max":1255,"o":"m 81 0 l 81 66 l 231 66 l 231 879 l 81 879 l 81 945 l 347 942 l 439 945 l 899 945 l 989 942 l 1255 945 l 1255 879 l 1105 879 l 1105 66 l 1255 66 l 1255 0 q 1013 4 1133 4 q 758 0 886 4 l 758 66 l 908 66 l 908 879 l 428 879 l 428 66 l 579 66 l 579 0 q 325 4 453 4 q 81 0 203 4 z "},"Ρ":{"ha":1176,"x_min":81,"x_max":1064,"o":"m 81 0 l 81 66 l 231 66 l 231 886 l 81 886 l 81 953 q 317 949 200 949 q 440 951 386 949 q 532 953 494 953 l 647 953 q 1013 827 913 953 q 1064 682 1064 760 q 1045 595 1064 637 q 985 511 1026 553 q 861 444 943 469 q 665 418 778 418 l 428 418 l 428 66 l 579 66 l 579 0 q 325 4 453 4 q 81 0 203 4 m 421 476 l 607 476 q 730 487 682 476 q 804 524 778 498 q 839 580 829 549 q 850 660 848 611 l 850 704 q 836 795 848 761 q 785 852 823 829 q 608 886 729 886 l 421 886 l 421 476 z "},"Σ":{"ha":1241,"x_min":111,"x_max":1128,"o":"m 111 920 q 154 953 111 953 l 1086 953 l 1128 616 l 1063 616 q 1036 725 1053 679 q 989 800 1019 771 q 929 847 960 829 q 849 873 899 865 q 756 884 799 882 q 644 886 714 886 l 385 886 l 703 513 q 722 476 722 490 q 696 439 722 459 l 289 92 l 629 92 q 868 108 800 92 q 977 165 936 125 q 1063 361 1044 232 l 1128 361 l 1086 0 l 154 0 q 114 25 114 0 q 115 31 114 28 q 118 38 115 35 q 123 45 121 41 q 131 54 126 49 q 141 63 136 58 q 154 75 146 68 q 170 87 163 82 q 188 103 176 93 q 208 121 199 113 l 538 401 l 132 878 q 111 920 111 901 z "},"Τ":{"ha":1200,"x_min":79,"x_max":1120,"o":"m 79 602 l 109 937 l 419 937 l 578 933 l 781 937 l 1090 937 l 1120 602 l 1053 602 q 1027 756 1043 706 q 965 838 1011 807 q 798 871 912 871 l 699 871 l 699 66 l 911 66 l 911 0 q 583 4 747 4 q 288 0 508 4 l 288 66 l 501 66 l 501 871 l 401 871 q 274 858 321 871 q 200 808 227 844 q 164 727 174 771 q 146 602 154 684 l 79 602 z "},"Υ":{"ha":1335,"x_min":111,"x_max":1221,"o":"m 111 771 q 172 904 111 840 q 334 968 232 968 q 404 958 368 968 q 492 920 440 949 q 590 820 543 890 q 667 643 637 749 q 704 751 679 699 q 768 855 729 804 q 867 937 807 905 q 999 968 928 968 q 1160 903 1099 968 q 1221 771 1221 839 q 1186 737 1221 738 q 1156 745 1164 737 q 1147 763 1149 753 q 1138 783 1145 772 q 1099 801 1131 793 q 1013 808 1068 808 q 852 741 913 808 q 765 456 765 644 l 765 66 l 953 66 l 953 0 q 656 4 803 4 q 379 0 517 4 l 379 66 l 568 66 l 568 454 q 545 625 568 553 q 485 733 521 697 q 420 785 449 770 q 366 806 392 800 q 319 808 350 808 q 233 801 264 808 q 195 783 203 793 q 185 763 187 772 q 176 745 183 753 q 149 737 170 737 q 111 771 111 738 z "},"Φ":{"ha":1241,"x_min":111,"x_max":1128,"o":"m 111 478 q 225 658 111 589 q 521 741 339 726 l 521 886 l 334 886 l 334 953 q 627 949 479 949 q 892 953 720 949 l 892 886 l 703 886 l 703 742 q 1004 662 880 734 q 1128 476 1128 590 q 1007 293 1128 366 q 703 211 886 220 l 703 66 l 892 66 l 892 0 q 600 4 746 4 q 334 0 506 4 l 334 66 l 521 66 l 521 212 q 216 303 321 228 q 111 478 111 378 m 317 478 q 323 409 317 439 q 351 346 330 378 q 414 292 371 314 q 521 264 457 271 l 521 688 q 358 617 400 674 q 317 478 317 560 m 703 262 q 867 321 811 275 q 922 473 922 368 q 876 623 922 570 q 704 690 829 675 l 703 629 l 703 262 z "},"Χ":{"ha":1295,"x_min":69,"x_max":1227,"o":"m 69 0 l 69 66 q 172 66 140 66 q 227 76 204 66 q 253 89 250 86 q 275 117 256 92 q 554 463 541 447 l 554 464 l 229 886 l 90 886 l 90 953 q 313 949 190 949 q 571 953 441 949 l 571 886 l 458 886 l 672 610 q 818 790 741 697 q 875 868 875 861 q 758 886 875 886 l 758 953 q 930 949 929 949 q 1156 953 975 949 l 1156 886 q 1028 881 1065 886 q 982 871 991 876 q 953 840 972 865 q 718 549 721 553 l 1074 86 q 1090 70 1084 73 q 1111 66 1096 66 l 1227 66 l 1227 0 q 1003 4 1115 4 q 747 0 876 4 l 747 66 l 860 66 l 602 403 l 343 81 q 467 66 382 67 l 467 0 q 254 4 361 4 q 69 0 161 4 z "},"Ψ":{"ha":1335,"x_min":113,"x_max":1219,"o":"m 113 734 q 154 760 113 760 l 257 760 q 386 586 379 760 q 393 492 387 530 q 415 405 399 454 q 470 321 432 355 q 568 271 509 288 l 568 886 l 379 886 l 379 953 q 644 949 553 949 l 937 953 l 937 886 l 750 886 l 750 269 q 890 356 838 293 q 945 561 942 419 q 1075 760 949 760 l 1179 760 q 1219 734 1219 760 q 1217 725 1219 729 q 1213 718 1215 721 q 1206 713 1211 715 q 1199 711 1202 711 q 1192 708 1197 710 l 1186 707 q 1160 691 1171 703 q 1143 667 1149 679 q 1134 633 1137 654 q 1129 601 1131 612 q 1127 567 1128 589 q 1126 542 1126 546 q 1088 400 1121 461 q 1015 306 1055 339 q 918 251 974 272 q 826 222 863 229 q 750 212 789 215 l 750 66 l 937 66 l 937 0 q 646 4 791 4 q 379 0 538 4 l 379 66 l 568 66 l 568 212 q 395 257 469 222 q 286 331 321 292 q 231 425 252 371 q 208 509 211 478 q 204 572 205 539 q 204 585 204 582 q 186 669 201 639 q 155 703 171 699 q 126 713 139 707 q 113 734 113 719 z "},"Ω":{"ha":1241,"x_min":93,"x_max":1149,"o":"m 93 278 l 160 278 q 187 170 177 185 q 265 143 203 146 q 301 143 279 143 l 390 143 q 312 264 363 197 q 219 379 260 330 q 145 497 178 428 q 113 635 113 566 q 137 744 113 690 q 215 850 161 798 q 374 935 269 903 q 621 968 479 968 q 826 946 734 968 q 972 889 917 924 q 1065 808 1028 854 q 1115 719 1101 762 q 1129 633 1129 676 q 1097 495 1129 564 q 1023 378 1064 427 q 929 264 982 330 q 850 143 876 197 l 926 143 q 1044 159 1025 144 q 1079 260 1064 174 q 1082 278 1080 271 l 1149 278 l 1097 0 l 810 0 q 781 11 789 1 q 772 41 772 20 q 845 335 772 133 q 917 637 917 536 q 890 774 917 717 q 818 861 864 832 q 724 904 772 890 q 621 917 676 917 q 517 904 566 917 q 424 861 469 890 q 351 774 378 832 q 325 636 325 717 q 396 334 325 536 q 468 40 468 131 q 461 10 468 19 q 432 0 454 1 l 144 0 l 93 278 z "},"Ϊ":{"ha":659,"x_min":33,"x_max":624,"o":"m 33 1122 q 64 1198 33 1165 q 142 1231 96 1231 q 217 1199 184 1231 q 250 1122 250 1168 q 217 1045 250 1075 q 142 1015 183 1015 q 66 1046 99 1015 q 33 1122 33 1076 m 72 0 l 72 66 l 231 66 l 231 886 l 72 886 l 72 953 q 339 949 205 949 q 586 953 464 949 l 586 886 l 428 886 l 428 66 l 586 66 l 586 0 q 321 4 452 4 q 72 0 297 4 m 408 1122 q 439 1197 408 1164 q 517 1231 471 1231 q 592 1200 559 1231 q 624 1124 624 1169 q 592 1047 624 1079 q 516 1015 561 1015 q 440 1046 472 1015 q 408 1122 408 1076 z "},"Ϋ":{"ha":1335,"x_min":111,"x_max":1221,"o":"m 111 771 q 172 904 111 840 q 334 968 232 968 q 404 958 368 968 q 492 920 440 949 q 590 820 543 890 q 667 643 637 749 q 704 751 679 699 q 768 855 729 804 q 867 937 807 905 q 999 968 928 968 q 1160 903 1099 968 q 1221 771 1221 839 q 1186 737 1221 738 q 1156 745 1164 737 q 1147 763 1149 753 q 1138 783 1145 772 q 1099 801 1131 793 q 1013 808 1068 808 q 852 741 913 808 q 765 456 765 644 l 765 66 l 953 66 l 953 0 q 656 4 803 4 q 379 0 517 4 l 379 66 l 568 66 l 568 454 q 545 625 568 553 q 485 733 521 697 q 420 785 449 770 q 366 806 392 800 q 319 808 350 808 q 233 801 264 808 q 195 783 203 793 q 185 763 187 772 q 176 745 183 753 q 149 737 170 737 q 111 771 111 738 m 351 1122 q 382 1199 351 1167 q 458 1231 414 1231 q 535 1200 503 1231 q 567 1124 567 1169 q 535 1047 567 1079 q 460 1015 504 1015 q 382 1047 412 1015 q 351 1122 351 1080 m 796 1046 q 781 1062 796 1046 q 765 1122 765 1078 q 797 1199 765 1166 q 872 1231 828 1231 q 949 1200 917 1231 q 981 1124 981 1169 q 949 1047 981 1079 q 875 1015 918 1015 q 796 1046 827 1015 z "}}}
